<svg xmlns="http://www.w3.org/2000/svg" viewBox="0 0 420 272"><defs><style>.cls-1,.cls-11,.cls-18{fill:#c6f;}.cls-1{opacity:0.15;}.cls-11,.cls-2{font-size:11px;}.cls-2,.cls-9{fill:#dcb767;}.cls-10,.cls-11,.cls-2{font-family:ArialNarrow-Italic, Arial;font-style:italic;}.cls-14,.cls-15,.cls-17,.cls-19,.cls-21,.cls-22,.cls-3,.cls-6,.cls-7,.cls-8{fill:none;}.cls-3{stroke:#7f7f7f;}.cls-14,.cls-15,.cls-17,.cls-19,.cls-20,.cls-21,.cls-22,.cls-3,.cls-6,.cls-7,.cls-8{stroke-miterlimit:10;}.cls-14,.cls-15,.cls-17,.cls-21,.cls-22,.cls-3,.cls-8{stroke-width:0.5px;}.cls-4{fill:#fff;}.cls-5{fill:#7f7f7f;}.cls-15,.cls-6,.cls-7{stroke:#000;}.cls-6{stroke-width:0.75px;}.cls-20,.cls-7{stroke-width:0.25px;}.cls-7{stroke-dasharray:3 2;}.cls-14,.cls-21,.cls-8{stroke:#dcb767;}.cls-10{font-size:9px;fill:#545454;}.cls-12{letter-spacing:-0.06em;}.cls-13{letter-spacing:0em;}.cls-14{stroke-dasharray:3 1;}.cls-16{opacity:0.5;}.cls-17,.cls-19{stroke:#c6f;}.cls-17{stroke-dasharray:1 1;}.cls-20{fill:#9b9b9b;stroke:#fcfcfc;}.cls-21{stroke-linecap:round;}.cls-22{stroke:#dcb9d5;}.cls-23{fill:#dcb9d5;}</style></defs><g id="Lines"><g id="surface"><path class="cls-1" d="M135.73,51A61.77,61.77,0,0,1,155,91.82a36.93,36.93,0,0,1-33.36,16,66,66,0,0,0-5.34-18.56,78.06,78.06,0,0,0-13.43-19.73c-1.19-1.33-2.21-2.41-2.94-3.15a104.32,104.32,0,0,1,17.53-10.18A56.1,56.1,0,0,1,131,51.65C132.94,51.3,134.57,51.12,135.73,51Z"/></g></g><g id="diagramming"><g id="text"><text class="cls-2" transform="translate(148.27 197.74)">Azimuth (α) </text><path class="cls-3" d="M99.25,171.33c7.9,11.17,16.33,15.41,20,16.95,7.22,3,17.08,4.54,19.37,4.89,1.15.18,2.21.32,3.17.43"/><path class="cls-4" d="M98.55,171.92a.94.94,0,1,1,1.32.19A.94.94,0,0,1,98.55,171.92Z"/><path class="cls-5" d="M98.45,172a1.07,1.07,0,1,0,.22-1.49,1.07,1.07,0,0,0-.22,1.49Zm1.51-1.12a.82.82,0,0,1-1.31,1,.82.82,0,0,1,.17-1.14.82.82,0,0,1,1.14.17Z"/><path class="cls-5" d="M144.78,193.92a15,15,0,0,0-4.53,1.85l1.14-2.26-.57-2.46A15.12,15.12,0,0,0,144.78,193.92Z"/></g><g id="dashed"><path class="cls-6" d="M100.09,66.42C111,58.58,123.49,52.9,136.49,51"/><path class="cls-6" d="M121.9,109.06a49.85,49.85,0,0,0,33.69-17.27"/><path class="cls-6" d="M135.87,50.26a99.27,99.27,0,0,1,20.32,40.8"/><path class="cls-7" d="M128.47,42.4a93.09,93.09,0,0,1,7.4,7.86"/><path class="cls-6" d="M99.88,66.23a66.68,66.68,0,0,1,17.79,26.58,87.67,87.67,0,0,1,4.23,16.25"/><path class="cls-7" d="M136.49,51a63.09,63.09,0,0,1,15.3-.4"/><path class="cls-7" d="M86.74,77.8a107.06,107.06,0,0,1,13.35-11.38"/><path class="cls-7" d="M155.59,91.79a44.6,44.6,0,0,0,4.2-5.89"/><path class="cls-7" d="M110.36,108.54a45.12,45.12,0,0,0,11.54.52"/><path class="cls-7" d="M156.19,91.06a97.25,97.25,0,0,1,2.29,14.6"/><path class="cls-7" d="M121.9,109.06a112.08,112.08,0,0,1,1.37,14.2"/><path class="cls-7" d="M86.74,57.67a51.8,51.8,0,0,1,13.14,8.56"/></g></g><g id="circle"><path class="cls-8" d="M85.3,170.21c.6.12,9.12,1.69,14.12-4a11.69,11.69,0,0,0,2.08-3.37"/><path class="cls-9" d="M102.18,160.7a11.34,11.34,0,0,0,.69,3.6l-1.49-1.17-1.9.05A11.11,11.11,0,0,0,102.18,160.7Z"/><path class="cls-8" d="M102.66,155.3c.78-.83,11.43-12.63,4.07-27a32,32,0,0,0-7.27-9.18"/><path class="cls-9" d="M97.73,117.64a11.73,11.73,0,0,0,3.6.74l-1.65.93L99,121.08A11.1,11.1,0,0,0,97.73,117.64Z"/><text class="cls-2" transform="translate(167.6 46.74)">n (normal to the sphere)</text><text class="cls-10" transform="translate(230.53 149.3)">y</text><text class="cls-10" transform="translate(162.17 249.88)">x</text><text class="cls-10" transform="translate(57.99 22.55)">z</text><text class="cls-2" transform="translate(239.61 135.55)">Elevation (ß)</text><text class="cls-11" transform="translate(232.11 80.46)">Mesh <tspan class="cls-12" x="24.57" y="0">V</tspan><tspan class="cls-13" x="29.98" y="0">ertex</tspan></text><line class="cls-14" x1="60.6" y1="147.95" x2="131.96" y2="165.81"/><line class="cls-14" x1="60.6" y1="60.17" x2="131.96" y2="78.03"/><line class="cls-14" x1="132.4" y1="79.67" x2="131.97" y2="164.06"/><path class="cls-3" d="M111.7,135.51A362.91,362.91,0,0,1,176,127.86a304.66,304.66,0,0,1,55.37,2.74c1.86.27,3.53.54,5,.78"/><path class="cls-4" d="M111.94,136.43a.94.94,0,1,1,.74-1.1A.93.93,0,0,1,111.94,136.43Z"/><path class="cls-5" d="M112,136.56a1.08,1.08,0,0,0,.84-1.25,1.06,1.06,0,1,0-.84,1.25C112.54,136.44,111.39,136.67,112,136.56Zm-.37-1.85a.82.82,0,0,1,1,.65.8.8,0,0,1-.64.95.82.82,0,1,1-.32-1.6C112.05,134.63,111.16,134.8,111.6,134.71Z"/><path class="cls-5" d="M239.3,131.9a15,15,0,0,0-4.6,1.66l1.24-2.21-.47-2.49A15.25,15.25,0,0,0,239.3,131.9Z"/><path class="cls-15" d="M60.6,33.52V159.39"/><path d="M60.6,30.5a15.39,15.39,0,0,1-2.38,4.28l2.38-.86,2.37.86A15.12,15.12,0,0,1,60.6,30.5Z"/><path d="M60.6,160.9a7.75,7.75,0,0,0-1.19-2.13l1.19.43,1.19-.43A7.27,7.27,0,0,0,60.6,160.9Z"/><path class="cls-15" d="M223.89,148H49.36"/><path d="M226.91,148a15,15,0,0,1-4.28-2.37l.86,2.37-.86,2.38A15.25,15.25,0,0,1,226.91,148Z"/><path d="M47.85,148A7.45,7.45,0,0,0,50,146.76L49.56,148l.43,1.19A8,8,0,0,0,47.85,148Z"/><path class="cls-15" d="M155.84,250.3,53.91,140.37"/><path d="M157.89,252.52a15.58,15.58,0,0,1-1.16-4.75L155.57,250l-2.32,1A14.78,14.78,0,0,1,157.89,252.52Z"/><path d="M52.88,139.26a7.24,7.24,0,0,0,2.33.76l-1.17.5-.57,1.12A7.84,7.84,0,0,0,52.88,139.26Z"/><g class="cls-16"><path class="cls-17" d="M117.78,92.33l10.33-9.78"/><polygon class="cls-18" points="129 84.29 130.06 80.7 126.43 81.57 129 84.29"/></g><line class="cls-19" x1="59.75" y1="146.67" x2="117.15" y2="92.92"/><ellipse class="cls-20" cx="131.96" cy="164.78" rx="4.6" ry="2.45"/><circle class="cls-18" cx="132.76" cy="77.69" r="3.81"/><path class="cls-21" d="M133.59,77.06,164,48.47"/><polygon class="cls-9" points="164.76 50 165.71 46.85 162.51 47.6 164.76 50"/><path class="cls-22" d="M134.55,78.6a219.53,219.53,0,0,1,46.12-9.28c23.83-2.14,35.38.9,43.9,4.89l1.78.88"/><path class="cls-4" d="M134.87,79.52a.93.93,0,0,1-1.16-.64.94.94,0,1,1,1.16.64Z"/><path class="cls-23" d="M134.9,79.64a1.06,1.06,0,0,0,.74-1.31,1.07,1.07,0,1,0-2,.58,1.06,1.06,0,0,0,1.31.73Zm-.51-1.81a.82.82,0,0,1,1,.57.82.82,0,0,1-1.57.44.82.82,0,0,1,.56-1C134.82,77.71,134,78,134.39,77.83Z"/><path class="cls-23" d="M229,76.53a15.09,15.09,0,0,0-4.89.13L226,75l.33-2.51A15.2,15.2,0,0,0,229,76.53Z"/><text class="cls-11" transform="translate(239.61 107.68)">Sphere</text><path class="cls-22" d="M149.17,101.17a110.86,110.86,0,0,0,26.88,10,118,118,0,0,0,56-1.6l2.21-.63"/><path class="cls-4" d="M148.82,102a.94.94,0,0,1-.44-1.25,1,1,0,0,1,1.26-.44.94.94,0,0,1,.43,1.26A.92.92,0,0,1,148.82,102Z"/><path class="cls-23" d="M148.76,102.12a1.07,1.07,0,0,0,.94-1.92,1.07,1.07,0,0,0-1.43.49,1.09,1.09,0,0,0,.49,1.43C149.29,102.37,148.24,101.86,148.76,102.12Zm.83-1.69a.81.81,0,1,1-1.09.37.81.81,0,0,1,1.09-.37Z"/><path class="cls-23" d="M237.1,108a14.92,14.92,0,0,0-3.41,3.51l.14-2.53-1.51-2A15.19,15.19,0,0,0,237.1,108Z"/></g></svg>