<svg xmlns="http://www.w3.org/2000/svg" viewBox="0 0 420 272"><defs><style>.cls-1,.cls-10,.cls-2,.cls-3,.cls-4,.cls-5{fill:none;stroke-miterlimit:10;}.cls-1,.cls-2,.cls-3,.cls-4,.cls-5{stroke:#231f20;}.cls-1{stroke-width:3px;}.cls-10,.cls-2,.cls-3,.cls-4,.cls-5{stroke-width:0.5px;}.cls-3{stroke-dasharray:4.7 1.88;}.cls-4{stroke-dasharray:4.9 1.96;}.cls-5{stroke-dasharray:5 2;}.cls-6{font-size:11px;fill:#101010;font-family:ArialNarrow-Italic, Arial;font-style:italic;letter-spacing:-0.06em;}.cls-7{letter-spacing:0em;}.cls-8{font-size:14px;}.cls-8,.cls-9{font-family:ArialMT, Arial;}.cls-9{font-size:21px;}.cls-10{stroke:#7f7f7f;}.cls-11{fill:#7f7f7f;}.cls-12{fill:#c6f;}</style></defs><g id="Lines"><g id="Thick_Lines" data-name="Thick Lines"><path class="cls-1" d="M247.93,183.3c-12.41-44.31-29.58-89.6-51.71-130-4.78,9.53-13.82,16-22.06,22.79-32.92,27-57,63.2-86.95,93.48a145.35,145.35,0,0,1-16.15,14.44C130.79,185.42,188.18,183.7,247.93,183.3Z"/><path class="cls-2" d="M240.42,16.87l-2,1.48"/><path class="cls-3" d="M236.89,19.47q-18.13,13.38-35.74,27.47"/><path class="cls-2" d="M200.42,47.53l-1.95,1.56c.11.24-1,.77-2.14,1.16"/><path class="cls-4" d="M194.42,50.71c-.15,0-.26,0-.28-.09-4.82-12.39-17-21-21.78-33.24"/><path class="cls-2" d="M172,16.46c-.28-.78-.53-1.58-.74-2.39"/><path class="cls-5" d="M252.63,189.44c4.5,4,9.82,6.9,14.43,10.75,1.38,1.15,2.69,2.38,4,3.61l10.48,9.83"/><path class="cls-5" d="M72.57,184.18A473.89,473.89,0,0,0,14.24,231.9"/></g></g><g id="diagramming"><g id="text"><text class="cls-6" transform="translate(315.14 188)">V<tspan class="cls-7" x="5.41" y="0">ertex</tspan></text><text class="cls-8" transform="matrix(0.4, 0.91, -0.91, 0.4, 231.07, 106.03)">[ j, k]</text><text class="cls-6" transform="translate(284.9 230.32)">V<tspan class="cls-7" x="5.41" y="0">ertex Index</tspan></text><text class="cls-8" transform="translate(120.86 120.76) rotate(-43.4)">[i, k]</text><text class="cls-9" transform="translate(206.33 63.28)">v</text><text class="cls-9" transform="translate(216.83 70.27) scale(0.58)">k</text><text class="cls-9" transform="translate(244.23 208.03)">v</text><text class="cls-9" transform="translate(254.73 215.02) scale(0.58)">j</text><text class="cls-8" transform="translate(157.89 198.86)">[i, j]</text><text class="cls-9" transform="translate(69.02 207.04)">v</text><text class="cls-9" transform="translate(79.52 214.03) scale(0.58)">i</text></g><g id="arrows"><path class="cls-10" d="M250.29,186.59H307.1"/><path class="cls-11" d="M310.12,186.59a15.25,15.25,0,0,0-4.28,2.38l.86-2.38-.86-2.38A14.77,14.77,0,0,0,310.12,186.59Z"/><path class="cls-10" d="M259.27,216.59c1.87,2.79,5.8,5.91,10.26,8.1a28.19,28.19,0,0,0,8.4,2.72"/><path class="cls-11" d="M280.93,227.24a15.38,15.38,0,0,0-4.18,2.54l.77-2.41-.95-2.34A15.18,15.18,0,0,0,280.93,227.24Z"/><path class="cls-10" d="M255.23,195.3a24.84,24.84,0,0,1,4.55-4.34,20.76,20.76,0,0,1,10.47-4.34c.47-.05.42,0,3.83,0s6.31,0,8.17,0"/></g></g><g id="circle"><circle class="cls-12" cx="195.63" cy="53.54" r="7.06"/><circle class="cls-12" cx="247.93" cy="184.58" r="7.06"/><circle class="cls-12" cx="73.29" cy="182.53" r="7.06"/></g></svg>