<svg xmlns="http://www.w3.org/2000/svg" viewBox="0 0 356 230.46"><defs><style>.cls-1{fill:#2c2c2c;}.cls-2{fill:#c6f;}</style></defs><title>Asset 7</title><g id="Layer_2" data-name="Layer 2"><g id="Layer_1-2" data-name="Layer 1"><path class="cls-1" d="M183.59,53.23c-2,1.92-4.05,3.7-6.08,5.54-1.1,1-2.2,2-3.29,3s-2,1.88-3,2.81c-2.2,2-4.45,4-6.68,6l-6.38,5.76c-2.13,1.92-4.18,3.93-6.24,5.92s-4.22,4-6.31,6-4,4-6,6c-1,1-2,2-3,2.92s-2,1.94-2.94,2.92c-4.1,4.15-8.22,8.28-12.2,12.55-1.86,2-3.74,4-5.59,6s-3.74,4.14-5.6,6.22c-2,2.28-4.08,4.54-6.1,6.83l-2.58,2.9c-1,1.19-2.13,2.36-3.21,3.53-1.81,2-3.65,3.9-5.45,5.86q-3.12,3.4-6.2,6.84l-5.41,6c-2,2.18-3.93,4.34-5.86,6.55-.85,1-1.73,1.95-2.57,2.95-1,1.21-2.05,2.43-3.07,3.65-.86,1.05-1.7,2.12-2.58,3.16s-1.94,2.33-2.86,3.54-1.84,2.63-2.69,4a2,2,0,0,0,.7,2.67,2,2,0,0,0,2.68-.7c.8-1.28,1.62-2.56,2.52-3.77.86-1.06,1.71-2.12,2.59-3.17s1.67-2.06,2.51-3.08c1-1.22,2-2.43,3-3.63.83-1,1.7-1.94,2.55-2.92,1.91-2.19,3.88-4.34,5.82-6.51l5.52-6.15q3.09-3.44,6.22-6.85c1.78-1.95,3.61-3.88,5.41-5.82q1.64-1.77,3.24-3.57l2.51-2.83c2-2.3,4.09-4.57,6.13-6.86,1.88-2.1,3.75-4.2,5.66-6.27s3.73-4,5.6-6c4-4.27,8.11-8.41,12.21-12.56,1.95-2,3.95-3.86,5.9-5.82s3.95-4,6-5.94l6.26-6c2.07-2,4.13-4,6.27-5.93l6.43-5.81c2.24-2,4.49-4,6.69-6.05.95-.87,1.87-1.78,2.81-2.65q1.66-1.55,3.34-3.06c2-1.83,4.08-3.6,6-5.5a2,2,0,0,0-2.77-2.77"/><path class="cls-1" d="M185.51,52.7a2,2,0,0,0-1.17.9,1.91,1.91,0,0,0-.2,1.51c.57,1.47,1.11,3,1.62,4.45s.89,2.83,1.3,4.25c.36,1.23.7,2.47,1.05,3.71.43,1.54.89,3.08,1.37,4.61.37,1.2.76,2.39,1.12,3.59L192,80.29c.77,2.59,1.53,5.18,2.39,7.73,1,2.83,1.9,5.66,2.87,8.48.24.7.53,1.39.79,2.09.19.51.38,1,.58,1.54.55,1.43,1.1,2.85,1.69,4.26l1.74,4.24c.56,1.35,1.08,2.72,1.61,4.09,1,2.47,1.89,4.94,2.8,7.43,2,5.53,4.1,11,6.14,16.56q1.52,4.14,3,8.29c.89,2.55,1.84,5.09,2.72,7.64.95,2.75,1.91,5.48,2.86,8.22s1.84,5.3,2.71,8c.65,2,1.26,4,1.93,6,.35,1.05.72,2.1,1.08,3.15.18.5.38,1,.58,1.51a12.64,12.64,0,0,0,.63,1.41l.43.54.14.12a2,2,0,0,0,.87.5,2.36,2.36,0,0,0,1.44,0,2,2,0,0,0,1.36-2.4,1.92,1.92,0,0,0-1.11-1.27c-1-2.51-1.81-5.09-2.63-7.65-.88-2.77-1.82-5.51-2.75-8.26-.87-2.57-1.79-5.14-2.68-7.71-1-2.77-1.93-5.55-2.92-8.31s-2-5.59-3-8.38-2-5.43-3-8.13c-.49-1.3-1-2.61-1.45-3.91s-.91-2.4-1.35-3.61c-1-2.7-2-5.4-3-8.08l-1.65-4.26c-.54-1.4-1.1-2.78-1.67-4.16-1-2.47-2-4.93-3-7.42-.52-1.4-1.06-2.79-1.54-4.2s-1-3-1.52-4.48c-.87-2.58-1.71-5.16-2.5-7.77S195,76.64,194.15,74c-.47-1.52-1-3-1.41-4.55-.38-1.23-.73-2.46-1.07-3.7-.53-1.88-1-3.76-1.63-5.62-.65-2-1.35-4-2.12-6-.07-.16-.14-.31-.2-.47a2,2,0,0,0-1.69-1,2.25,2.25,0,0,0-.52.07"/><path class="cls-1" d="M185.89,175c-3.68,0-7.37,0-11,.24s-7.6.46-11.41.65c-3.56.17-7.11.48-10.67.62l-5.66.26q-3,.12-6,.16c-1.81,0-3.62,0-5.43.08s-3.44.1-5.16.11c-3.72,0-7.43,0-11.15.05s-7.3.18-10.94.32-7.55.36-11.32.54c-3.59.17-7.19.32-10.79.47-1.82.07-3.64.11-5.46.18-1,0-1.93.06-2.89.13s-2,.15-3,.24c-2.7.23-5.4.5-8.09.76-1.41.14-2.81.3-4.21.48l-2.42.33c-.32,0-.62.11-.93.17l-.43.1a2,2,0,0,0,.46,3.86c.18,0,.36,0,.53-.06,1.17-.14,2.34-.17,3.5-.26a2.13,2.13,0,0,0,1.27-.47c2.84-.32,5.7-.57,8.55-.84,1.82-.17,3.63-.32,5.45-.45.83-.05,1.67-.07,2.51-.09s1.93,0,2.9-.08l5.86-.25,5.42-.22,5.68-.28c1.69-.08,3.39-.19,5.08-.26,1.91-.07,3.82-.13,5.73-.21s3.56-.16,5.34-.18c3.68,0,7.36,0,11,0q3,0,5.89-.1c1.79-.05,3.57-.08,5.36-.1s3.77,0,5.66-.1c1.73-.05,3.46-.16,5.19-.23l5.77-.27c1.92-.1,3.84-.25,5.76-.38,1.77-.11,3.55-.17,5.32-.27l5.08-.3c1-.06,2-.14,2.94-.18l3.1-.11c1.92-.08,3.85-.07,5.77-.09,1.76,0,3.51,0,5.26,0s3.59,0,5.38.11,3.79.22,5.69.27,3.66.15,5.5.22,3.45.16,5.18.22,3.74.09,5.61.11c2.11,0,4.23,0,6.34,0h3.07c1.09,0,2.18,0,3.26.1a1.94,1.94,0,0,0,1.39-.57,2,2,0,0,0,.57-1.39,2,2,0,0,0-.57-1.38,2.13,2.13,0,0,0-1.39-.58c-1.76-.15-3.54-.09-5.3-.09l-5.54,0c-1.73,0-3.47,0-5.2,0-1.89-.05-3.76-.14-5.64-.23s-3.59-.14-5.38-.22c-.93,0-1.85-.06-2.78-.09s-1.85-.08-2.77-.13c-1.79-.1-3.58-.2-5.37-.22h-5.44"/><path class="cls-1" d="M215.74,32.23c-1.09.8-2.23,1.54-3.36,2.29s-2.4,1.56-3.61,2.33c-2.35,1.51-4.68,3-7,4.57q-1.83,1.21-3.68,2.41c-.62.4-1.26.78-1.88,1.16s-1.18.75-1.77,1.13c-1.14.73-2.26,1.51-3.37,2.28q-1.94,1.34-3.79,2.77c-.47.37-.93.74-1.38,1.14a14.83,14.83,0,0,0-1.24,1.27,2,2,0,0,0-.58,1.39,2,2,0,0,0,.58,1.38,1.92,1.92,0,0,0,1.38.57,1.88,1.88,0,0,0,1.38-.57A14.94,14.94,0,0,1,188.72,55c.4-.35.8-.68,1.22-1,1.13-.83,2.27-1.66,3.43-2.46s2.14-1.48,3.24-2.18l1.81-1.15c.6-.37,1.21-.73,1.8-1.12,1.33-.87,2.66-1.73,4-2.61,2.36-1.54,4.71-3.08,7.08-4.6,1.21-.77,2.4-1.55,3.59-2.33.52-.34,1-.68,1.53-1l.84-.58.44-.32a4.68,4.68,0,0,0,1.42-1.31,2.3,2.3,0,0,0,.25-.66,2,2,0,0,0-1.37-2.4,1.68,1.68,0,0,0-.5-.07,2,2,0,0,0-1.74,1"/><path class="cls-1" d="M229,23c-1,.66-1.92,1.29-2.86,2s-1.82,1.3-2.71,2l-.4.3a2,2,0,0,0-.5.87,2,2,0,0,0,.2,1.51,1.93,1.93,0,0,0,1.16.89,1.9,1.9,0,0,0,1.51-.19c.9-.67,1.8-1.32,2.71-2S230,27,231,26.35a2.11,2.11,0,0,0,.9-1.17,2,2,0,0,0-1.37-2.41,1.9,1.9,0,0,0-.54-.07,1.69,1.69,0,0,0-1,.27"/><path class="cls-1" d="M239.38,15.45c-1.09.77-2.16,1.56-3.24,2.34l-.39.31a2,2,0,0,0,.86,3.27,1.94,1.94,0,0,0,1.51-.2c1.08-.78,2.15-1.57,3.23-2.34a2.06,2.06,0,0,0,.9-1.17,2,2,0,0,0-.19-1.51,2,2,0,0,0-1.17-.9,2.43,2.43,0,0,0-.55-.07,1.66,1.66,0,0,0-1,.27"/><path class="cls-1" d="M256.5,4.53c-.67.39-1.33.79-2,1.21s-1.38.91-2.07,1.38-1.48,1-2.19,1.59-1.28,1-1.91,1.57a1.91,1.91,0,0,0-.58,1.39,2,2,0,0,0,2,1.95,2.07,2.07,0,0,0,1.38-.57c.59-.49,1.18-1,1.78-1.46a61.38,61.38,0,0,1,5.6-3.68,2,2,0,0,0-1-3.65,1.9,1.9,0,0,0-1,.27"/><path class="cls-1" d="M263.48.07a1.92,1.92,0,0,0-.86.5l-.68.57a1.94,1.94,0,0,0-.57,1.39,2,2,0,0,0,.57,1.38,2,2,0,0,0,1.39.57,2,2,0,0,0,1.38-.57l.67-.57A1.85,1.85,0,0,0,266,2a2,2,0,0,0-2-2l-.52.07"/><path class="cls-1" d="M162,36.92a2.41,2.41,0,0,0-.55.92,2.07,2.07,0,0,0,.21,1.6,4.35,4.35,0,0,0,.81.9c.43.36.89.7,1.34,1,.68.52,1.38,1,2.08,1.51,1.26.89,2.52,1.79,3.75,2.73,2.09,1.78,4,3.76,6,5.61,1,.93,2.06,1.81,3.11,2.7.6.51,1.23,1,1.86,1.47s1.12.84,1.7,1.22c.39.25.76.53,1.16.77s1,.57,1.49.84a2,2,0,1,0,2-3.38c-.48-.25-1-.51-1.41-.79s-.78-.51-1.17-.77-.8-.53-1.19-.82l-.77-.58c-2.12-1.72-4.17-3.53-6.13-5.42-1-.95-1.94-1.92-3-2.82-.64-.57-1.31-1.1-2-1.63s-1.13-.83-1.69-1.24c-1.39-1-2.8-2-4.16-3l-.31-.26a2.21,2.21,0,0,0-.41-.6,2,2,0,0,0-1.38-.57,1.94,1.94,0,0,0-1.39.57"/><path class="cls-1" d="M153.2,27.11l-.47.2a2.17,2.17,0,0,0-.44.36,1.82,1.82,0,0,0-.47.83A1.92,1.92,0,0,0,152,30c.19.25.38.47.59.7s.57.66.89,1a30.12,30.12,0,0,0,2.75,2.17,1.86,1.86,0,0,0,1.51.2,2,2,0,0,0,1.17-.9,2,2,0,0,0,.2-1.51,2.14,2.14,0,0,0-.9-1.17l-.8-.58c-.42-.33-.83-.67-1.22-1a11.38,11.38,0,0,1-.82-.88,1.84,1.84,0,0,0-.67-.66,2,2,0,0,0-1-.27,2.32,2.32,0,0,0-.52.07"/><path class="cls-1" d="M142.46,18.82a2,2,0,0,0,0,2.76c.57.61,1.18,1.18,1.79,1.76s1.29,1.22,1.95,1.82a2,2,0,0,0,1.38.58A2,2,0,0,0,149,22.39c-.65-.59-1.3-1.19-1.93-1.8s-1.23-1.16-1.82-1.77a1.87,1.87,0,0,0-1.36-.57,2,2,0,0,0-1.4.57"/><path class="cls-1" d="M132.37,9.8a2,2,0,0,0-.58,1.39,2.05,2.05,0,0,0,.58,1.38,12,12,0,0,0,1.44,1.5,22.83,22.83,0,0,0,2,1.53,1.94,1.94,0,0,0,1.51.2,2,2,0,0,0,1.17-.9,2,2,0,0,0,.2-1.51,2.11,2.11,0,0,0-.9-1.17l-1-.74a15.32,15.32,0,0,1-1.64-1.68,1.92,1.92,0,0,0-1.38-.57,2,2,0,0,0-1.38.57"/><path class="cls-1" d="M227.17,178.09a2,2,0,0,0,0,2.77c1,1,2,2,3.05,2.93.57.51,1.13,1,1.69,1.53s1,.93,1.42,1.41q1.48,1.53,2.94,3.11c.92,1,1.87,1.93,2.8,2.91s1.85,2,2.72,3.09c.44.55.88,1.09,1.34,1.62s1,1.06,1.46,1.58c.92,1,1.92,1.84,2.93,2.71s2.09,1.78,3.14,2.67c.79.67,1.57,1.35,2.38,2l.39.3a1.94,1.94,0,0,0,1,.27,2,2,0,0,0,2-2,1.89,1.89,0,0,0-.58-1.38c-1-.84-2-1.72-3.06-2.58s-2.06-1.75-3.07-2.63a39.36,39.36,0,0,1-2.94-2.83c-.95-1-1.82-2.12-2.72-3.2-1.77-2.13-3.78-4.07-5.67-6.1-1-1-1.93-2-2.92-3s-2.06-1.92-3.1-2.88c-.81-.75-1.6-1.52-2.38-2.31a1.92,1.92,0,0,0-1.38-.56,1.94,1.94,0,0,0-1.39.56"/><path class="cls-1" d="M257.47,208.73a1.93,1.93,0,0,0-.9,1.16,1.85,1.85,0,0,0,.19,1.51c.55.72,1.09,1.45,1.66,2.15a5.86,5.86,0,0,0,1.77,1.59,2,2,0,0,0,2.68-.7,2,2,0,0,0-.71-2.68l-.2-.12a10.77,10.77,0,0,1-1-1.13l-.82-1.08-.3-.4a2,2,0,0,0-.87-.5,1.79,1.79,0,0,0-.51-.07,1.91,1.91,0,0,0-1,.27"/><path class="cls-1" d="M265,216.75a1.92,1.92,0,0,0-.57,1.38,2,2,0,0,0,.57,1.38c.26.29.52.57.79.84a7.83,7.83,0,0,0,1.3,1c.66.42,1.38.75,2,1.18a2,2,0,0,0,2.68-.7,1.94,1.94,0,0,0,.2-1.51,2.06,2.06,0,0,0-.9-1.17c-.75-.5-1.58-.87-2.33-1.37a13.73,13.73,0,0,1-1-1,1.79,1.79,0,0,0-1.35-.57,2,2,0,0,0-1.42.57"/><path class="cls-1" d="M274.16,223.58a2,2,0,0,0,0,2.77,22.26,22.26,0,0,0,2.1,2,16.88,16.88,0,0,0,2.76,1.82,2,2,0,0,0,1.51.2,1.93,1.93,0,0,0,1.17-.9,2,2,0,0,0-.7-2.68,14.29,14.29,0,0,1-2-1.24,24.2,24.2,0,0,1-2.06-2,1.9,1.9,0,0,0-1.37-.56,2,2,0,0,0-1.4.56"/><path class="cls-1" d="M59.54,180.87a1.29,1.29,0,0,0-.52.23l-.48.38-.24.22c-.14.13-.26.26-.38.39-1,.45-1.87.95-2.77,1.47-1.18.68-2.37,1.37-3.56,2S49,187,47.73,187.74s-2.37,1.45-3.54,2.21-2.56,1.7-3.83,2.56l-1.94,1.31-.93.61-.4.26a4.66,4.66,0,0,0-.76.56,2,2,0,0,0-.5,1.9,2,2,0,0,0,1.37,1.37,2,2,0,0,0,2-.57l1-.67c.56-.36,1.1-.75,1.66-1.13l3.46-2.32c1.17-.78,2.35-1.53,3.54-2.26s2.49-1.38,3.73-2.08,2.57-1.46,3.85-2.2c.64-.37,1.29-.74,1.94-1.09a1.8,1.8,0,0,0,1.53-.56l.31-.35a2.56,2.56,0,0,0,1.45-1.08,6.72,6.72,0,0,0,.28-.67,2.07,2.07,0,0,0-.17-1.75,2,2,0,0,0-.74-.75,2.27,2.27,0,0,0-1-.27,1.35,1.35,0,0,0-.53.1"/><path class="cls-1" d="M28.09,198.62a18.72,18.72,0,0,0-3.74,1.53,29.75,29.75,0,0,0-3,2l-.39.31a1.94,1.94,0,0,0-.51.86,2,2,0,0,0,1.37,2.41,1.9,1.9,0,0,0,1.51-.2c.67-.5,1.36-1,2.08-1.45a18.9,18.9,0,0,1,2-1.07c.58-.21,1.15-.41,1.73-.59a2,2,0,0,0,1.17-.9,2,2,0,0,0-1.69-3,1.88,1.88,0,0,0-.52.08"/><path class="cls-1" d="M14.52,204.8c-.92.5-1.85,1-2.8,1.42a12.66,12.66,0,0,0-1.46.64,2,2,0,1,0,2,3.38,8.16,8.16,0,0,1,.8-.36l-.3.13a37.43,37.43,0,0,0,3.77-1.83,2,2,0,0,0,.7-2.68,2,2,0,0,0-1.69-.95,2.08,2.08,0,0,0-1,.25"/><path class="cls-1" d="M1.89,211.94l-.45.09a2,2,0,0,0-1.37,2.41,2,2,0,0,0,.9,1.17,2.09,2.09,0,0,0,1.51.2l.45-.1a1.86,1.86,0,0,0,1.17-.9,1.95,1.95,0,0,0-.7-2.67,1.88,1.88,0,0,0-1-.26,2.64,2.64,0,0,0-.55.06"/><path class="cls-2" d="M61.83,175.9a5.38,5.38,0,0,0-1.21.46,4.9,4.9,0,0,0-1,.75,3.35,3.35,0,0,0-.62.81,2.33,2.33,0,0,0-1.2,1.09c-.14.33-.29.67-.43,1a10.84,10.84,0,0,0-.46,1.24,4.66,4.66,0,0,0,0,2.1,3.43,3.43,0,0,0,.31.88,2.3,2.3,0,0,0,.23.44,4.57,4.57,0,0,0,.62.76,7,7,0,0,0,.82.61,2.91,2.91,0,0,0,.66.33,3.42,3.42,0,0,0,1.18.86,3.69,3.69,0,0,0,1.08.35,4.52,4.52,0,0,0,1.68,0A7.81,7.81,0,0,0,65,187a4.66,4.66,0,0,0,2.3-2.34,12,12,0,0,0,.67-1.85,5.89,5.89,0,0,0-.08-3.25c-.12-.37-.28-.71-.42-1.06a4,4,0,0,0-.66-1,6.65,6.65,0,0,0-1.43-1.21,4.18,4.18,0,0,0-1-.46,5,5,0,0,0-1.22-.17h-.08a6.49,6.49,0,0,0-1.24.17"/><path class="cls-2" d="M184.78,49.63a3.77,3.77,0,0,0-1.36.78,4.72,4.72,0,0,0-.8.92,2.82,2.82,0,0,0-.21.31c-.17.13-.33.26-.48.4a7.27,7.27,0,0,0-.74.61,4.2,4.2,0,0,0-.94,1.27c-.14.28-.25.59-.36.88a4.64,4.64,0,0,0-.13.92,3.58,3.58,0,0,0,.5,1.88,1.85,1.85,0,0,0,.21.33,4.68,4.68,0,0,0,.8,1.22l.15.11a3,3,0,0,0,.74.53,3.76,3.76,0,0,0,1.5.4,4.06,4.06,0,0,0,1.62-.16,5.35,5.35,0,0,0,1.5-.73c.31-.21.6-.45.89-.68a6.43,6.43,0,0,0,1.57-2.45,4,4,0,0,0,.08-1.72,4.71,4.71,0,0,0,0-1.87,3.75,3.75,0,0,0-1.18-2.14,4.29,4.29,0,0,0-1.43-.83,2.71,2.71,0,0,0-.91-.15,3.15,3.15,0,0,0-1,.17"/><path class="cls-2" d="M226.29,171.86a3.94,3.94,0,0,0-1.77,1,4.21,4.21,0,0,0-.62.82,5,5,0,0,0-.33.6h0l-.07.07a5,5,0,0,0-.74,1,5.55,5.55,0,0,0-.46.91,6.66,6.66,0,0,0-.44,1.2c-.06.3-.1.6-.13.9a4.52,4.52,0,0,0,.06,1.09,4.7,4.7,0,0,0,1.41,2.5l.19.18c.07.15.14.3.22.45a7.82,7.82,0,0,0,.69.94,3.83,3.83,0,0,0,2,1.22,4.65,4.65,0,0,0,2.37-.08,7.18,7.18,0,0,0,1.16-.46,5.91,5.91,0,0,0,1.25-.86,3.71,3.71,0,0,0,.51-.54,6.71,6.71,0,0,0,.85-1.27,12.67,12.67,0,0,0,.55-1.32,5,5,0,0,0,.3-1.83,4.91,4.91,0,0,0-.32-1.52,5.78,5.78,0,0,0-.71-2,4.52,4.52,0,0,0-1.23-1.38l-.19-.23a4.85,4.85,0,0,0-.92-.82,3.63,3.63,0,0,0-1.59-.6,8.77,8.77,0,0,0-1-.11h0a5.05,5.05,0,0,0-1,.13"/><path class="cls-1" d="M51.28,159.17a1.43,1.43,0,0,0-.4,1,28.21,28.21,0,0,0,.26,4.77c.06.81.13,1.62.19,2.44a19.72,19.72,0,0,1,0,3.35.36.36,0,0,0,0,.1c-.16-.17-.3-.36-.45-.54-.63-.9-1.2-1.83-1.77-2.77-.28-.45-.55-.91-.81-1.36l-.42-.73a5.05,5.05,0,0,0-.74-1.1,1.36,1.36,0,0,0-1.33-.35,1.39,1.39,0,0,0-1,1,3.15,3.15,0,0,0,.06,1.33,5.76,5.76,0,0,0,.15.81c.15.61.34,1.22.54,1.82a1.39,1.39,0,0,0,1.68,1h0c.35.57.71,1.14,1.1,1.69A11,11,0,0,0,50,173.3a3.45,3.45,0,0,0,1.16.73,2.35,2.35,0,0,0,.79.1,2.09,2.09,0,0,0,.88-.26,2.39,2.39,0,0,0,.92-1.24,8.13,8.13,0,0,0,.38-1.76,15.41,15.41,0,0,0,0-3c-.11-1.44-.22-2.88-.36-4.31a18.19,18.19,0,0,1-.13-3.46,1.37,1.37,0,0,0-2.34-1M51,171.85l0,.05,0-.05"/><path class="cls-1" d="M58,169.11a1.36,1.36,0,0,0-.82.63,1.47,1.47,0,0,0-.14,1,8.77,8.77,0,0,0,.41,1.68,7.46,7.46,0,0,1,.26.8,3.43,3.43,0,0,1,.06.34,3.38,3.38,0,0,0,.28.81,1.35,1.35,0,0,0,.81.63,1.45,1.45,0,0,0,1.06-.14,1.4,1.4,0,0,0,.63-.82,1.37,1.37,0,0,0,0-.85c-.08-.26-.11-.52-.17-.79a5.78,5.78,0,0,0-.24-.7,9.88,9.88,0,0,1-.4-1.69,1.36,1.36,0,0,0-.63-.82,1.43,1.43,0,0,0-.7-.18,1.12,1.12,0,0,0-.36.05"/><path class="cls-1" d="M56,166.22a1.37,1.37,0,1,0,1.37-1.37A1.38,1.38,0,0,0,56,166.22"/><path class="cls-1" d="M242.42,164.85a8.28,8.28,0,0,0-.7,2.46c-.13.65-.22,1.31-.32,2s-.22,1.51-.32,2.27c-.06.37-.11.76-.16,1.14-.46-1.33-.84-2.68-1.27-4a1.37,1.37,0,1,0-2.64.72c.43,1.34.83,2.68,1.27,4a15.6,15.6,0,0,0,.79,2,4.76,4.76,0,0,0,.63.91l.15.16c.14.11.28.23.43.33a2.81,2.81,0,0,0,.62.26,1.69,1.69,0,0,0,1.62-.54,3.6,3.6,0,0,0,.72-1.45,15.31,15.31,0,0,0,.33-1.77l.15-1c.11-.76.21-1.52.32-2.27s.2-1.28.31-1.92a13.06,13.06,0,0,1,.43-1.85h0a1.36,1.36,0,0,0-1.17-2,1.35,1.35,0,0,0-1.19.67"/><path class="cls-1" d="M249.55,174.36a1.36,1.36,0,0,0-.82.63,1.42,1.42,0,0,0-.14,1c.25,1.28.54,2.54.82,3.8.08.37.16.74.23,1.11a16.85,16.85,0,0,0-2.32,3.23,15.4,15.4,0,0,0-1,2.17,7.36,7.36,0,0,0-.52,2.94,5.6,5.6,0,0,0,.75,2.66,3,3,0,0,0,1.06,1,4.87,4.87,0,0,0,.71.3,3,3,0,0,0,.88.19,2.09,2.09,0,0,0,.71-.06,4.78,4.78,0,0,0,.74-.3,4.07,4.07,0,0,0,1-.78,3.75,3.75,0,0,0,.74-1.13,6.71,6.71,0,0,0,.48-1.58,13.82,13.82,0,0,0,.16-3.15,34.87,34.87,0,0,0-.42-4.33c-.18-1.12-.37-2.23-.62-3.33s-.52-2.31-.75-3.47a1.38,1.38,0,0,0-1.32-1,1.49,1.49,0,0,0-.36.05m.64,10.37.06.87c0,.44,0,.87.05,1.31a13.08,13.08,0,0,1-.05,1.77,7.48,7.48,0,0,1-.32,1.3,3.47,3.47,0,0,1-.21.37,1.8,1.8,0,0,1-.2.19,2.26,2.26,0,0,1-.26.16l-.16,0-.22-.11a2.53,2.53,0,0,1-.13-.22,4.42,4.42,0,0,1-.22-.79,6.81,6.81,0,0,1,0-1A8.44,8.44,0,0,1,249,187a17.82,17.82,0,0,1,1.21-2.23m-.67,6h0"/><path class="cls-1" d="M248.29,172a1.37,1.37,0,1,0,1.37-1.37,1.38,1.38,0,0,0-1.37,1.37"/><path class="cls-1" d="M185.45,30.17a1.51,1.51,0,0,0-.4,1c-.06.61-.06,1.22-.08,1.84s0,1.08-.06,1.62l-.12,2c0,.52-.1,1-.16,1.53a11.67,11.67,0,0,1-.31,1.45,12,12,0,0,1-.65-1.41c-.15-.35-.29-.7-.44-1.06l-.14-.32a1.28,1.28,0,0,0-.49-.49,1.36,1.36,0,0,0-1.87.49,1.29,1.29,0,0,0-.14,1.05c.27.67.55,1.33.83,2a5.6,5.6,0,0,0,1.31,2.12,3.22,3.22,0,0,0,.62.42,2.82,2.82,0,0,0,1.24.32l.57-.09a1.68,1.68,0,0,0,.54-.26,3,3,0,0,0,.8-.86,3.18,3.18,0,0,0,.16-.32,7.6,7.6,0,0,0,.56-2c.09-.47.14-.94.19-1.41q.18-1.62.24-3.24l.06-1.56c0-.6,0-1.21.08-1.81a1.33,1.33,0,0,0-.4-1,1.38,1.38,0,0,0-1.94,0m-1.33,9.91h0"/><path class="cls-1" d="M189.34,29.49a6.65,6.65,0,0,0-.06,2.63l.15,1.37c.08.71.18,1.42.27,2.13,0,.27.08.55.11.83,0,.49-.08,1-.13,1.45a8,8,0,0,1-.41,1.6l-.21.54-.38.83a1.42,1.42,0,0,0-.14,1.05,1.37,1.37,0,0,0,1.68,1,1.48,1.48,0,0,0,.37-.16l0,.4c0,.17,0,.34,0,.51l0,.36a1.42,1.42,0,0,0,.2.72,1.37,1.37,0,0,0,1.54.63A1.46,1.46,0,0,0,193,45a1.44,1.44,0,0,0,.4-1c0-.13,0-.27,0-.41a11.85,11.85,0,0,1,.69-2.41c.11-.25.23-.49.34-.74a9.37,9.37,0,0,1,.92-1.51c.28-.34.56-.68.87-1l-.2.54a7.63,7.63,0,0,1-.48.84,4.17,4.17,0,0,1-.37.36l-.26.2a1.37,1.37,0,0,0-.4,1l0,.37a1.31,1.31,0,0,0,.35.6,1.44,1.44,0,0,0,1.17.42c.21,0,.42,0,.62,0,.49.05,1,.1,1.47.12A1.39,1.39,0,0,0,199.62,41a1.37,1.37,0,0,0-1.08-1.33c.11-.25.21-.51.31-.77s.18-.51.26-.77a6.11,6.11,0,0,0,.17-.83,3.7,3.7,0,0,0,.07-.57,2.28,2.28,0,0,0,0-.58,2.17,2.17,0,0,0-.27-.76,2.1,2.1,0,0,0-.85-.77,2.16,2.16,0,0,0-1.71-.11,4.91,4.91,0,0,0-1.33.77,7.4,7.4,0,0,0-1.27,1.23A13.06,13.06,0,0,0,192.76,38l-.21-1.56c0-.48,0-1,0-1.45,0-1-.12-1.94-.2-2.91,0-.36-.07-.72-.11-1.08l-.06-.49c0-.1,0-.21,0-.32a2.82,2.82,0,0,0-.09-.57,2.86,2.86,0,0,0-.22-.47,1.38,1.38,0,0,0-1.18-.68,1.4,1.4,0,0,0-1.33,1m7.24,7.11a.08.08,0,0,1,0,0l0,0m.89.52h0m-.17.05h0"/><path class="cls-1" d="M217.37,97.93a3.15,3.15,0,0,0-1.31.54,3.39,3.39,0,0,0-.94,1,4,4,0,0,0-.29.67,5.2,5.2,0,0,0-.21.55,8.65,8.65,0,0,0-.39,3c0,.78.09,1.57.14,2.36.09,1.38.15,2.77.18,4.15s.08,2.88,0,4.31l-.09,1.74a2.32,2.32,0,0,0,.25,1.21,1.88,1.88,0,0,0,1.22.83,9.53,9.53,0,0,0,1.51.14c.6,0,1.2,0,1.8,0a18.44,18.44,0,0,1,2,.07,1.31,1.31,0,0,0,1-.4,1.38,1.38,0,0,0,0-1.94l-.27-.21a1.34,1.34,0,0,0-.7-.19c-.74-.09-1.49-.06-2.23-.08-.58,0-1.17,0-1.75,0h0c0-.27,0-.54,0-.82,0-.53.05-1,.06-1.58,0-1.11,0-2.21-.05-3.31s-.06-2.06-.13-3.1c0-.54-.06-1.09-.1-1.64a18.75,18.75,0,0,1-.05-2.9,7.32,7.32,0,0,1,.39-1.31,3,3,0,0,1,.19-.36l0,0h0l.33-.09a5.47,5.47,0,0,1,1.07,0c.73.11,1.45.27,2.18.4a1.42,1.42,0,0,0,1.05-.14,1.33,1.33,0,0,0,.63-.82,1.36,1.36,0,0,0-.95-1.68c-.67-.12-1.34-.27-2-.38-.42-.07-.85-.13-1.27-.16h-.3a5.58,5.58,0,0,0-1,.1m.17,2.83-.1.07.1-.07"/><path class="cls-1" d="M228.34,108.23a1.33,1.33,0,0,0-.63.82l-.05.36a1.37,1.37,0,0,0,.18.69c.25.55.48,1.09.72,1.64.49,1.23,1,2.46,1.41,3.7a22.86,22.86,0,0,1,.82,3l-.2.18a16.44,16.44,0,0,0-2,2.09,12.92,12.92,0,0,0-.86,1.23,9.07,9.07,0,0,0-.64,1.38,6.33,6.33,0,0,0-.33,3.14,3.77,3.77,0,0,0,1.35,2.57,2.47,2.47,0,0,0,1.34.45,3,3,0,0,0,.73-.07,3.71,3.71,0,0,0,.89-.34,3.25,3.25,0,0,0,1.07-1.05,7.59,7.59,0,0,0,.62-1,6.51,6.51,0,0,0,.55-1.34,10.56,10.56,0,0,0,.38-1.57,15,15,0,0,0,.17-3q0-.73-.12-1.47l0-.19a21.07,21.07,0,0,0,1.89-1.89,1.48,1.48,0,0,0,.4-1,1.35,1.35,0,0,0-.4-1,1.37,1.37,0,0,0-1-.4,1.31,1.31,0,0,0-1,.4q-.27.33-.57.63c0-.06,0-.12,0-.18-.08-.28-.16-.55-.24-.84s-.21-.62-.32-.93c-.21-.61-.44-1.2-.67-1.8-.5-1.3-1-2.57-1.61-3.84a1.3,1.3,0,0,0-.82-.63,1.49,1.49,0,0,0-.36,0,1.31,1.31,0,0,0-.69.19m2.8,13.72c0,.47,0,1-.08,1.42a11.57,11.57,0,0,1-.54,2.08,8.39,8.39,0,0,1-.62,1,2.61,2.61,0,0,1-.23.24h0l-.06-.11a4.85,4.85,0,0,1-.16-.63,6.61,6.61,0,0,1,0-.89,7,7,0,0,1,.31-1.11,8.8,8.8,0,0,1,.89-1.48,6.68,6.68,0,0,1,.49-.57m-1.31,4.73h0m-.34,0,.08.06-.08-.06m.32.06-.09,0,.09,0m-.09.05.09,0-.09,0m0,0,.08,0Z"/><path class="cls-1" d="M227.4,104.31a1.37,1.37,0,1,0,1.37-1.37,1.39,1.39,0,0,0-1.37,1.37"/><path class="cls-1" d="M243.9,115a1.31,1.31,0,0,0-.63.81l-.36,2c-.07.34-.13.67-.21,1a8.92,8.92,0,0,1-.42,1.23l-.39.86a7.45,7.45,0,0,1-.6,1l-.09.11a1.41,1.41,0,0,0-.4,1,1.33,1.33,0,0,0,.4,1,1.36,1.36,0,0,0,1.94,0,7.86,7.86,0,0,0,1.09-1.59,14.31,14.31,0,0,0,.75-1.71,10.14,10.14,0,0,0,.44-1.42c.06-.25.1-.5.14-.74.13-.65.24-1.29.35-1.94a1.42,1.42,0,0,0-.13-1.05,1.36,1.36,0,0,0-.82-.63,1.12,1.12,0,0,0-.36,0,1.32,1.32,0,0,0-.7.19m-1.5,4.79,0,.09,0-.09"/><path class="cls-1" d="M252.23,98l-.33.14a3.26,3.26,0,0,0-.36.29l-.13.16a2.1,2.1,0,0,0-.32.46,7.52,7.52,0,0,0-.54,1.31,17.37,17.37,0,0,0-.62,3.1c-.21,1.64-.27,3.29-.34,4.94,0,.65,0,1.31,0,2s0,1.54.05,2.32.08,1.51.15,2.26a17.49,17.49,0,0,1,.12,1.91,1.64,1.64,0,0,0,0,.38,1.49,1.49,0,0,0,.19.69,1.36,1.36,0,0,0,.82.63,1.4,1.4,0,0,0,1.06-.13,1.15,1.15,0,0,0,.65-1,8,8,0,0,1,.29-.82,14.65,14.65,0,0,1,1.47-2.62,5.29,5.29,0,0,1,.52-.54,7.07,7.07,0,0,1,.84-.49,7.41,7.41,0,0,1,1.23-.32,5.33,5.33,0,0,1,.56,0l.06.06.14.24,0,.12a2.71,2.71,0,0,1,0,.4,6,6,0,0,1-.3,1.18,4.39,4.39,0,0,1-.27.47l0,0-.17,0a1.45,1.45,0,0,0-1.39.37,1.35,1.35,0,0,0-.4,1c0,.13,0,.27.05.4a1.4,1.4,0,0,0,.35.6,2,2,0,0,0,.39.33,2,2,0,0,0,.54.24,2.89,2.89,0,0,0,.65.08h.17l.61.22a7.38,7.38,0,0,1,1.07.58l.42.37a1.4,1.4,0,0,0,1,.4,1.37,1.37,0,0,0,1-2.34,11,11,0,0,0-1-.8,5,5,0,0,0-.63-.37l0-.06a7.29,7.29,0,0,0,.7-2.71,2.33,2.33,0,0,0,0-.53,4.66,4.66,0,0,0-.16-.76,3.28,3.28,0,0,0-1-1.52,2.9,2.9,0,0,0-.64-.41,2.24,2.24,0,0,0-.88-.22,5.48,5.48,0,0,0-1.34.07,7.37,7.37,0,0,0-2.72,1,5.14,5.14,0,0,0-1.31,1.15v0a18.65,18.65,0,0,0,1.37-2.62,15.21,15.21,0,0,0,.75-4.34,31.59,31.59,0,0,0,.1-4,11.2,11.2,0,0,0-.15-1.42,2.16,2.16,0,0,0-.16-.51,2.13,2.13,0,0,0-.46-.76,1.55,1.55,0,0,0-.39-.28,1.34,1.34,0,0,0-.7-.19h-.05a1,1,0,0,0-.41.09m5.06,14.45.11.09-.11-.09m-.1,0a.35.35,0,0,1,.14.06Z"/><path class="cls-1" d="M266.93,97.2a5.57,5.57,0,0,0-.68.37,16.36,16.36,0,0,0-1.45,1.19,1.37,1.37,0,0,0,1,2.34,1.42,1.42,0,0,0,1-.4l.28-.25v.14l0,1.06c0,.67-.07,1.35-.1,2-.07,1.37-.12,2.75-.14,4.13,0,2.76,0,5.53,0,8.3,0,.89,0,1.78-.06,2.66l-.06,1.27,0,.57h-.05l-.65.11a5.92,5.92,0,0,0-1.81.68,1.37,1.37,0,0,0,1.38,2.37,2,2,0,0,1,.25-.14,7.51,7.51,0,0,1,1.62-.39l.57-.1a1.78,1.78,0,0,0,.56-.26l.27-.21c.1-.12.19-.24.28-.37a1.44,1.44,0,0,0,.21-.59,3.91,3.91,0,0,0,.08-.61l0-.48c.07-1.36.14-2.72.14-4.09,0-2.77,0-5.55,0-8.32,0-2.13.12-4.25.23-6.37,0-.42,0-.84,0-1.26s0-.64,0-1a5.35,5.35,0,0,0-.12-1.13,2.41,2.41,0,0,0-.2-.53,1.61,1.61,0,0,0-.37-.56,1,1,0,0,0-.37-.26A1.33,1.33,0,0,0,268,97h-.14a2.39,2.39,0,0,0-.94.25m1.33,2.44h0M266.5,121.2a.14.14,0,0,1,0,.06l0-.06"/><path class="cls-1" d="M86.81,108.48a2.88,2.88,0,0,0-.37,1.25,6.58,6.58,0,0,0,.12,1.33,14.64,14.64,0,0,0,.37,1.59c.16.65.34,1.29.52,1.94.36,1.31.76,2.63,1.07,4,.17.71.33,1.43.47,2.14s.29,1.51.41,2.26c.18,1,.32,2,.48,3.07s.33,2.16.49,3.25c.07.54.15,1.07.27,1.61a5.69,5.69,0,0,0,.46,1.25q.15.23.33.45a3,3,0,0,0,.57.49,2.7,2.7,0,0,0,1.21.39,2.64,2.64,0,0,0,2.05-.88c.18-.19.34-.39.5-.59A14.66,14.66,0,0,1,97,130.7,1.37,1.37,0,0,0,95,128.76a11.58,11.58,0,0,0-1,1c-.22.26-.43.53-.66.78a10.79,10.79,0,0,1-.35-1.69c-.09-.67-.19-1.33-.29-2-.21-1.39-.43-2.77-.63-4.16s-.47-2.72-.77-4c-.17-.72-.34-1.43-.53-2.14s-.4-1.47-.61-2.2-.35-1.26-.52-1.89-.32-1.18-.44-1.77c.69.16,1.37.34,2,.53a1.37,1.37,0,0,0,.73-2.65q-.95-.26-1.89-.48l-.91-.21a5.91,5.91,0,0,0-.84-.15h-.18a1.63,1.63,0,0,0-1.41.79m6.41,22.18.06,0h0l-.06,0m0,.1-.17,0Zm-.09.05-.06,0,.06,0m.48.05.08,0-.08,0m0,0v0"/><path class="cls-1" d="M97.45,118.84a23.81,23.81,0,0,0,.43,4.53,1.37,1.37,0,1,0,2.64-.73c-.07-.31-.12-.61-.17-.92-.11-1-.12-1.92-.16-2.88a1.37,1.37,0,1,0-2.74,0"/><path class="cls-1" d="M96.41,115.07a1.37,1.37,0,1,0,1.37-1.37,1.38,1.38,0,0,0-1.37,1.37"/><path class="cls-1" d="M103.15,120.67c0,1.18-.06,2.35-.08,3.53,0,1,0,2-.14,2.94a1.47,1.47,0,0,0-.26.81,1.45,1.45,0,0,0,.41,1l0,.06a1.29,1.29,0,0,0,.61.35,1.26,1.26,0,0,0,.72,0l.38-.15a1.39,1.39,0,0,0,.54-.61,2.46,2.46,0,0,0,.21-.7c0-.18,0-.36.08-.55s.06-.55.08-.83c0-.57.05-1.14.06-1.72,0-1.36,0-2.72.09-4.09a1.37,1.37,0,1,0-2.74,0"/><path class="cls-1" d="M105.78,96a1.39,1.39,0,0,0-1,1.32c-.09,1.59,0,3.18,0,4.77,0,1.43.09,2.87.14,4.3s.13,2.64.19,4,.14,2.82.27,4.23c0,.19,0,.38.06.58a3.63,3.63,0,0,0,.39,1.55,1.35,1.35,0,0,0,.49.49,1.5,1.5,0,0,0,1.06.14c1-.16,1.13-1.22,1.35-2,.08-.3.15-.61.25-.91q.3-.92.63-1.83c.24-.57.48-1.14.76-1.69a15.34,15.34,0,0,1,1.13-1.92l0,0v0a14.1,14.1,0,0,1-.72,2.56c-.14.39-.29.78-.45,1.16a1.57,1.57,0,0,0-.13.42,1.3,1.3,0,0,0,0,.73c0,.13.1.26.16.39a1.49,1.49,0,0,0,.9.67,3.14,3.14,0,0,0,.7.07,7.3,7.3,0,0,1,.79.26,14.43,14.43,0,0,0,1.35.58,1.39,1.39,0,0,0,1.69-1,1.45,1.45,0,0,0-.14-1.06,1.41,1.41,0,0,0-.82-.62l-.19-.07c-.35-.15-.69-.32-1-.46l-.28-.11.18-.49c.21-.64.42-1.3.58-2a11.37,11.37,0,0,0,.17-1.17,4.59,4.59,0,0,0-.1-1.28,3.32,3.32,0,0,0-.23-.67,1.74,1.74,0,0,0-.36-.56,3.89,3.89,0,0,0-.5-.41l-.14-.09-.48-.2a2.27,2.27,0,0,0-1.24,0,3.16,3.16,0,0,0-1.16.76,7.42,7.42,0,0,0-1,1.19c-.17.24-.32.48-.47.73,0-.45,0-.91,0-1.36q-.06-1-.15-2c-.13-1.33-.28-2.65-.45-4-.07-.58-.13-1.17-.2-1.75,0-.29-.07-.58-.1-.87l-.06-.59c0-.21,0-.39-.07-.61l0-.22c0-.13-.11-.27-.17-.4a1.44,1.44,0,0,0-.49-.49,1.41,1.41,0,0,0-.7-.19,1.49,1.49,0,0,0-.36,0"/><path class="cls-1" d="M117.08,93.12a3.69,3.69,0,0,0-1.19.67,8.38,8.38,0,0,0-1.28,1.62c-.35.53-.66,1.09-1,1.63A1.37,1.37,0,0,0,116,98.43c.46-.75.9-1.51,1.4-2.23l.12-.13c0,.05,0,.1.07.16a19.55,19.55,0,0,1,.77,2.61c.18.7.34,1.4.47,2.1.27,1.38.49,2.77.68,4.17q.09.61.15,1.23a7.6,7.6,0,0,1,.09,1.35,8.9,8.9,0,0,1-.39,1.43,7.53,7.53,0,0,1-.41.73,7,7,0,0,1-.63.58q-.39.28-.81.54a1.37,1.37,0,0,0,1.39,2.37,12.34,12.34,0,0,0,1.87-1.43,4.61,4.61,0,0,0,.85-1.19,7.91,7.91,0,0,0,.5-1.21c.09-.28.15-.56.22-.83a4.69,4.69,0,0,0,.15-1.29c0-.64-.11-1.27-.19-1.9-.17-1.4-.35-2.81-.62-4.2s-.51-2.68-.88-4c-.09-.3-.17-.61-.26-.91a12.2,12.2,0,0,0-.68-1.77,5.48,5.48,0,0,0-.61-.9,2.15,2.15,0,0,0-.94-.56,1.14,1.14,0,0,0-.25-.06l-.37,0a5.6,5.6,0,0,0-.59.07"/><path class="cls-1" d="M122.64,185.6a2.41,2.41,0,0,0-.6.23,3.37,3.37,0,0,0-.38.28c-.11.14-.22.27-.32.42s0,.13-.08.2a1.83,1.83,0,0,0-.18.46,3.2,3.2,0,0,0-.11.69c0,.22,0,.44-.07.66,0,.39-.05.77-.07,1.16-.08,1.38-.07,2.78-.1,4.16s-.08,2.88-.18,4.31c-.06,1-.14,1.9-.19,2.86s-.07,2.05-.09,3.08a19.71,19.71,0,0,0,.12,3.26,3.42,3.42,0,0,0,.35,1l.32.43a5.89,5.89,0,0,0,.55.44,2,2,0,0,0,.79.32,4.67,4.67,0,0,0,.74.09,6.18,6.18,0,0,0,.86,0h.67a1.38,1.38,0,0,0,1.37-1.37,1.4,1.4,0,0,0-1.37-1.37c-.53,0-1,0-1.57,0h0c0-.07,0-.13,0-.2-.05-.63,0-1.27,0-1.9s0-1.33,0-2c0-1.42.12-2.83.23-4.23.21-2.85.2-5.69.28-8.54,0-.58.06-1.16.11-1.73a11.44,11.44,0,0,1,2,.56c.57.26,1.13.55,1.7.83a1.44,1.44,0,0,0,1.06.13,1.37,1.37,0,0,0,.32-2.5,17.29,17.29,0,0,0-4-1.6,11.55,11.55,0,0,0-1.2-.18h-.27a2.67,2.67,0,0,0-.64.07m.55,2.69-.09,0,.09,0m-.34,18.45.13.1-.13-.1m.17,0,0,.1a.3.3,0,0,1,0-.1m.13.25.06.09-.06-.09"/><path class="cls-1" d="M131.71,199.35c-.2.61-.39,1.2-.54,1.82a4.14,4.14,0,0,0,0,2.34,3.25,3.25,0,0,0,.75,1.12,3.31,3.31,0,0,0,.6.44,2,2,0,0,0,.67.22l.36.05a1.38,1.38,0,0,0,1.32-1,1.33,1.33,0,0,0-.14-1.05,1.27,1.27,0,0,0-.82-.63h-.1l-.07-.08h0v0a3.23,3.23,0,0,1,0-.44,17.56,17.56,0,0,1,.58-2,1.37,1.37,0,0,0-1-1.68,1.12,1.12,0,0,0-.36-.05,1.41,1.41,0,0,0-1.32,1m1.91,3.21.08,0-.08,0m.22.19v0"/><path class="cls-1" d="M132.75,193.73l-.77.49-.45.28a2.74,2.74,0,0,0-.72.72,1.69,1.69,0,0,0-.2.76,1.39,1.39,0,0,0,.22.74,1.38,1.38,0,0,0,1.87.49,1.49,1.49,0,0,0,.52-.54c.3-.2.61-.38.91-.57a1.47,1.47,0,0,0,.63-.82,1.4,1.4,0,0,0-.14-1.06,1.43,1.43,0,0,0-1.21-.68,1.21,1.21,0,0,0-.66.19"/><path class="cls-1" d="M141.87,203.31c-.21.76-.42,1.51-.6,2.27-.09.34-.17.68-.26,1s-.17.67-.28,1c0,.09-.11.18-.17.27a1.37,1.37,0,0,0,2.37,1.39,9.58,9.58,0,0,0,.95-2.82c.19-.8.41-1.59.63-2.39a1.39,1.39,0,0,0-1-1.68,1.06,1.06,0,0,0-.35-.05,1.38,1.38,0,0,0-1.33,1"/><path class="cls-1" d="M153.38,195.72a1.5,1.5,0,0,0-.61.35,1.62,1.62,0,0,0-.35.61,2.53,2.53,0,0,0,0,1.13c0,.31.07.62.11.93,0,.12,0,.24.05.36a1.29,1.29,0,0,0,.35.61,1.5,1.5,0,0,0,.36.26c.09.33.17.66.25,1,.17.74.31,1.48.43,2.22l-.15,0-.77.18a8.46,8.46,0,0,0-1.38.51c-.21.09-.41.2-.61.31a5.41,5.41,0,0,0-.61.46,2.74,2.74,0,0,0-.32.36c-.19.24-.38.48-.54.73A5.79,5.79,0,0,0,149,207a6.82,6.82,0,0,0-.27,1c-.12.54-.23,1.08-.31,1.62a10.49,10.49,0,0,0-.11,2.85,17.12,17.12,0,0,0,.68,3.16,3.74,3.74,0,0,0,1.62,2.22,1.78,1.78,0,0,0,1.51.1,3.63,3.63,0,0,0,.59-.3,4.6,4.6,0,0,0,.68-.56,6.54,6.54,0,0,0,.85-1,5.59,5.59,0,0,0,.52-.84,19.15,19.15,0,0,0,.94-2.13c.09-.28.19-.56.28-.83s.16-.56.24-.84a14,14,0,0,0,.3-1.43c.16-.93.31-1.85.39-2.79a13.62,13.62,0,0,0,0-2l.81-.29c.37-.14.73-.29,1.09-.45a12.19,12.19,0,0,0,1.76-1l1.93-1.25a1.37,1.37,0,0,0-1.38-2.36l-1.5,1-.74.49a10.25,10.25,0,0,1-1.34.73l-1,.38c-.06-.31-.11-.62-.17-.93-.12-.59-.25-1.16-.38-1.74s-.28-1.08-.43-1.61c-.07-.25-.15-.5-.23-.75a5.74,5.74,0,0,0-.26-.69,1.5,1.5,0,0,0-.16-.34,1.65,1.65,0,0,0-.53-.52,1.17,1.17,0,0,0-.67-.19,1.6,1.6,0,0,0-.39.05M154.2,206v.12a18,18,0,0,1-.14,2.07c-.08.44-.15.87-.23,1.3,0,.18-.07.36-.1.54s-.08.41-.14.61c-.11.41-.21.82-.35,1.22l-.42,1.14c-.15.33-.3.67-.48,1s-.38.63-.59.93l-.12.13a14.34,14.34,0,0,1-.61-2.59,9.55,9.55,0,0,1,0-2c.07-.45.16-.89.25-1.34a9.59,9.59,0,0,1,.4-1.46,6,6,0,0,1,.38-.64,3,3,0,0,1,.3-.32,4.68,4.68,0,0,1,.54-.3,11.29,11.29,0,0,1,1.29-.39"/><path class="cls-1" d="M152.41,194a1.37,1.37,0,1,0,1.37-1.37,1.39,1.39,0,0,0-1.37,1.37"/><path class="cls-1" d="M166.34,187.84a7.75,7.75,0,0,0-1.54.92,1.47,1.47,0,0,0-.63.82,1.36,1.36,0,0,0,.14,1.06,1.44,1.44,0,0,0,.82.63,1.29,1.29,0,0,0,1.05-.14,9.52,9.52,0,0,1,.87-.59,6.36,6.36,0,0,1,.58-.3,4.74,4.74,0,0,1,.5-.15h.3l.28.07.24.14c.06.06.12.11.18.18s.12.2.17.3a10.12,10.12,0,0,1,.46,1.88,13.37,13.37,0,0,1,.11,1.9c0,.35,0,.69-.06,1s-.09.94-.15,1.41c-.14.87-.3,1.73-.45,2.6-.08.44-.17.88-.24,1.33s-.14.93-.2,1.4-.11.74-.17,1.12c0,.21-.06.43-.1.65a4.09,4.09,0,0,1-.09.58,4.67,4.67,0,0,1-.49.27,8.27,8.27,0,0,1-1.47.35l-.18,0-.37,0a1.31,1.31,0,0,0-.6.35,1.35,1.35,0,0,0-.4,1,1.37,1.37,0,0,0,.4,1,1.31,1.31,0,0,0,1,.4,10.16,10.16,0,0,0,2.11-.38,8.11,8.11,0,0,0,1.06-.43,5.3,5.3,0,0,0,.93-.64,2.45,2.45,0,0,0,.62-1,3.15,3.15,0,0,0,.13-.61l.12-.87c.1-.63.19-1.26.28-1.89.32-2.27.89-4.49,1-6.78,0-.38.05-.77.05-1.16a14.88,14.88,0,0,0-.23-2.57,9,9,0,0,0-.72-2.38,3.64,3.64,0,0,0-1.46-1.55,3.92,3.92,0,0,0-2-.51h0a4.58,4.58,0,0,0-1.81.5m2,16.91-.07.05.07-.05m0,0a.35.35,0,0,1,0,.08l0-.08"/><path class="cls-1" d="M193.32,55.74H193a1.37,1.37,0,0,0,0,2.74c1.44-.05,2.88-.07,4.32-.07.63,0,1.25,0,1.88.06s1.51.05,2.27.06c1.39,0,2.78.07,4.18.07l2.26,0a22.44,22.44,0,0,1,2.32,0l.2,0a1.45,1.45,0,0,0,1.06-.14,1.36,1.36,0,0,0,.49-1.87,1.33,1.33,0,0,0-.82-.63,9.69,9.69,0,0,0-2-.17l-1.15,0-2.14,0c-1.34,0-2.68,0-4-.06s-3-.08-4.44-.13h-1c-1,0-2,0-3.06.07"/><path class="cls-1" d="M222.24,48.65a1.37,1.37,0,0,0-.82.63c-.44,1-.76,2.07-1.13,3.11s-.72,1.91-1.11,2.86c-.17.4-.35.8-.56,1.19-.05-.24-.09-.49-.12-.74-.1-.92-.18-1.83-.26-2.75a1.44,1.44,0,0,0-.4-1,1.36,1.36,0,0,0-1.93,0,1.36,1.36,0,0,0-.41,1c.11,1.31.21,2.62.42,3.92a6.47,6.47,0,0,0,.6,1.9,2,2,0,0,0,.26.39,2.37,2.37,0,0,0,.57.57,2,2,0,0,0,1.06.29,2.2,2.2,0,0,0,1.37-.6,4.9,4.9,0,0,0,.88-1,9.58,9.58,0,0,0,.55-1c.16-.33.3-.67.44-1s.29-.7.43-1c.21-.52.42-1,.61-1.56.37-1,.71-2.07,1.09-3.09v0l.14-.33a1.5,1.5,0,0,0,0-.73,1.44,1.44,0,0,0-.63-.82,1.4,1.4,0,0,0-.69-.19,1.5,1.5,0,0,0-.37,0"/><path class="cls-1" d="M226.92,53.6a1.28,1.28,0,0,0-.63.81c-.15.78-.32,1.54-.48,2.31a8.14,8.14,0,0,0-.21,1.55,2.34,2.34,0,0,0,.31,1.18,1.81,1.81,0,0,0,.42.5,3,3,0,0,0,1,.55,4.3,4.3,0,0,0,1.33.26,3.08,3.08,0,0,0,.75-.07c.16,0,.32,0,.47-.09q.54-.12,1-.27a13.14,13.14,0,0,0,2.26-.94,1.38,1.38,0,0,0,.49-1.87,1.36,1.36,0,0,0-.82-.63,1.42,1.42,0,0,0-1,.14l-.69.33a11.71,11.71,0,0,1-2.24.65h-.27l-.22-.05c.07-.38.16-.75.24-1.13.12-.56.23-1.13.34-1.7a1.42,1.42,0,0,0-.14-1,1.36,1.36,0,0,0-.82-.63,1.49,1.49,0,0,0-.36-.05,1.31,1.31,0,0,0-.69.19m1.14,4.19.08.1a.39.39,0,0,1-.08-.1"/><path class="cls-1" d="M230.34,51.73a14,14,0,0,0-2.15,1,20.61,20.61,0,0,0-1.75,1.18l-.28.22a1.31,1.31,0,0,0-.35.6,1.36,1.36,0,0,0,.14,1.06,1.41,1.41,0,0,0,.82.63,1.33,1.33,0,0,0,1-.14,15.07,15.07,0,0,1,2.84-1.75l.4-.16a1.44,1.44,0,0,0,.82-.63,1.36,1.36,0,0,0-.49-1.87,1.43,1.43,0,0,0-.71-.2.93.93,0,0,0-.34.06"/><path class="cls-1" d="M232.89,48.33c-1,.09-2,.2-2.93.38a5.73,5.73,0,0,0-1.07.32c-.26.1-.52.22-.77.34a5.51,5.51,0,0,0-.84.59c-.39.3-.75.64-1.12,1a1.37,1.37,0,0,0,1,2.34,1.41,1.41,0,0,0,1-.4c.31-.28.62-.57.94-.84a6.58,6.58,0,0,1,.73-.42,9.09,9.09,0,0,1,1.79-.4l1.33-.14a1.43,1.43,0,0,0,1-.4,1.38,1.38,0,0,0,.4-1,1.41,1.41,0,0,0-.4-1,1.36,1.36,0,0,0-.9-.4h-.07"/><path class="cls-1" d="M239.29,48.66a1.36,1.36,0,0,0-.63.82c-.22,1.29-.46,2.58-.68,3.86s-.42,2.71-.55,4.08a1.29,1.29,0,0,0,.4,1,1.38,1.38,0,0,0,1,.4,1.41,1.41,0,0,0,1-.4,1.53,1.53,0,0,0,.4-1c.05-.52.1-1,.17-1.56.27-1.89.64-3.77,1-5.65a1.47,1.47,0,0,0-.14-1.05,1.33,1.33,0,0,0-.82-.63,1.08,1.08,0,0,0-.36-.05,1.39,1.39,0,0,0-.69.18"/><path class="cls-1" d="M242.69,47.25a2.84,2.84,0,0,0-.42.09l-.36.11-.63.22a12.28,12.28,0,0,0-2.69,1.38c-.44.28-.87.58-1.3.88a1.44,1.44,0,0,0-.63.82,1.42,1.42,0,0,0,.14,1,1.36,1.36,0,0,0,.82.63,1.32,1.32,0,0,0,1.06-.14c.53-.36,1.06-.72,1.61-1.07a14.45,14.45,0,0,1,1.39-.77,10.94,10.94,0,0,1,1.25-.45,2,2,0,0,1,0,.25,5,5,0,0,1-.27.93c-.31.68-.66,1.35-1,2-.18.38-.36.76-.51,1.15a3.75,3.75,0,0,0-.23.81l0,.36a3.83,3.83,0,0,0,.1.59,2.1,2.1,0,0,0,.49.81,5.56,5.56,0,0,0,2.84,1.34,23.22,23.22,0,0,0,2.36.39l.36.05a1.37,1.37,0,0,0,1.18-2.06,1.33,1.33,0,0,0-.82-.63,17.16,17.16,0,0,1-3.62-.77h0l0-.08c.32-.72.69-1.43,1-2.14a13.14,13.14,0,0,0,.57-1.34,6.27,6.27,0,0,0,.31-1.77,4,4,0,0,0-.11-1,4.71,4.71,0,0,0-.21-.52,2,2,0,0,0-.29-.42,2.69,2.69,0,0,0-.63-.53,2.44,2.44,0,0,0-1.18-.28,5.54,5.54,0,0,0-.57.07m.17,2.22,0,.05Zm.27.46Zm.17,0,.08,0-.08,0m.09,5,0,0,0,0"/><path class="cls-1" d="M251.54,49.1a1.4,1.4,0,0,0-.4,1c0,.83-.11,1.66-.2,2.48-.24,1.67-.5,3.33-.63,5a1.33,1.33,0,0,0,.4,1,1.38,1.38,0,0,0,1.94,0,1.48,1.48,0,0,0,.4-1c.06-.76.14-1.51.24-2.27l.33-2.3c.14-1,.2-2,.26-2.92a1.38,1.38,0,0,0-1.37-1.37,1.35,1.35,0,0,0-1,.4"/><path class="cls-1" d="M256.26,48.18a21.65,21.65,0,0,0-2.52.4c-.69.14-1.39.31-2.07.5s-1.38.36-2.06.57a24.75,24.75,0,0,0-2.48.94,1.31,1.31,0,0,0-.63.82,1.41,1.41,0,0,0,.14,1.06,1.44,1.44,0,0,0,.82.63l.36,0a1.49,1.49,0,0,0,.69-.19l.09,0c.6-.24,1.21-.47,1.83-.66s1.31-.36,2-.54a33.75,33.75,0,0,1,3.59-.78l.27,0a1.44,1.44,0,0,0,1-.4,1.37,1.37,0,0,0-.9-2.34h-.07"/><path class="cls-1" d="M257.64,52.49l-.28.21a1.34,1.34,0,0,0-.35.61,11.53,11.53,0,0,0-.62,1.7,8.41,8.41,0,0,0-.19.87,5.15,5.15,0,0,0-.09.88,3.92,3.92,0,0,0,.23,1.17,3.65,3.65,0,0,0,1.34,1.76,5.51,5.51,0,0,0,2.25.89,8.65,8.65,0,0,0,2.87-.06,1.33,1.33,0,0,0,.82-.63,1.37,1.37,0,0,0-.49-1.88l-.33-.13a1.29,1.29,0,0,0-.73,0H262a7.91,7.91,0,0,1-1.46,0,5.84,5.84,0,0,1-.82-.22q-.24-.12-.48-.27l-.15-.15a2,2,0,0,1-.11-.2c0-.1-.06-.2-.08-.3a2.81,2.81,0,0,1,0-.29,10.2,10.2,0,0,1,.27-1.09,13,13,0,0,1,.52-1.35,1.28,1.28,0,0,0-.14-1.06,1.38,1.38,0,0,0-.81-.63,1.57,1.57,0,0,0-.37-.05,1.4,1.4,0,0,0-.69.19"/><path class="cls-1" d="M260.5,53.09a20.86,20.86,0,0,0-2.39,1,1.37,1.37,0,0,0,.33,2.5,1.42,1.42,0,0,0,1.05-.13l.95-.45.79-.29a1.47,1.47,0,0,0,.82-.63A1.39,1.39,0,0,0,260.87,53a.94.94,0,0,0-.37.07"/><path class="cls-1" d="M268.12,48.65l-2.61.31c-.81.09-1.64.2-2.44.37s-1.7.37-2.54.63-1.74.64-2.6,1a1.51,1.51,0,0,0-.82.63,1.37,1.37,0,0,0-.13,1,1.36,1.36,0,0,0,1.68,1,33.72,33.72,0,0,1,3.62-1.26,30.09,30.09,0,0,1,3.23-.61l2.61-.31.36,0a1.31,1.31,0,0,0,.6-.35,1.35,1.35,0,0,0,0-1.94,1.36,1.36,0,0,0-.88-.4h-.08"/><path class="cls-1" d="M275.17,46.91a48,48,0,0,0-4.43,5.33l-.29-.23a6.12,6.12,0,0,0-1.25-.88,1.37,1.37,0,0,0-.69-.18,2.72,2.72,0,0,0-.49,0,1.62,1.62,0,0,0-1,1,4.9,4.9,0,0,0-.13,1.38,21,21,0,0,1-.22,2.63c-.06.43-.14.86-.2,1.29a10.49,10.49,0,0,0-.13,1.11,3.08,3.08,0,0,0,.08.53,1.7,1.7,0,0,0,.42.71,1.56,1.56,0,0,0,1.46.37,2.59,2.59,0,0,0,1.28-1.1c.14-.18.27-.35.4-.54.29-.41.57-.82.84-1.24l.61-.95c.29.25.58.51.86.78l1.53,1.44a1.37,1.37,0,1,0,1.94-1.94c-.77-.73-1.55-1.46-2.33-2.17-.16-.14-.32-.28-.49-.41.36-.52.73-1,1.12-1.55q1.47-1.83,3.1-3.54a1.36,1.36,0,0,0-1-2.33,1.35,1.35,0,0,0-1,.39"/><path class="cls-1" d="M216,80.15a5.36,5.36,0,0,0-.7.06l-1.49.18c-1,.14-2,.22-3.08.29s-2.07.07-3.1.08l-3.4,0a1.4,1.4,0,0,0-1.37,1.37,1.38,1.38,0,0,0,1.37,1.37c2.12,0,4.25,0,6.36-.11,1-.05,1.92-.13,2.87-.25l1.42-.18c.31,0,.63-.08.95-.1a1.32,1.32,0,0,0,.53.1l.36,0a1.4,1.4,0,0,0,.61-.36,1.13,1.13,0,0,0,.27-.34,1.28,1.28,0,0,0,.19-.69l-.05-.36a1.29,1.29,0,0,0-.35-.61,1.6,1.6,0,0,0-1.31-.45H216"/><path class="cls-1" d="M222.43,76.52a1.47,1.47,0,0,0-.41,1c-.1,1.66-.25,3.31-.43,5,0,.36-.07.71-.1,1.07a5,5,0,0,0,0,1,3.32,3.32,0,0,0,.43,1.4,2.33,2.33,0,0,0,1.52,1,3.66,3.66,0,0,0,1.4,0l.94-.13h.06l.37,0a1.31,1.31,0,0,0,.6-.35,1.38,1.38,0,0,0,0-1.94,1.31,1.31,0,0,0-1-.4l-1.4.2h-.23a10.94,10.94,0,0,1,.12-1.62c.05-.52.11-1,.16-1.57.1-1.17.21-2.34.28-3.52a1.36,1.36,0,0,0-2.33-1m1.34,7.6.16.07-.16-.07"/><path class="cls-1" d="M225.46,79.94a6.83,6.83,0,0,0-1.39.59l-.92.56a1.37,1.37,0,0,0,1.38,2.36c.42-.26.84-.53,1.29-.75l.37-.12a1.37,1.37,0,0,0-.37-2.69,1.12,1.12,0,0,0-.36,0"/><path class="cls-1" d="M227.24,75.64a16.07,16.07,0,0,0-2.76.3,7.71,7.71,0,0,0-1,.27l-1.33.43a1.4,1.4,0,0,0-1,1.69,1.39,1.39,0,0,0,1.69,1l1.76-.57a7.47,7.47,0,0,1,1.33-.27c.41,0,.82-.07,1.24-.07a1.37,1.37,0,0,0,0-2.74h0"/><path class="cls-1" d="M233.22,76.28a20.08,20.08,0,0,0-2,.55,1.4,1.4,0,0,0-1,1.69,1.37,1.37,0,0,0,1.69,1,20.15,20.15,0,0,1,2.46-.63c.21,0,.43,0,.65,0l.48.13.11.06a1.77,1.77,0,0,1,0,.23,7.76,7.76,0,0,1-.38,1.27,13.33,13.33,0,0,1-.72,1.41,15.66,15.66,0,0,1-.9,1.34,10.37,10.37,0,0,1-1.14,1.25,12.64,12.64,0,0,1-.44-1.84,1.28,1.28,0,0,0-.63-.81,1.33,1.33,0,0,0-1-.14,1.36,1.36,0,0,0-.82.63,1.47,1.47,0,0,0-.14,1,9.46,9.46,0,0,0,.68,2.46,3.32,3.32,0,0,0,.59.85l.16.12a1.43,1.43,0,0,0,.44.3,2.28,2.28,0,0,0,.87.25,2.88,2.88,0,0,0,2.25-.92,15.21,15.21,0,0,0,2.5-3.15A16.48,16.48,0,0,0,238,81a6.75,6.75,0,0,0,.32-1.17,3.89,3.89,0,0,0,0-1.52,2.64,2.64,0,0,0-1.45-1.77,4.9,4.9,0,0,0-2.13-.5h-.07a7.8,7.8,0,0,0-1.44.2m2.35,2.48a.36.36,0,0,1,0,.09l0-.09m-3.43,5.9h0m.51.17.12.08-.12-.08"/><path class="cls-1" d="M243.24,75.43c-.36.2-.7.42-1.05.64a4.71,4.71,0,0,0-.45.33c-.27.19-.52.39-.78.6a8.2,8.2,0,0,0-1.57,1.9,7,7,0,0,0-.76,2,8.13,8.13,0,0,0-.28,2,7.15,7.15,0,0,0,.21,1.45,3.24,3.24,0,0,0,.28.73,2.79,2.79,0,0,0,.4.63,4.06,4.06,0,0,0,1,.84,5.74,5.74,0,0,0,1.35.69,4.49,4.49,0,0,0,2.69.1,3.45,3.45,0,0,0,2.28-3.91,10.33,10.33,0,0,0,1.6-.61,1.31,1.31,0,0,0,.63-.82,1.37,1.37,0,0,0-1-1.68,1.43,1.43,0,0,0-1,.14l-.11,0-.74.26a5,5,0,0,1-.67.15l-.36,0a1.52,1.52,0,0,0-1.23-.2,1.4,1.4,0,0,0-1,1.34,1.48,1.48,0,0,0,.75,1.27l.18.09.06.07a2.5,2.5,0,0,1,.21.35s0,.1,0,.14v.12a2,2,0,0,1-.07.23l-.12.21-.12.12,0,0-.22.05h-.46a3.45,3.45,0,0,1-.46-.12,6.77,6.77,0,0,1-.87-.5l-.17-.17,0-.08a5.68,5.68,0,0,1-.18-.71,5.61,5.61,0,0,1,0-.82,8.46,8.46,0,0,1,.45-1.73,6.41,6.41,0,0,1,.54-.91,8,8,0,0,1,1-1c.16-.12.31-.24.47-.34l1-.63a1.37,1.37,0,0,0-.7-2.55,1.3,1.3,0,0,0-.68.19m-2,8.31,0,0,0,0m2.63.08a.17.17,0,0,0,0,.07v-.07"/><path class="cls-1" d="M251.25,78.38a1.39,1.39,0,0,0-.81.63,1.45,1.45,0,0,0-.14,1.06c.07.41.15.82.22,1.23a16.26,16.26,0,0,1,.07,1.85l0,1a3.56,3.56,0,0,0,.33,1.88,4,4,0,0,0,3.79,1.84,8.52,8.52,0,0,0,2.23-.52,1.37,1.37,0,0,0,.33-2.51,1.32,1.32,0,0,0-1.06-.13,8.77,8.77,0,0,1-1.5.41,4.16,4.16,0,0,1-.61,0l-.37-.1-.25-.15-.13-.13v0c-.05-.8.05-1.61,0-2.42a21,21,0,0,0-.39-3,1.33,1.33,0,0,0-.63-.82,1.39,1.39,0,0,0-.69-.18,1.5,1.5,0,0,0-.37,0m2.13,6.48.05.07-.05-.07"/><path class="cls-1" d="M255.18,79.39c-.62.23-1.24.45-1.86.7s-1.53.66-2.3,1a1.37,1.37,0,0,0-.63.82,1.42,1.42,0,0,0,.14,1,1.36,1.36,0,0,0,.82.63l.36,0a1.34,1.34,0,0,0,.7-.19l1.38-.61c.7-.29,1.42-.54,2.12-.81a1.44,1.44,0,0,0,.82-.63,1.36,1.36,0,0,0-.49-1.87,1.44,1.44,0,0,0-.72-.2,1,1,0,0,0-.34.06"/><path class="cls-1" d="M261.19,73c-.84.18-1.67.38-2.5.6-.43.1-.84.21-1.26.34-.2.06-.41.11-.61.18l-.73.28c-.43.17-.85.36-1.26.56s-.78.37-1.16.57c-.93.47-1.85,1-2.77,1.44a1.37,1.37,0,0,0,1.38,2.37c1.55-.82,3.09-1.62,4.68-2.35.31-.12.63-.24,1-.34s.92-.26,1.38-.38c.87-.22,1.74-.44,2.62-.63a1.37,1.37,0,0,0,1-1.68,1.4,1.4,0,0,0-.63-.82,1.29,1.29,0,0,0-.68-.18,2.58,2.58,0,0,0-.38,0"/><path class="cls-1" d="M235,130.58a1,1,0,0,0-.69,1.2c.34,1.12.65,2.24.9,3.39.1.45.17.92.25,1.38s.17,1,.26,1.58c.16,1,.32,2,.5,3,0,.2.08.41.13.61s.11.37.18.56a2.17,2.17,0,0,0,.33.57,2.68,2.68,0,0,0,.54.47,2.44,2.44,0,0,0,.44.19l.3.1.37.1.86.19c.42.1.85.18,1.28.27a10,10,0,0,1,1.63.43.9.9,0,0,0,.75-.1.94.94,0,0,0,.45-.58,1,1,0,0,0-.09-.75l-.16-.2a.89.89,0,0,0-.43-.25,8.07,8.07,0,0,0-1.25-.36l-1-.21-1-.22a8.34,8.34,0,0,1-1.09-.29h0l0,0,0,0a9.94,9.94,0,0,1-.28-1.2c-.08-.42-.15-.83-.22-1.24l-.42-2.63c-.14-.81-.28-1.62-.45-2.42-.1-.46-.23-.91-.35-1.36s-.28-1-.43-1.49a1,1,0,0,0-.95-.72.73.73,0,0,0-.25,0m3.25,10.91,0,0,0,0m0,.06.08.07-.08-.07"/><path class="cls-1" d="M250.6,137.21c-.27,1.15-.53,2.31-.85,3.45-.15.53-.32,1.05-.49,1.57s-.29.91-.46,1.35l0-.16c-.09-.85-.1-1.71-.13-2.57a1,1,0,0,0-1.95,0c0,.55,0,1.1.05,1.65a11.58,11.58,0,0,0,.21,1.76,4.21,4.21,0,0,0,.19.67c.08.2.16.4.26.6a1.6,1.6,0,0,0,.21.32,1.44,1.44,0,0,0,.46.46,1.37,1.37,0,0,0,.47.19l.26,0a1,1,0,0,0,.38-.07,1.74,1.74,0,0,0,.87-.84,8.77,8.77,0,0,0,.44-1c.09-.22.18-.46.26-.69.34-1,.69-2,1-3.08s.51-2.09.75-3.13a1,1,0,0,0-.68-1.2.69.69,0,0,0-.25,0,1,1,0,0,0-1,.72"/><path class="cls-1" d="M254.12,141l-.15.2a1,1,0,0,0-.13.5,6.39,6.39,0,0,0,.14,3.55,2.62,2.62,0,0,0,.33.53,2.09,2.09,0,0,0,.61.5,3.79,3.79,0,0,0,.86.35,2,2,0,0,0,.35.06,4.72,4.72,0,0,0,.64.05,6.37,6.37,0,0,0,1.57-.19,1,1,0,0,0,.69-1.2,1,1,0,0,0-1.21-.68l-.45.08a5.27,5.27,0,0,1-.89,0,4.27,4.27,0,0,1-.48-.13l-.19-.11-.09-.15a3,3,0,0,1-.08-.32,11.7,11.7,0,0,1,.15-2.36,1,1,0,0,0-.28-.7,1,1,0,0,0-.7-.28,1,1,0,0,0-.69.28m1.58,3.4.05.07h0l-.05-.07m.06.07h0"/><path class="cls-1" d="M257,141.2a13.82,13.82,0,0,0-2.16,1.81,1,1,0,0,0,1.38,1.38c.45-.41.88-.84,1.35-1.23l.42-.27a1,1,0,0,0,.35-1.34,1,1,0,0,0-.86-.49.92.92,0,0,0-.48.14"/><path class="cls-1" d="M257.78,138.16a11.3,11.3,0,0,0-1.93.9c-.61.38-1.21.79-1.81,1.2a1.08,1.08,0,0,0-.45.58,1,1,0,0,0,.1.76A1,1,0,0,0,255,142c.51-.35,1-.7,1.54-1a12,12,0,0,1,1.31-.72l.42-.16a1,1,0,0,0,.58-.45,1,1,0,0,0-.35-1.33,1,1,0,0,0-.51-.14.67.67,0,0,0-.24,0"/><path class="cls-1" d="M269,136.35a2.21,2.21,0,0,0-.51.05,4.27,4.27,0,0,0-1.57.74,16.55,16.55,0,0,0-1.41,1.09c-.2.18-.38.38-.57.57a5.14,5.14,0,0,0-.38.42l.27-.92a1,1,0,0,0-1.89-.52c-.31,1.06-.66,2.12-.9,3.2-.13.57-.19,1.17-.27,1.75s-.08.93-.13,1.4a1,1,0,0,0,.72.94,1,1,0,0,0,1.21-.68c0-.14.09-.27.14-.4a17.55,17.55,0,0,1,1.53-2.53l.42-.53c.18-.23.39-.44.58-.66a10.66,10.66,0,0,1,1.16-1.07,8.29,8.29,0,0,1,.86-.6,4.34,4.34,0,0,1-.16.47c-.32.73-.71,1.43-1.08,2.13s-.71,1.25-1,1.89c-.09.18-.17.35-.25.54a7,7,0,0,0-.26.69l-.06.4a3.19,3.19,0,0,0,.06.54l.15.37a2,2,0,0,0,.24.33,2.62,2.62,0,0,0,.67.52,3.46,3.46,0,0,0,1.71.32c.87,0,1.75-.06,2.62-.15a1,1,0,0,0,.69-.29,1,1,0,0,0,0-1.38.93.93,0,0,0-.69-.29q-.77.08-1.53.12c-.52,0-1.06.06-1.59,0l-.25-.07-.09-.05a2.25,2.25,0,0,1,.08-.24c.38-.83.86-1.61,1.29-2.42.24-.45.48-.9.7-1.36s.33-.68.48-1a6.17,6.17,0,0,0,.3-.95c0-.19.05-.39.07-.58a1.6,1.6,0,0,0,0-.31c0-.13,0-.27-.05-.4a1.49,1.49,0,0,0-.22-.48l-.15-.2-.3-.23a1.28,1.28,0,0,0-.6-.16Zm-1.74,8.16.06.14-.06-.14m.15.23.07,0-.07,0m0,0v0Z"/><path class="cls-1" d="M274.22,141c0,.75,0,1.5,0,2.26s-.08,1.49-.11,2.23a1,1,0,0,0,1,1,1,1,0,0,0,1-1c0-.74.07-1.47.11-2.21s0-1.52,0-2.28a1,1,0,1,0-1.95,0"/><path class="cls-1" d="M280.26,138a35.11,35.11,0,0,0-4.23.49A17.06,17.06,0,0,0,272.2,140a.94.94,0,0,0-.45.58,1,1,0,0,0,.1.76,1,1,0,0,0,.59.45,1,1,0,0,0,.75-.1l1.6-.75a11.58,11.58,0,0,1,1.33-.46,14,14,0,0,1,1.41-.27c.91-.1,1.82-.19,2.73-.25a1,1,0,0,0,.69-.29,1,1,0,0,0-.63-1.67h-.06"/><path class="cls-1" d="M281.86,140.26a.94.94,0,0,0-.58.45,12.37,12.37,0,0,0-1.22,3.47,3,3,0,0,0,0,1,2.29,2.29,0,0,0,.51,1,3,3,0,0,0,.8.62,3.14,3.14,0,0,0,1.08.32,5.18,5.18,0,0,0,1.62-.12c.32-.06.64-.13,1-.21a1,1,0,1,0-.52-1.89c-.42.11-.83.2-1.26.27a4.16,4.16,0,0,1-.61,0l-.28-.08-.2-.11-.15-.15,0,0a2.54,2.54,0,0,1,0-.39,10.74,10.74,0,0,1,.7-2.07l-.1.24c.12-.28.25-.55.37-.82a1.11,1.11,0,0,0,.1-.76,1,1,0,0,0-.45-.58,1,1,0,0,0-.5-.14.82.82,0,0,0-.26,0m.15,4.53a.5.5,0,0,0,.05.13.5.5,0,0,1-.05-.13m.06.08.06.07-.06-.07"/><path class="cls-1" d="M285.28,141.41c-.89.64-1.81,1.24-2.7,1.89a1,1,0,0,0-.45.58,1,1,0,0,0,.68,1.21,1,1,0,0,0,.76-.1c.89-.65,1.81-1.25,2.7-1.89a1.05,1.05,0,0,0,.45-.59,1,1,0,0,0-.1-.75,1,1,0,0,0-.58-.45.86.86,0,0,0-.28,0,.8.8,0,0,0-.48.14"/><path class="cls-1" d="M287.22,137.51c-.5.12-1,.27-1.5.43a7.2,7.2,0,0,0-1.76.81,6.45,6.45,0,0,0-.66.51,7,7,0,0,0-.7.74,1,1,0,0,0-.29.7,1,1,0,0,0,1.67.69,8.35,8.35,0,0,1,.83-.85,6.2,6.2,0,0,1,1-.55,18.69,18.69,0,0,1,2-.6,1,1,0,0,0-.28-1.91l-.25,0"/><path class="cls-1" d="M294.41,137.61c-.72,1.33-1.4,2.69-2.1,4l-.89,1.69c-.35.67-.68,1.34-1.05,2a1,1,0,0,0,.35,1.33,1,1,0,0,0,1.34-.35c.36-.64.68-1.3,1-1.95l.89-1.68c.71-1.36,1.4-2.73,2.13-4.09a1,1,0,0,0-.35-1.33,1,1,0,0,0-.49-.13.92.92,0,0,0-.85.48"/><path class="cls-1" d="M290.34,139.87a1,1,0,0,0-.58.46,1,1,0,0,0-.1.75,1,1,0,0,0,.45.58c.51.36,1,.7,1.54,1.05a13.32,13.32,0,0,0,2.58,1.31c1,.38,1.92.73,2.9,1a1,1,0,0,0,.52-1.89c-1-.33-2-.7-3-1.09a15.09,15.09,0,0,1-2.16-1.18c-.46-.31-.92-.62-1.37-.94a.89.89,0,0,0-.48-.13,1.27,1.27,0,0,0-.28,0"/><path class="cls-1" d="M308.83,138.7a1,1,0,0,0-.29.7c.1,1,.19,2,.25,3s.09,1.83.11,2.75a1,1,0,0,0,2,0c0-.92-.05-1.83-.1-2.75s-.16-2-.25-3a1.08,1.08,0,0,0-.29-.7,1,1,0,0,0-1.38,0"/><path class="cls-1" d="M312.44,143.72a18.44,18.44,0,0,0-2.84.62c-.94.31-1.87.67-2.8,1a1,1,0,0,0-.59.45,1,1,0,0,0-.1.75,1,1,0,0,0,.45.59,1,1,0,0,0,.76.1c.93-.34,1.86-.7,2.81-1a16.78,16.78,0,0,1,2.83-.62.88.88,0,0,0,.58-.45.94.94,0,0,0,.1-.75,1,1,0,0,0-.45-.59l-.23-.1a1.14,1.14,0,0,0-.52,0"/><path class="cls-1" d="M317.05,136.18a25.4,25.4,0,0,0-2.61.62c-.9.27-1.78.58-2.66.9-.39.13-.77.29-1.15.44s-.46.16-.68.27l-.63.3a15.68,15.68,0,0,0-2,1.1A7,7,0,0,0,306,141a2.6,2.6,0,0,0-.5.87,4.46,4.46,0,0,0-.18,1,1,1,0,0,0,.28.7,1,1,0,0,0,1.39,0l.15-.2a1,1,0,0,0,.13-.5.77.77,0,0,0,0-.15,2.5,2.5,0,0,1,.07-.26,1.62,1.62,0,0,1,.1-.18,5.79,5.79,0,0,1,.57-.54,11.79,11.79,0,0,1,1.81-1.07l1.05-.51,1.32-.51,1.89-.66a26.39,26.39,0,0,1,3.5-.89,1,1,0,0,0,.23-1.79,1,1,0,0,0-.48-.13,1.24,1.24,0,0,0-.27,0"/><path class="cls-1" d="M324,136.73c-.25,1.18-.37,2.39-.53,3.59a14.08,14.08,0,0,1-.64,3,3.94,3.94,0,0,1-.36.63,2.28,2.28,0,0,1-.22.22h0a5.77,5.77,0,0,1-.74-.47c-.22-.18-.44-.37-.65-.58s-.35-.4-.51-.6a9.58,9.58,0,0,1-.74-1.17c-.22-.42-.43-.84-.64-1.26l0-.1a1,1,0,0,0-.25-.43,1,1,0,0,0-1.3-.21,1,1,0,0,0-.45.58,3.09,3.09,0,0,0-.08.6c0,.13,0,.26,0,.39s-.05.46-.07.68c-.05.49-.09,1-.13,1.45-.07,1-.16,2.05-.21,3.07a1,1,0,1,0,2,0c0-.91.13-1.83.2-2.74.25.35.53.69.81,1a6.54,6.54,0,0,0,.83.75,6.23,6.23,0,0,0,.78.57,3.6,3.6,0,0,0,.77.36,2.63,2.63,0,0,0,.39.06,2,2,0,0,0,.55,0,1.93,1.93,0,0,0,.4-.15,2.22,2.22,0,0,0,.46-.29,3.86,3.86,0,0,0,.64-.7,3.08,3.08,0,0,0,.37-.66,7.17,7.17,0,0,0,.37-1,11.42,11.42,0,0,0,.34-1.54c.14-1,.27-2,.4-3,0,.08,0,.17,0,.26.08-.61.17-1.21.29-1.8A1,1,0,0,0,325,136a1,1,0,0,0-1,.72m-1.61,7.44-.14,0,.14,0m-.29,0h0m.07,0-.11,0,.11,0"/><path class="cls-1" d="M332.52,137.8a6.29,6.29,0,0,0-1.93.65,4.46,4.46,0,0,0-1.21,1,10.35,10.35,0,0,0-1,1.36l-.12.17a1,1,0,0,0,.36,1.34.53.53,0,1,1,.76.74c.17.49.36,1,.55,1.46.11.29.23.57.35.84a3.68,3.68,0,0,0,.55.92,2.47,2.47,0,0,0,.79.61,1.91,1.91,0,0,0,1,.21,3.17,3.17,0,0,0,1-.3,5.82,5.82,0,0,0,1.65-1.17,10,10,0,0,0,.78-.92c.17-.23.34-.47.49-.72a8.4,8.4,0,0,0,.53-1.14,3.82,3.82,0,0,0,.24-.88,4.83,4.83,0,0,0,0-1.14,5.68,5.68,0,0,0-.21-1.09,2.31,2.31,0,0,0-1-1.35,3.78,3.78,0,0,0-.43-.26,4.48,4.48,0,0,0-.94-.37,4.29,4.29,0,0,0-1-.12h-.1a6.61,6.61,0,0,0-1.09.12m1.5,1.85a4.91,4.91,0,0,1,.51.15,4.24,4.24,0,0,1,.59.33.08.08,0,0,0,0,0s0,.09.08.14a3.27,3.27,0,0,1,.13.54,5.49,5.49,0,0,1,0,.81,4.83,4.83,0,0,1-.22.74,7.27,7.27,0,0,1-.74,1.27,6.92,6.92,0,0,1-1,1,5.62,5.62,0,0,1-.74.45l-.24.07-.11-.06-.1-.11a4.22,4.22,0,0,1-.38-.73c-.22-.56-.45-1.13-.64-1.7a1,1,0,0,0-1.2-.69l-.05,0c.18-.28.37-.56.57-.83a6.39,6.39,0,0,1,.71-.76,5.39,5.39,0,0,1,.52-.3,7.88,7.88,0,0,1,1.37-.36,5.75,5.75,0,0,1,.83,0m-1.64,5.49.06,0h0l-.06,0m.23,0h0m-.24,0h0"/><path class="cls-1" d="M338.92,141.42c0,.38,0,.76.05,1.15,0,.21,0,.42.07.62a5.17,5.17,0,0,0,.11.54,2.08,2.08,0,0,0,.46.77l.31.25a1.92,1.92,0,0,0,.31.18,3.71,3.71,0,0,0,.63.24,5.53,5.53,0,0,0,1.21.18,6.86,6.86,0,0,0,1.28,0l.26,0A.89.89,0,0,0,344,145a1,1,0,0,0,0-1.38.91.91,0,0,0-.69-.29,7,7,0,0,1-1.52,0,4.2,4.2,0,0,1-.7-.17l-.12-.07a2.56,2.56,0,0,1-.05-.27c0-.48-.07-1-.09-1.44a1,1,0,1,0-1.95,0m2,1.55a.61.61,0,0,0,.05.12.61.61,0,0,1-.05-.12m0,0,0,0,0,0"/><path class="cls-1" d="M342.87,139.53l-1.94.81c-.66.27-1.3.61-1.94.94a1,1,0,0,0-.35,1.33,1,1,0,0,0,.59.45.94.94,0,0,0,.75-.1c.51-.26,1-.52,1.55-.76l1.86-.78.24-.1A1,1,0,0,0,344,141a1,1,0,0,0-.35-1.34,1.12,1.12,0,0,0-.52-.14.93.93,0,0,0-.24,0"/><path class="cls-1" d="M344.9,135.64a13.3,13.3,0,0,0-2.78.62c-.92.31-1.83.65-2.74,1a1.13,1.13,0,0,0-.58.45,1,1,0,0,0-.1.76,1,1,0,0,0,.45.58.91.91,0,0,0,.75.1,25.07,25.07,0,0,1,5-1.54h0l.26,0a1,1,0,0,0,.43-.25,1,1,0,0,0,0-1.39,1,1,0,0,0-.63-.29h-.06"/><path class="cls-1" d="M354.18,135.84c-.53.93-1.06,1.86-1.64,2.76-.46.74-1,1.44-1.47,2.14-.36.46-.73.91-1.11,1.36s-.84.93-1.28,1.38a1,1,0,1,0,1.38,1.38c.3-.3.6-.6.88-.91s.48-.55.71-.83c.55-.65,1.07-1.33,1.57-2a41.9,41.9,0,0,0,2.65-4.29,1,1,0,0,0-.35-1.33,1,1,0,0,0-.49-.13,1,1,0,0,0-.85.48"/><path class="cls-1" d="M348.77,137a1,1,0,0,0-.35,1.34c.35.55.69,1.12,1.09,1.64s.76,1,1.17,1.41c.79.88,1.64,1.71,2.4,2.61a.94.94,0,0,0,.69.29,1,1,0,0,0,.7-.29,1,1,0,0,0,.28-.69,1,1,0,0,0-.28-.69c-.6-.71-1.25-1.37-1.88-2s-1.06-1.18-1.55-1.81c-.32-.47-.63-.94-.93-1.42a1,1,0,0,0-.86-.48.94.94,0,0,0-.48.13m2.12,1.58.12.16-.12-.16"/><path class="cls-1" d="M269.44,153.47a.94.94,0,0,0-.58.45,9.53,9.53,0,0,1-.67,1.21c-.26.4-.5.81-.76,1.21-.55.83-1.14,1.63-1.73,2.43l-2,2.68c-.6.84-1.19,1.69-1.78,2.53-.49.69-1,1.37-1.5,2.06s-1,1.39-1.49,2.12c-.25.38-.49.76-.72,1.15s-.46.82-.68,1.23a19.19,19.19,0,0,0-.83,1.78,12.75,12.75,0,0,0-.57,2.12,1,1,0,0,0,.1.75,1,1,0,0,0,.58.46A1,1,0,0,0,258,175a14.93,14.93,0,0,1,.59-2.18c.25-.55.52-1.1.81-1.63s.46-.85.72-1.26.61-.94.93-1.4.61-.88.93-1.31c.66-.9,1.31-1.79,2-2.69s1.2-1.71,1.81-2.56c.87-1.19,1.75-2.36,2.62-3.55.42-.57.81-1.17,1.18-1.77a16,16,0,0,0,1-1.71,1.08,1.08,0,0,0,.1-.75,1,1,0,0,0-.95-.72.82.82,0,0,0-.26,0"/><path class="cls-1" d="M269.89,153a22.56,22.56,0,0,1-1.56,2.57,1,1,0,0,0,.35,1.33,1,1,0,0,0,.76.1,1,1,0,0,0,.58-.45,21.59,21.59,0,0,0,1.56-2.56,1,1,0,0,0,.1-.76,1,1,0,0,0-.45-.58,1,1,0,0,0-.49-.13.92.92,0,0,0-.85.48"/><path class="cls-1" d="M271.8,151a3.23,3.23,0,0,0-.25.29c-.13.15-.25.31-.37.46l-.86,1.05c-.35.43-.68.86-1,1.31l-.8,1.18a1,1,0,0,0,.36,1.34,1,1,0,0,0,.75.1,1,1,0,0,0,.58-.45c.4-.58.78-1.17,1.2-1.73l.85-1.05c.15-.17.29-.35.44-.53l.26-.35a.76.76,0,0,0,.23-.17,1,1,0,0,0,.29-.69v-.06a1,1,0,0,0-.72-.94.82.82,0,0,0-.26,0,1,1,0,0,0-.7.28"/><path class="cls-1" d="M56.8,154.61l-1.64.16-1.42.15c-.92.08-1.84.13-2.75.22l-.72.09c-.21,0-.44.05-.65.09a16.19,16.19,0,0,0-2.19.51,14.62,14.62,0,0,0-3.26,1.63,13.35,13.35,0,0,0-2,1.65,11,11,0,0,0-1.79,2.23.9.9,0,0,0-.1.7c-.09.1-.16.21-.24.31a11.41,11.41,0,0,0-1.1,1.88,25.5,25.5,0,0,0-1,2.42c-.17.46-.31.93-.45,1.41s-.28.9-.38,1.37-.26,1.17-.4,1.75c0,.19-.06.39-.09.59-.06.39-.13.78-.19,1.17a24.73,24.73,0,0,0-.31,3.21c0,.74,0,1.48.05,2.21s.12,1.47.24,2.19.21,1.22.31,1.82a3.48,3.48,0,0,0,.1.44l.27,1.12c.13.51.31,1,.47,1.5a32.57,32.57,0,0,0,1.25,3.14c.42,1,.87,1.92,1.33,2.87s1,1.86,1.46,2.77c.26.48.53.95.82,1.42s.58.92.89,1.37.69.92,1,1.37a13.42,13.42,0,0,0,1.37,1.45,14,14,0,0,0,1.86,1.47,10.52,10.52,0,0,0,1.93,1,14.37,14.37,0,0,0,2.33.65c.33.07.67.12,1,.17s.6.1.9.13l1,.08a13.62,13.62,0,0,0,1.69,0c.46,0,.92-.08,1.38-.13l1-.13a23.6,23.6,0,0,0,3-.61l1.68-.52c.52-.18,1-.39,1.53-.59s1.09-.48,1.64-.73.93-.49,1.4-.74l.55-.33c.21-.13.43-.25.64-.39l.78-.53c.25-.17.48-.37.72-.56a6.25,6.25,0,0,0,.5-.4l.79-.71c.38-.34.74-.72,1.1-1.08a30.86,30.86,0,0,0,2.11-2.32,32,32,0,0,0,2-2.66,19.73,19.73,0,0,0,1.54-2.77c.09-.22.2-.43.29-.65l.2-.48a4,4,0,0,0,.2-.48c.1-.27.19-.55.29-.83s.15-.56.22-.84.1-.43.14-.64.1-.49.13-.73c.1-.64.18-1.28.25-1.92a25.67,25.67,0,0,0,.12-3c0-.25-.05-.49-.07-.74s-.06-.52-.1-.78c-.07-.58-.17-1.16-.28-1.73a26.73,26.73,0,0,0-.78-3.05c-.32-1-.66-2.06-1-3.09-.15-.46-.3-.91-.46-1.36s-.41-1.07-.63-1.61a9.48,9.48,0,0,0-.76-1.53,14.84,14.84,0,0,0-1.51-1.92c-.37-.4-.76-.77-1.16-1.13-.78-.71-1.61-1.37-2.42-2.05-.45-.37-.91-.72-1.38-1.06a12.19,12.19,0,0,0-1.33-.82c-.43-.25-.88-.48-1.33-.7l-1.29-.64c-.52-.23-1-.47-1.56-.67s-1-.34-1.54-.48a11.61,11.61,0,0,0-1.45-.28c-.62-.09-1.24-.17-1.87-.22s-1.12-.07-1.68-.07-.86,0-1.29.05m-3.39,2.3c.83-.07,1.65-.19,2.48-.26a23.65,23.65,0,0,1,2.52-.14c.79,0,1.57.09,2.35.17.56.09,1.12.18,1.68.3a12.38,12.38,0,0,1,1.79.56c.9.39,1.78.83,2.66,1.27q.73.38,1.44.78a14,14,0,0,1,1.2.81c.74.6,1.48,1.21,2.21,1.83.42.36.84.72,1.25,1.09a6.14,6.14,0,0,1,.5.52,12.34,12.34,0,0,1,1,1.08,9.12,9.12,0,0,1,.56.82,7.84,7.84,0,0,1,.51,1c.14.34.28.67.4,1s.34.94.5,1.42q.43,1.29.84,2.58c.28.87.56,1.75.77,2.64.11.46.23.92.32,1.38s.16.92.23,1.39.09.76.12,1.14a12.34,12.34,0,0,1,0,1.36c0,.86-.1,1.72-.19,2.57l-.12.84c0,.34-.14.69-.21,1s-.17.66-.26,1-.2.6-.3.89a21.51,21.51,0,0,1-1.38,2.86c-.3.51-.6,1-1,1.49s-.65.87-1,1.3-.78,1-1.19,1.41-.88,1-1.33,1.42-.89.89-1.36,1.31c-.22.2-.43.41-.66.59l-.65.51c-.33.22-.64.45-1,.66s-.74.47-1.13.67l-.76.41-.48.26-1.24.56c-.41.17-.83.35-1.25.49-.6.2-1.2.4-1.81.57a14.86,14.86,0,0,1-1.46.37c-.54.1-1.08.2-1.62.28-.78.09-1.56.19-2.35.21a22.71,22.71,0,0,1-2.33-.11l-1-.15a13.87,13.87,0,0,1-1.45-.33,11.88,11.88,0,0,1-1.46-.48A9.65,9.65,0,0,1,48,199.17c-.39-.31-.77-.64-1.13-1a11.44,11.44,0,0,1-1.1-1.21c-.22-.27-.43-.55-.65-.83l-.72-1.07c-.11-.17-.21-.35-.31-.52l-.45-.73c-.23-.4-.44-.82-.66-1.23s-.42-.78-.63-1.18c-.8-1.53-1.51-3.11-2.2-4.7-.09-.25-.19-.5-.28-.74s-.21-.49-.29-.74l-.33-1a6.36,6.36,0,0,1-.19-.62c-.09-.35-.18-.7-.26-1s-.12-.43-.16-.65c-.1-.61-.2-1.22-.31-1.83-.12-1-.2-2-.23-3a24.27,24.27,0,0,1,.18-3.19c.11-.7.23-1.4.34-2.1,0-.23.1-.46.15-.69.1-.46.2-.92.31-1.38.05-.23.12-.46.19-.68l.38-1.28c.08-.26.18-.5.27-.75s.26-.74.41-1.1a13,13,0,0,1,1.41-2.56,4.67,4.67,0,0,1,.44-.45l.29-.18.33-.09a5.17,5.17,0,0,1,.68,0l.5.08.26,0a1.09,1.09,0,0,0,.5-.13,1,1,0,0,0,.35-1.34.92.92,0,0,0-.59-.45l-1-.14-.18,0,.11-.11c.15-.16.32-.3.47-.45s.47-.42.71-.61a14.26,14.26,0,0,1,2.79-1.59,8.46,8.46,0,0,1,1.55-.49l.9-.18q.51-.09,1-.15c.85-.08,1.69-.13,2.53-.2"/><path class="cls-1" d="M187.52,22.6l-.88,0c-.25,0-.49,0-.74,0l-1.81.15c-.52,0-1,.12-1.55.19s-1.09.17-1.63.26c-.27,0-.54.13-.82.19a8.45,8.45,0,0,0-1.3.39l-.15-.08a3.83,3.83,0,0,0-2-.32,8,8,0,0,0-1.51.38,6.64,6.64,0,0,0-.95.41,6.14,6.14,0,0,0-.81.51c-.33.24-.65.5-1,.76a16.78,16.78,0,0,0-5.07,7.35,19.56,19.56,0,0,0-.86,3.13c-.21,1.09-.39,2.18-.51,3.29-.05.53-.11,1.06-.14,1.59-.05.88-.1,1.74-.07,2.62a24.61,24.61,0,0,0,.34,3c.08.53.18,1,.28,1.57.2,1,.45,2.08.72,3.12s.5,1.91.82,2.84c.13.37.25.74.39,1.1a11.39,11.39,0,0,0,1.14,2.12,17.19,17.19,0,0,0,1.35,1.71,13,13,0,0,0,1.45,1.43c.44.37.89.75,1.35,1.1s.91.68,1.38,1,.8.58,1.22.83l.73.45.79.43c.41.23.83.44,1.24.66s.92.48,1.39.69,1.18.52,1.78.77a10.89,10.89,0,0,0,2.51.77c.59.09,1.18.18,1.78.24s1.14.08,1.71.11a17.66,17.66,0,0,0,3.17-.11,9.44,9.44,0,0,0,1.48-.29,13,13,0,0,0,1.62-.59c.5-.22,1-.45,1.47-.7s1-.54,1.44-.81a23.7,23.7,0,0,0,2.66-1.78c.45-.35.9-.7,1.34-1.07s.75-.68,1.12-1c.2-.19.39-.4.58-.61s.3-.32.45-.5c.37-.44.73-.89,1.08-1.34a23.68,23.68,0,0,0,3.25-5.7,31.75,31.75,0,0,0,1.09-3c.14-.48.28-1,.39-1.45s.23-1.11.33-1.66c.05-.27.08-.55.12-.82l.12-1c.05-.51.08-1,.1-1.51s0-1,0-1.5-.06-1.08-.1-1.61a24.94,24.94,0,0,0-.45-3.22,5,5,0,0,0-.19-.66c-.09-.25-.17-.5-.26-.74-.23-.55-.44-1.1-.71-1.63a8,8,0,0,0-.73-1.27c-.36-.49-.74-1-1.14-1.42s-.69-.74-1-1.12-.68-.84-1-1.26a22.87,22.87,0,0,0-2-2.31A8.77,8.77,0,0,0,201,25.6a13.41,13.41,0,0,0-1.35-.72c-.9-.43-1.77-.92-2.67-1.34a9.72,9.72,0,0,0-3.28-.78c-1-.08-2.07-.11-3.11-.12l-1.73,0h-1.36M184,24.75c.53-.06,1.07-.08,1.6-.12,1-.08,1.93-.07,2.89-.06s1.86,0,2.79,0,1.95.05,2.92.16c.32.05.64.1,1,.18a7.53,7.53,0,0,1,1,.31c.69.33,1.35.71,2,1,.41.2.83.39,1.24.6a6.41,6.41,0,0,1,1,.6,14.23,14.23,0,0,1,1.4,1.4c.42.48.81,1,1.2,1.49s.88,1.12,1.36,1.65.86.94,1.27,1.44a9.16,9.16,0,0,1,.69,1.06,10.73,10.73,0,0,1,.55,1.13,13.76,13.76,0,0,1,.56,1.56,11.68,11.68,0,0,1,.33,1.56c.12,1.1.23,2.19.25,3.3,0,.59,0,1.17,0,1.76s-.09,1.09-.16,1.64-.16,1.06-.25,1.6c-.06.29-.13.58-.2.87s-.13.57-.21.85c-.18.58-.34,1.16-.55,1.73s-.45,1.16-.68,1.74c-.16.37-.31.74-.49,1.1s-.46.92-.72,1.37l-.37.65c-.14.24-.3.47-.45.71s-.51.74-.77,1.1-.61.77-.93,1.15c-.15.18-.3.36-.46.53l-.68.72c-.22.22-.46.43-.68.64s-.39.34-.59.51c-.36.3-.74.6-1.12.89s-.81.58-1.23.84-.83.53-1.26.78-.88.52-1.34.74-.86.43-1.31.63l-.63.25c-.2.08-.43.13-.64.2a8.78,8.78,0,0,1-1.26.25c-.38,0-.77.08-1.16.09h-1.39c-.81,0-1.61-.08-2.41-.16l-.73-.11a10.9,10.9,0,0,1-1.77-.44c-.5-.17-1-.39-1.49-.6-.68-.3-1.35-.62-2-1s-1.33-.71-2-1.07a19.61,19.61,0,0,1-1.74-1.1l-.91-.64-.81-.62-1-.8a14,14,0,0,1-2.12-2.23,12,12,0,0,1-1.3-2.14,23.36,23.36,0,0,1-.8-2.45c-.24-.84-.47-1.69-.69-2.53s-.33-1.46-.47-2.19-.27-1.54-.39-2.32c-.05-.41-.1-.83-.13-1.25s0-1.07,0-1.6,0-.86.07-1.28c0-.69.12-1.38.19-2.06s.19-1.29.31-1.93c.09-.46.17-.91.28-1.36a18.93,18.93,0,0,1,.93-2.91,17.28,17.28,0,0,1,1.3-2.44,1.06,1.06,0,0,0,.41.24,1,1,0,0,0,.76-.1c1.08-.77,2.2-1.47,3.31-2.19.51-.34,1-.66,1.54-1s1.19-.76,1.81-1.11l.48.42a1,1,0,0,0,.69.28,1,1,0,0,0,.69-.28,1,1,0,0,0,.17-1.19l.77-.18L182,25l.65-.11,1.35-.17m-8.68,1.08-1.21.77.07-.06a7,7,0,0,1,1.14-.71m-5.76,6.67,0,.09a.36.36,0,0,0,0-.09M181.79,64l.15.06-.15-.06"/><path class="cls-1" d="M235.91,154.94c-.38.06-.76.11-1.14.19-.76.17-1.5.39-2.25.57a21.61,21.61,0,0,1-2.22.41,19.67,19.67,0,0,0-2.44.38c-.42.12-.84.27-1.26.43l-1.16.44a1.06,1.06,0,0,0-.59.45,1,1,0,0,0-.1.75,1.73,1.73,0,0,0,.1.24h0a5.43,5.43,0,0,0-1.16.38,14.5,14.5,0,0,0-3.82,2.36,12.58,12.58,0,0,0-1.45,1.47c-.53.61-1,1.26-1.49,1.92a19.38,19.38,0,0,0-2.11,3.84c-.28.67-.53,1.35-.78,2a18.26,18.26,0,0,0-.88,3.57,18,18,0,0,0-.23,2.32,13.6,13.6,0,0,0,.19,2.39,23.21,23.21,0,0,0,.6,2.75c.14.52.32,1,.49,1.55a32.71,32.71,0,0,0,1.27,3.14c.22.49.46,1,.71,1.45.16.32.34.63.52.94a17.57,17.57,0,0,0,1.3,1.89,26.29,26.29,0,0,0,3.12,3.21c.79.72,1.62,1.39,2.46,2.06s1.53,1.26,2.31,1.87l1.49,1.16.56.41c.23.16.45.34.69.48.44.26.88.52,1.34.76s1,.51,1.55.74l1,.46a20.19,20.19,0,0,0,2.15.74c.28.08.57.14.85.21l.78.18c.51.1,1,.22,1.52.31s1,.19,1.54.26l1.78.24c.59.06,1.17.11,1.76.15s.94.07,1.41.08h1.05a10.45,10.45,0,0,0,2.29-.32c.38-.08.75-.2,1.13-.32s.87-.29,1.3-.47a15.14,15.14,0,0,0,1.93-1,14.15,14.15,0,0,0,1.92-1.41,20.18,20.18,0,0,0,2.39-2.5c.72-.88,1.41-1.78,2.05-2.72.28-.4.54-.81.8-1.22s.55-.87.8-1.31l.84-1.51c.24-.45.47-.92.68-1.39s.47-1.1.68-1.65a8.75,8.75,0,0,0,.44-1.34,25.19,25.19,0,0,0,.61-3.23c.12-1.08.2-2.15.24-3.23s.09-2.12,0-3.17a16.12,16.12,0,0,0-.22-1.7,4.86,4.86,0,0,0-.15-.66c-.08-.25-.15-.51-.24-.76-.36-1-.75-2-1.16-3-.13-.3-.26-.6-.41-.9s-.25-.48-.38-.72a10.85,10.85,0,0,0-.78-1.25c-.69-.92-1.41-1.82-2.13-2.72s-1.21-1.56-1.86-2.3a11.32,11.32,0,0,0-1.81-1.72,12.51,12.51,0,0,0-1.2-.86c-.89-.54-1.83-1-2.73-1.52-1.42-.82-2.77-1.76-4.2-2.56a8.25,8.25,0,0,0-1.35-.62c-.32-.11-.65-.19-1-.27a12.32,12.32,0,0,0-1.21-.24c-.84-.14-1.68-.25-2.53-.36s-1.52-.23-2.28-.29c-.33,0-.65,0-1,0a6.63,6.63,0,0,0-1,.07m2.84,2,2,.27a17.77,17.77,0,0,1,3.83.81c.45.21.89.46,1.32.71l1,.62c.71.45,1.41.92,2.14,1.34s1.46.81,2.2,1.22a9.14,9.14,0,0,1,1.09.64c.31.21.62.44.92.66a19.08,19.08,0,0,1,2.78,3c.68.86,1.37,1.71,2.05,2.58a13.57,13.57,0,0,1,.91,1.33c.29.49.56,1,.81,1.51.32.76.63,1.52.91,2.29.17.47.33.94.48,1.42a11,11,0,0,1,.28,1.29c0,.2,0,.39.06.59,0,.35,0,.69,0,1.05,0,.59,0,1.19,0,1.79s0,1.24-.09,1.86-.1,1.21-.17,1.82c-.05.34-.1.68-.17,1s-.16.8-.25,1.19a12.15,12.15,0,0,1-.33,1.18c-.15.4-.3.8-.46,1.2-.25.6-.52,1.19-.82,1.77s-.65,1.21-1,1.8-.77,1.27-1.18,1.9-.81,1.19-1.24,1.77c-.19.25-.38.51-.59.75s-.52.66-.8,1-.57.65-.88.94a18.25,18.25,0,0,1-1.46,1.33,13.77,13.77,0,0,1-2.7,1.57,14.39,14.39,0,0,1-3.2.9,18.65,18.65,0,0,1-3,0c-.78,0-1.55-.13-2.33-.21l.26,0c-.49-.07-1-.13-1.48-.21l-1.72-.31c-.6-.12-1.19-.25-1.79-.39-.31-.07-.63-.14-.94-.23a19.05,19.05,0,0,1-2.2-.76l-.6-.27c-.22-.1-.45-.2-.66-.31-.42-.21-.84-.4-1.24-.64l-.79-.46a5.91,5.91,0,0,1-.52-.35c-.37-.25-.73-.52-1.08-.79-1.41-1.1-2.8-2.23-4.19-3.35-.7-.57-1.37-1.18-2-1.79-.31-.28-.6-.58-.9-.87a23.09,23.09,0,0,1-1.62-1.8,15.78,15.78,0,0,1-1.34-2.09c-.18-.36-.36-.72-.55-1.08-.28-.56-.52-1.13-.77-1.7s-.33-.85-.5-1.27-.28-.85-.42-1.28-.24-.81-.35-1.22c-.2-.79-.36-1.58-.48-2.38a12.94,12.94,0,0,1,0-3.11,18.34,18.34,0,0,1,.9-3.86c.22-.59.43-1.19.67-1.78a23.06,23.06,0,0,1,1.1-2.23,22.42,22.42,0,0,1,1.5-2.24,16.49,16.49,0,0,1,2.5-2.58,14.12,14.12,0,0,1,2.65-1.57,6.59,6.59,0,0,1,1.22-.37,5.14,5.14,0,0,1,.88,0c.56.08,1.12.19,1.67.3a1.05,1.05,0,0,0,.76-.1,1,1,0,0,0,.45-.59,1,1,0,0,0-.69-1.2c-.51-.1-1-.2-1.53-.28a11.38,11.38,0,0,1,2.12-.61,30.64,30.64,0,0,0,3.58-.56c.59-.14,1.18-.31,1.76-.45s1.18-.26,1.78-.36a12.1,12.1,0,0,1,2.48.12m2.14.29.12,0-.12,0m-11.88,1h0m30.7,13.25,0,.06,0-.06"/></g></g></svg>