<svg xmlns="http://www.w3.org/2000/svg" xmlns:xlink="http://www.w3.org/1999/xlink" viewBox="0 0 355.94 241.9"><defs><style>.cls-1{fill:none;}.cls-2{fill:#2c2c2c;}.cls-3{fill:#c6f;}.cls-4{opacity:0.52;}.cls-5{clip-path:url(#clip-path);}.cls-6{fill:#fc6;}.cls-7{clip-path:url(#clip-path-2);}</style><clipPath id="clip-path"><rect class="cls-1" x="48.2" y="168.98" width="95.53" height="20.88"/></clipPath><clipPath id="clip-path-2"><rect class="cls-1" x="138.41" y="102.24" width="14.36" height="69.39"/></clipPath></defs><title>Asset 6</title><g id="Layer_2" data-name="Layer 2"><g id="Layer_1-2" data-name="Layer 1"><path class="cls-2" d="M101.45,12.79c0,.73.09,1.46.12,2.18s.05,1.39.09,2.09.07,1.19.11,1.78.07,1.44.1,2.15c.1,2.64.1,5.28.11,7.92q0,8,0,16V60.45c0,1.29,0,2.57.05,3.85s.12,2.8.15,4.19.08,2.6.15,3.9.11,2.57.16,3.85.13,2.7.18,4.05.11,2.83.14,4.24,0,2.7.05,4c0,.59,0,1.19,0,1.78s.05,1.43.08,2.14c.06,1.28.08,2.57.16,3.85.08,1.44.16,2.88.23,4.33.05,1.26.07,2.53.09,3.8s0,2.71,0,4.06c0,5.31,0,10.61,0,15.92v5.69c0,1,0,1.93.07,2.89,0,.46,0,.91.08,1.36l0,.6a3.31,3.31,0,0,0,0,.55.77.77,0,0,0,.38.58.72.72,0,0,0,1-.87c0-.26,0-.53,0-.78l-.06-1c0-.66-.07-1.32-.09-2s0-1.21,0-1.81V111.9c0-2.65,0-5.3-.05-8,0-1.41-.06-2.82-.13-4.23,0-.68-.07-1.36-.11-2s-.07-1.2-.1-1.8c-.05-1.4-.1-2.8-.16-4.2s-.06-2.74-.07-4.11c0-2.64-.07-5.29-.21-7.92s-.22-5.38-.36-8.07c-.07-1.36-.09-2.71-.12-4.07s-.11-2.47-.15-3.71,0-2.62,0-3.93V32.15c0-2.6,0-5.2,0-7.8,0-1.91-.09-3.82-.2-5.73,0-.45-.06-.91-.08-1.36s-.05-.94-.06-1.41c0-1-.1-2-.16-3.06a.73.73,0,0,0-1.45,0"/><path class="cls-2" d="M101.2,6.88,101,7l-.24.2a1.36,1.36,0,0,0-.27.35A6,6,0,0,0,100,8.55q-.93,2.14-1.75,4.34c-.27.73-.52,1.48-.76,2.23-.06.18-.11.37-.17.55a4,4,0,0,0-.14.75,1.5,1.5,0,0,0,0,.37.85.85,0,0,0,.36.49.82.82,0,0,0,.83,0,1.53,1.53,0,0,0,.51-.59l.27-.52c.36-.67.7-1.34,1-2a.74.74,0,0,0-.26-1,.78.78,0,0,0-.24-.09v0c.39-1,.81-2.07,1.23-3.1.11-.27.23-.55.35-.82s.18-.42.28-.62h0a23.7,23.7,0,0,1,1.92,3.71c.37.89.72,1.79,1.11,2.67s.71,1.61,1.06,2.41c-.22.05-.45.08-.67.12-.5.07-1,.13-1.5.17l-1.8.1c-.55,0-1.09,0-1.64,0l-.9,0a8.15,8.15,0,0,0-1.21,0,.78.78,0,0,0-.51.21.74.74,0,0,0-.22.52.72.72,0,0,0,.22.51.69.69,0,0,0,.51.21,11.71,11.71,0,0,1,1.45,0q.6,0,1.2,0c.77,0,1.54-.06,2.3-.1s1.51-.13,2.26-.23c.22,0,.44-.06.65-.11s.3,0,.45-.09a1.41,1.41,0,0,0,.73-.41c.54-.59.06-1.39-.21-2-.36-.8-.71-1.59-1-2.39-.6-1.44-1.16-2.89-1.86-4.29-.17-.34-.36-.67-.55-1l-.3-.5a5,5,0,0,0-.39-.55A2.11,2.11,0,0,0,102,7a.92.92,0,0,0-.49-.13,1,1,0,0,0-.35.06m.47,1.71h0"/><path class="cls-2" d="M103.27,133.54l-1.47.86c-.44.27-.86.58-1.27.89-.76.59-1.49,1.2-2.2,1.84-1.53,1.39-3.09,2.73-4.66,4.07-.73.63-1.48,1.24-2.22,1.86L89.23,145,86.84,147c-.72.61-1.42,1.23-2.13,1.85-1.53,1.32-3.08,2.63-4.63,3.93-.8.67-1.6,1.34-2.39,2l-1,.83c-.4.36-.81.7-1.2,1.06-.79.73-1.57,1.45-2.34,2.18s-1.45,1.37-2.17,2.06c-1.43,1.35-2.87,2.68-4.35,4-.8.69-1.59,1.37-2.37,2.06l-2.09,1.89L59.74,171c-.72.62-1.45,1.23-2.16,1.86-1.46,1.29-2.92,2.59-4.45,3.81s-3.19,2.54-4.74,3.87c-3.09,2.66-6.08,5.44-9.13,8.14-.68.6-1.37,1.2-2,1.81s-1.55,1.41-2.32,2.13-1.46,1.34-2.19,2l-1.15,1.08-1.06.94c-.72.63-1.45,1.23-2.17,1.86s-1.5,1.3-2.27,1.93l-2.45,2.06c-.75.64-1.49,1.28-2.26,1.9l-.43.33c-.61.46-1.22.92-1.86,1.33l-.94.61c-.39.26-.76.53-1.12.82s-.57.44-.84.67-.6.52-.9.78c-.57.52-1.14,1-1.74,1.51l-.71.55a9.71,9.71,0,0,1-.83.6.75.75,0,0,0-.56.71.73.73,0,0,0,.21.52.78.78,0,0,0,.51.21,1.17,1.17,0,0,0,.71-.28l.36-.26.68-.52c.53-.4,1-.81,1.56-1.25l1.3-1.18c.44-.39.9-.74,1.36-1.1.75-.56,1.57-1,2.34-1.58s1.61-1.19,2.39-1.82,1.55-1.32,2.33-2l2.14-1.79,2.28-2c.78-.66,1.56-1.32,2.32-2s1.56-1.43,2.33-2.15c.36-.34.73-.67,1.1-1l1-1c1.47-1.38,3-2.7,4.49-4s3-2.71,4.53-4.07,3-2.67,4.5-4c.73-.62,1.47-1.21,2.21-1.81s1.49-1.17,2.21-1.78,1.71-1.41,2.55-2.14,1.46-1.28,2.19-1.93,1.53-1.31,2.3-2,1.36-1.2,2-1.81l2.51-2.25c.66-.59,1.34-1.16,2-1.74l1.29-1.13c.42-.37.83-.76,1.25-1.14.72-.66,1.43-1.35,2.14-2l2.18-2.06c.66-.62,1.32-1.24,2-1.84l2.52-2.19,2-1.68c1.55-1.3,3.1-2.6,4.62-3.93s3-2.62,4.58-3.94L93,143.62c.69-.58,1.38-1.15,2.06-1.74l2.25-1.94c.37-.33.76-.65,1.13-1s.72-.66,1.09-1l1.09-.94c.31-.26.63-.51,1-.76h0l.6-.42c.17-.12.36-.22.54-.34.41-.25.84-.49,1.26-.73a.73.73,0,0,0,.26-1,.72.72,0,0,0-.63-.35.77.77,0,0,0-.36.09"/><path class="cls-2" d="M9.24,208.18a.83.83,0,0,0-.34.44c-.11.28-.23.56-.35.84a.7.7,0,0,0-.31.18.75.75,0,0,0-.21.51.89.89,0,0,0,.08.35c-.23.53-.47,1.07-.73,1.6-.35.7-.7,1.41-1.1,2.08s-.84,1.38-1.29,2c-.21.33-.43.66-.65,1-.08.13-.17.26-.25.4a4.31,4.31,0,0,0-.5,1,1.08,1.08,0,0,0,0,.71,1,1,0,0,0,.22.38,2.17,2.17,0,0,0,.3.23,1.58,1.58,0,0,0,.38.15,3.11,3.11,0,0,0,.44.08,5.75,5.75,0,0,0,.83,0c.42,0,.84-.07,1.26-.13.78-.11,1.55-.27,2.32-.44,1.49-.32,3-.62,4.46-1,.76-.21,1.52-.41,2.27-.66a9.68,9.68,0,0,0,1.27-.47,3.31,3.31,0,0,0,1.55-1.1,1.33,1.33,0,0,0,.16-.34,2.08,2.08,0,0,0,.06-.36,1.29,1.29,0,0,0-.2-.69,2.73,2.73,0,0,0-.48-.54,4.48,4.48,0,0,0-.73-.57c-.34-.22-.69-.42-1-.62l-1.08-.61c-.32-.18-.66-.33-1-.48-.93-.43-1.87-.82-2.82-1.21h0l0,0-.13,0-.07,0h0l-.14-.07-.17-.07a11.11,11.11,0,0,1-1.35-.64L10.3,209a.69.69,0,0,0-.07-.56.74.74,0,0,0-.44-.33.58.58,0,0,0-.19,0,.74.74,0,0,0-.36.09m-3.57,9.66.6-.91c.44-.68.87-1.35,1.28-2.05.21-.34.39-.7.57-1s.37-.72.54-1.08.44-.9.64-1.36l.35.18c.34.17.69.31,1,.46h0a.94.94,0,0,0,.15.06l.09,0h0a.44.44,0,0,0,.16.06l.08,0,.1,0,.51.21.91.39,1.12.49c.35.16.71.32,1,.51l1.14.64c.41.24.83.48,1.22.76a4.61,4.61,0,0,1,.4.37l-.1.09a5.6,5.6,0,0,1-.84.44c-.68.27-1.38.48-2.08.68s-1.5.42-2.25.6L9.93,218c-.72.15-1.43.32-2.15.45-.39.08-.77.14-1.16.2a9.42,9.42,0,0,1-1.5.07,10,10,0,0,1,.55-.88m12.08-2.37,0,.05,0-.05m-.1.13v0h0v0m0,0h0M10.7,212h0"/><path class="cls-2" d="M250.69,132c-.45.11-.91.2-1.36.27l-2.08.23-2.3.22c-1.54.17-3.08.29-4.62.37-.73,0-1.46.08-2.19.09s-1.61,0-2.41,0h-4.8c-6.43,0-12.85,0-19.27,0-1.56,0-3.12,0-4.68-.05l-2.84-.06c-.78,0-1.57-.05-2.35-.08-1.45-.05-2.89-.13-4.34-.19l-5.33-.23-4.57-.19c-1.58-.06-3.16-.13-4.74-.17l-5.31-.15c-1.56,0-3.12,0-4.68,0s-2.88,0-4.32,0h-5.18l-10,0q-4.74,0-9.47.18c-.85,0-1.69.06-2.53.07l-2.74,0-4.89.08c-.77,0-1.53,0-2.3.06l-2,.08-5.42.2c-1.47.05-2.94.11-4.42.12l-4.73,0c-2,0-3.92,0-5.88,0l-2.78,0-1.59.06-.55,0a3,3,0,0,0-.67.12.81.81,0,0,0-.46.39.71.71,0,0,0,0,.73,1.21,1.21,0,0,0,.58.49c.2.09.4.18.6.25l1.23.41a.73.73,0,0,0,.89-.51.74.74,0,0,0-.06-.53h.13l2.46,0,4.48,0h1.53c1.08,0,2.16,0,3.24,0,.85,0,1.71,0,2.56,0l2.83-.09q2.19-.06,4.38-.15c1.8-.08,3.59-.14,5.39-.2,1.43,0,2.86-.06,4.3-.08s3.14,0,4.71-.08c1.76-.06,3.52-.11,5.28-.14l5.24-.09c3,0,6,0,9,0h10.46c1.5,0,3,0,4.48,0,.89,0,1.78,0,2.66.07l1.85.05,5.36.18L191,134c3.27.14,6.53.28,9.8.44,1.61.07,3.22.11,4.83.14s3,.06,4.54.07q5,0,10,0h16.69c.8,0,1.61,0,2.41-.06s1.88-.09,2.82-.16,2-.17,3-.28,1.92-.18,2.87-.29a23.1,23.1,0,0,0,3-.46.72.72,0,0,0-.2-1.42l-.18,0"/><path class="cls-2" d="M248.6,129.3a.72.72,0,0,0,.5.89c.81.19,1.6.38,2.4.61a20.28,20.28,0,0,1,2,.65,6.59,6.59,0,0,1,.85.51,3.42,3.42,0,0,1,.43.42,3.38,3.38,0,0,1,.24.41,1.6,1.6,0,0,1,0,.21,2.54,2.54,0,0,1,0,.39,3.17,3.17,0,0,1-.12.44c-.06.1-.12.2-.19.3a11.2,11.2,0,0,1-1.79,1.65c-.34.25-.68.49-1,.72a8.79,8.79,0,0,1-1,.53,10.64,10.64,0,0,1-1.43.43h-.1l-.06-.12a8.83,8.83,0,0,1-.33-1c-.08-.35-.13-.7-.19-1.05,0-.19,0-.38-.05-.58a7.69,7.69,0,0,1,0-1,.72.72,0,0,0-.72-.72.73.73,0,0,0-.72.72,8.81,8.81,0,0,0,0,1.36c0,.46.13.91.21,1.36a6.3,6.3,0,0,0,.3,1.05c0,.13.09.25.14.38a3.78,3.78,0,0,0,.17.35,2.1,2.1,0,0,0,.22.3l.08.06a.73.73,0,0,0,.23.16,1.55,1.55,0,0,0,.36.13,2.13,2.13,0,0,0,1-.05,8.74,8.74,0,0,0,2.37-.91,13.16,13.16,0,0,0,2-1.41,10.54,10.54,0,0,0,.8-.7l.37-.37a5.69,5.69,0,0,0,.49-.61,2.61,2.61,0,0,0,.34-.69,3.07,3.07,0,0,0,.12-1.38,2.67,2.67,0,0,0-.62-1.3,4,4,0,0,0-.85-.79,5.53,5.53,0,0,0-1-.56,20.69,20.69,0,0,0-2.06-.68c-.82-.23-1.64-.44-2.46-.62a.55.55,0,0,0-.18,0,.72.72,0,0,0-.71.52m4.32,6.51-.09.08.09-.08m-3.67,1.61,0,0,0,0m.1,0,0,0h0a.08.08,0,0,1,0,0m.07.09.06,0-.06,0h0"/><path class="cls-2" d="M168.48,64.83a20,20,0,0,0-1.75,1.82,6.65,6.65,0,0,0-.61.86,6.77,6.77,0,0,0-.62,1.56,10,10,0,0,0-.35,2,5.29,5.29,0,0,0,0,.8,8.79,8.79,0,0,0,.15.87c0,.2.09.39.13.58s.13.4.2.6l0,.17a4.19,4.19,0,0,0,.83,1.43,6.09,6.09,0,0,0,1.06,1c.2.16.4.33.61.48s.49.32.75.47a.73.73,0,0,0,1-.26.69.69,0,0,0,.07-.15l.72.11a7.22,7.22,0,0,0,1.54.06,5.82,5.82,0,0,0,2.49-.85,8,8,0,0,0,1-.7c.29-.24.58-.49.85-.76a13.06,13.06,0,0,0,1.58-1.9c.09-.14.17-.28.25-.43a6.21,6.21,0,0,0,.28-.66,5.73,5.73,0,0,0,.31-1.69,4.89,4.89,0,0,0-.41-2.21,9.84,9.84,0,0,1-2.51-1.81l-.67-.87a5.83,5.83,0,0,0-.7-.25,10.5,10.5,0,0,0-1.67-.33,5.86,5.86,0,0,0-1.67.13,6.36,6.36,0,0,0-1.57.6l-.25.14a.74.74,0,0,0-.12-.87.74.74,0,0,0-1,0m2.52,11a9.52,9.52,0,0,1-2-.48,3.24,3.24,0,0,1-1.53-1.15,4.36,4.36,0,0,1-.35-.59s0,0,0,0-.05-.24-.07-.36a6.75,6.75,0,0,1,0-1.49,4.35,4.35,0,0,1,.25-.94c.22-.46.49-.9.75-1.33.11-.18.23-.35.35-.51s.29-.43.44-.63a6.3,6.3,0,0,1,1-1,6.13,6.13,0,0,1,1.2-.67,5.62,5.62,0,0,1,1.15-.33,5.06,5.06,0,0,1,1.1,0,8.94,8.94,0,0,1,1.62.41,8.77,8.77,0,0,1,1.5.9,5.66,5.66,0,0,1,.79.76,4.41,4.41,0,0,1,.25.43,4.36,4.36,0,0,1,.2.79,4.33,4.33,0,0,1-.31,2.2c-.09.17-.18.34-.28.51a3.63,3.63,0,0,1-.33.47,12.32,12.32,0,0,1-1.89,1.93,9.13,9.13,0,0,1-1.44.86,5.81,5.81,0,0,1-1,.28l-.49,0c-.28,0-.57,0-.86,0"/><path class="cls-3" d="M172.56,69.86a1.87,1.87,0,0,0-.29.2h-.07a1.43,1.43,0,0,0-.65.27,7.32,7.32,0,0,0-1.06.87,7.22,7.22,0,0,0-.9,1c-.27.36-.75,1-.43,1.4a.27.27,0,0,0,.27-.06,3.59,3.59,0,0,0,.74-.61.37.37,0,0,0,0,.21c.06.1.17.09.27.06a1.5,1.5,0,0,0,.48-.3,4.74,4.74,0,0,0,.8-.75,4,4,0,0,0,.64-.93,1.75,1.75,0,0,0,.21-.62.53.53,0,0,0,0-.25.18.18,0,0,0,.05-.07,1.07,1.07,0,0,0,.22-.39c0-.08,0-.11-.07-.11a.5.5,0,0,0-.2.08m-1.73,1.63v0s0,0,0,0m1.12,0h0m-.06,0v0h0m-1.4.31-.06,0,.06,0"/><path class="cls-3" d="M171.56,66.45a6.32,6.32,0,0,0-1.1.48,9.23,9.23,0,0,0-2,1.39,8.69,8.69,0,0,0-1.8,2.21,2.83,2.83,0,0,0-.46,1.84,2.07,2.07,0,0,0,.32.8,1.94,1.94,0,0,0,.62.55l.39.27.2.22a1.62,1.62,0,0,0,.43.31,3,3,0,0,0,.08.52,2.77,2.77,0,0,0,.52,1,1.53,1.53,0,0,0,1.07.47,3.37,3.37,0,0,0,2-.55,3.74,3.74,0,0,0,.88.07,2.68,2.68,0,0,0,1.12-.42,7.15,7.15,0,0,0,2.06-1.89,5.64,5.64,0,0,0,.56-.95,4.76,4.76,0,0,0,.42-1.22v-.06a4.4,4.4,0,0,0,.24-.88,3.15,3.15,0,0,0-.08-1.06,2.68,2.68,0,0,0-1.38-1.84,1.72,1.72,0,0,0-.75-.17l-.1-.06a.56.56,0,0,0-.15-.1,2.46,2.46,0,0,0-1.07-.67,2.11,2.11,0,0,0-1.07-.36h-.18a2.85,2.85,0,0,0-.82.11m-2.95,2.74-.09.1.09-.1m.06.3,0,.05a4.34,4.34,0,0,0-.59,1.4l-.06-.22a1.91,1.91,0,0,1,.1-.71l.18-.33.4-.19m1.28.27-.22.38-.06.07c0-.1,0-.21,0-.31l.26-.14m5.26,2.81c0,.13,0,.26,0,.4l-.05.09-.29.07a1.27,1.27,0,0,1,.13-.19c.08-.12.16-.24.23-.37m-.08.51Zm-.22.36-.07.08.07-.08m-.07.64,0,.07-.1,0,.14-.11"/><path class="cls-2" d="M165.51,75.55a.7.7,0,0,0-.31.37c-.35.26-.7.5-1,.77a2.52,2.52,0,0,0-.41.39c-.15.16-.29.32-.43.49-.28.33-.57.65-.88,1a8.62,8.62,0,0,1-.86.72l0,0c-1.26.94-2.56,1.84-3.76,2.86a7.37,7.37,0,0,0-.78.8l-.71.75c-.53.54-1.09,1-1.63,1.57s-1.1,1.12-1.61,1.7c-.25.28-.48.57-.71.85s-.49.57-.75.84c-.52.56-1.08,1.09-1.64,1.61s-1.06,1.08-1.58,1.63c-.26.27-.54.52-.8.79l-.78.78c-.54.53-1.07,1-1.62,1.56s-1.2,1.11-1.77,1.68L141.9,98.2q-1.65,1.59-3.34,3.14c-.57.52-1.15,1-1.69,1.58s-1.09,1.15-1.66,1.7-1.15,1-1.74,1.5-1.2,1-1.8,1.46c-1.22,1-2.38,2.09-3.51,3.21s-2.18,2.16-3.22,3.29-2.1,2.31-3.2,3.42a46.37,46.37,0,0,1-3.52,3.2c-1.23,1-2.48,2-3.66,3.08-.56.51-1.1,1-1.64,1.55L111.2,127c-.55.52-1.1,1-1.64,1.54-.28.26-.56.54-.85.79s-.56.49-.83.75c-1.1,1-2.19,2-3.24,3.1a.72.72,0,0,0,1,1c1.13-1.14,2.29-2.25,3.48-3.31s2.28-2.11,3.41-3.17,2.24-2.16,3.39-3.2c.58-.52,1.19-1,1.79-1.51s1.19-1,1.78-1.47,1.18-1,1.76-1.52,1.15-1.1,1.71-1.66l1.61-1.71c.51-.56,1-1.13,1.53-1.68a76.13,76.13,0,0,1,6.81-6.51l1.83-1.49a20.67,20.67,0,0,0,1.72-1.53c.54-.54,1.06-1.11,1.62-1.65s1.15-1.08,1.73-1.61q1.69-1.55,3.33-3.15l1.62-1.59c.56-.55,1.14-1.07,1.71-1.61s1.11-1.07,1.66-1.61c.27-.25.52-.52.77-.77s.56-.55.83-.84l.79-.83c.26-.27.54-.52.81-.78.55-.51,1.08-1,1.58-1.58s.95-1.16,1.46-1.71S155.44,86.54,156,86s1.11-1.05,1.64-1.6a16.34,16.34,0,0,1,1.49-1.51l.34-.27-.15.12c.51-.4,1-.79,1.54-1.17s1.14-.83,1.69-1.25c.25-.19.5-.38.73-.59s.44-.44.66-.67.41-.47.61-.71a6,6,0,0,1,.61-.62l.57-.42.44-.32a1,1,0,0,0,.41-.55,2,2,0,0,0,0-.24.81.81,0,0,0-.12-.4.69.69,0,0,0-.62-.35.78.78,0,0,0-.37.09"/><path class="cls-2" d="M164.94,75.09a2.62,2.62,0,0,0-.39.15l-.19.09-.38.19c-.53.28-1.08.54-1.62.81-1.17.58-2.3,1.23-3.43,1.89a.72.72,0,0,0,.73,1.25c1-.56,1.93-1.12,2.93-1.63l1.38-.7c.3-.14.6-.3.9-.45,0,.12,0,.25.07.37a3.25,3.25,0,0,1,0,.54c0,.28-.1.55-.15.83s-.11.74-.15,1.11c-.07.62-.07,1.24-.14,1.87a7.21,7.21,0,0,1-.21.92c0,.12-.07.24-.11.36a1.07,1.07,0,0,0-.16-.14c-.26-.22-.53-.42-.81-.62-.49-.34-1-.67-1.51-1a13.4,13.4,0,0,0-1.42-.82,5.59,5.59,0,0,0-.89-.33c-.26-.07-.53-.11-.78-.19a.69.69,0,0,0-.32-.08.7.7,0,0,0-.51.22.72.72,0,0,0,0,1l.17.14a1.85,1.85,0,0,0,.33.12l.25,0,.41.11a3.65,3.65,0,0,1,.66.22,14,14,0,0,1,1.58.94c.54.35,1.09.7,1.61,1.08a3.72,3.72,0,0,1,.51.46,3.24,3.24,0,0,1,.2.36.88.88,0,0,0,.75.49c.5,0,.83-.47,1-.88a7.58,7.58,0,0,0,.53-1.54,8.47,8.47,0,0,0,.21-1.66c0-.48.06-1,.11-1.44s.15-.83.23-1.25a3.78,3.78,0,0,0,.05-.75c0-.17,0-.34-.06-.5l-.09-.51a1.77,1.77,0,0,0-.15-.68.89.89,0,0,0-.5-.43,1,1,0,0,0-.28,0,1.65,1.65,0,0,0-.38,0m-2.28,8.21,0,0,0,0m.05,0h0"/><path class="cls-2" d="M170.78,71.73a.72.72,0,0,0-.34.43c-.12.7-.24,1.4-.34,2.1a.75.75,0,0,0,.07.55.7.7,0,0,0,.43.34.78.78,0,0,0,.56-.07.7.7,0,0,0,.33-.44c.1-.7.23-1.4.35-2.09a.78.78,0,0,0-.07-.56.74.74,0,0,0-.44-.33.58.58,0,0,0-.19,0,.65.65,0,0,0-.36.1"/><path class="cls-2" d="M170.22,79.72a20.52,20.52,0,0,1-.12,2.07.69.69,0,0,0,.21.52.72.72,0,0,0,1,0,.84.84,0,0,0,.22-.52,20.52,20.52,0,0,0,.12-2.07A.73.73,0,0,0,171,79a.74.74,0,0,0-.73.73"/><path class="cls-2" d="M170.25,88.87c-.05.2-.11.39-.16.59a.73.73,0,0,0,1.4.38l.15-.58a.72.72,0,0,0-.5-.89.63.63,0,0,0-.19,0,.72.72,0,0,0-.7.53"/><path class="cls-2" d="M170.25,95.4c-.16.74-.3,1.49-.41,2.23-.06.38-.11.75-.14,1.12a5.94,5.94,0,0,0,.05,1.46.73.73,0,0,0,.9.5.75.75,0,0,0,.43-.33.78.78,0,0,0,.07-.56s0,0,0-.08a8.2,8.2,0,0,1,.08-1.64c.12-.78.26-1.54.42-2.31a.78.78,0,0,0-.07-.56.72.72,0,0,0-.43-.33.57.57,0,0,0-.18,0,.71.71,0,0,0-.71.53"/><path class="cls-2" d="M170.78,104.08a.75.75,0,0,0-.34.44c-.29.74-.57,1.49-.86,2.25a8.6,8.6,0,0,0-.31,1,8.44,8.44,0,0,0-.2,1.24.69.69,0,0,0,.21.51.72.72,0,0,0,1,0,.82.82,0,0,0,.22-.51,1.5,1.5,0,0,1,0-.22A9.42,9.42,0,0,1,171,107c.26-.7.53-1.4.8-2.09a.69.69,0,0,0-.07-.56.74.74,0,0,0-.44-.33.58.58,0,0,0-.19,0,.75.75,0,0,0-.36.1"/><path class="cls-2" d="M169.69,113.35a27.24,27.24,0,0,0-.81,3.23.78.78,0,0,0,.08.56.72.72,0,0,0,.43.33.73.73,0,0,0,.56-.07.75.75,0,0,0,.33-.43,26,26,0,0,1,.81-3.24.73.73,0,0,0-.51-.89.58.58,0,0,0-.19,0,.74.74,0,0,0-.7.54"/><path class="cls-2" d="M169.37,122.69c-.17.77-.35,1.55-.48,2.33a.78.78,0,0,0,.08.56.72.72,0,0,0,.43.33.69.69,0,0,0,.56-.07.68.68,0,0,0,.33-.43c.13-.79.31-1.56.48-2.34a.73.73,0,0,0-.5-.89.62.62,0,0,0-.19,0,.73.73,0,0,0-.71.53"/><path class="cls-2" d="M169.77,133.1a33.22,33.22,0,0,0-.75,4.64.73.73,0,0,0,.72.73.74.74,0,0,0,.73-.73c0-.37.06-.75.1-1.12.16-1.05.38-2.09.59-3.13a.73.73,0,0,0-.5-.9l-.18,0a.71.71,0,0,0-.71.53"/><path class="cls-2" d="M169.47,143.2a.78.78,0,0,0-.21.51c-.11,1.2-.21,2.4-.24,3.61a.73.73,0,1,0,1.45,0c0-1.21.13-2.41.24-3.61a.68.68,0,0,0-.21-.51.71.71,0,0,0-1,0"/><path class="cls-2" d="M169.19,154.48a.72.72,0,1,0,.72-.73.72.72,0,0,0-.72.73"/><path class="cls-2" d="M168.83,162.4c-.05,1-.07,2.08-.16,3.12a.73.73,0,0,0,1.24.51.8.8,0,0,0,.21-.51c.09-1,.11-2.08.15-3.12a.72.72,0,0,0-1.44,0"/><path class="cls-2" d="M169.5,170.61a.71.71,0,0,0-.33.43c-.07.4-.13.79-.19,1.19a.75.75,0,0,0,.07.55.71.71,0,0,0,1,.26.67.67,0,0,0,.34-.43c.06-.39.12-.79.19-1.18a.78.78,0,0,0-.08-.56.72.72,0,0,0-.43-.33.63.63,0,0,0-.19,0,.69.69,0,0,0-.37.1"/><path class="cls-2" d="M168,179.35c-.18.68-.35,1.35-.49,2a.78.78,0,0,0,.07.56.75.75,0,0,0,.43.33.74.74,0,0,0,.9-.5c.14-.69.31-1.36.49-2a.74.74,0,0,0-.51-.89.58.58,0,0,0-.19,0,.74.74,0,0,0-.7.53"/><path class="cls-2" d="M167.08,187.11a.73.73,0,1,0,.73-.72.73.73,0,0,0-.73.72"/><path class="cls-2" d="M105.78,136.86a.75.75,0,0,0-.21.51.83.83,0,0,0,.21.52c.48.6,1,1.2,1.43,1.81a.72.72,0,0,0,.52.21.72.72,0,0,0,.72-.72.83.83,0,0,0-.21-.52c-.48-.6-1-1.2-1.43-1.81a.72.72,0,0,0-.52-.21.75.75,0,0,0-.51.21"/><path class="cls-2" d="M111.6,141.41a.78.78,0,0,0-.21.52.8.8,0,0,0,.21.51c.54.68,1.07,1.37,1.61,2.06a.69.69,0,0,0,.51.21.72.72,0,0,0,.72-.73.75.75,0,0,0-.21-.51l-1.6-2.06a.69.69,0,0,0-.51-.21.76.76,0,0,0-.52.21"/><path class="cls-2" d="M116.7,146a.73.73,0,1,0,.72-.73.73.73,0,0,0-.72.73"/><path class="cls-2" d="M120.68,149.36a.73.73,0,0,0-.08.56.77.77,0,0,0,.34.43l.91.64a5.87,5.87,0,0,1,.46.41c.19.2.37.42.55.64a7.63,7.63,0,0,0,1.43,1.29.72.72,0,0,0,1.06-.82.78.78,0,0,0-.33-.43l-.15-.11a5.86,5.86,0,0,1-.69-.63c-.24-.26-.46-.54-.7-.81a9.66,9.66,0,0,0-1.81-1.43.64.64,0,0,0-.35-.1.74.74,0,0,0-.64.36"/><path class="cls-2" d="M130.06,156.94a.75.75,0,0,0,0,1c.56.53,1.13,1.06,1.66,1.62a.72.72,0,0,0,1-1c-.54-.56-1.1-1.09-1.66-1.63a.79.79,0,0,0-.52-.2.73.73,0,0,0-.51.2"/><path class="cls-2" d="M137.51,165a.74.74,0,0,0,.26,1,32,32,0,0,1,2.78,1.78c.39.33.77.66,1.13,1,.19.2.38.41.56.63s.49.52.74.77a.75.75,0,0,0,1,0,.73.73,0,0,0,0-1c-.25-.25-.5-.5-.73-.76s-.37-.43-.57-.64a13.29,13.29,0,0,0-1.18-1.06,12.93,12.93,0,0,0-1.42-1c-.53-.34-1.07-.66-1.6-1a.7.7,0,0,0-.36-.1.75.75,0,0,0-.64.36"/><path class="cls-2" d="M148.05,173a.74.74,0,0,0,0,1c.41.41.82.82,1.25,1.22s1,.81,1.45,1.2a.79.79,0,0,0,.52.22.72.72,0,0,0,.51-.22.72.72,0,0,0,0-1c-.47-.38-1-.75-1.41-1.17s-.87-.83-1.3-1.26a.72.72,0,0,0-1,0"/><path class="cls-2" d="M159.65,184a.75.75,0,0,0,0,1c.41.42.82.84,1.26,1.23s.92.83,1.4,1.23a.72.72,0,0,0,1-1l-1.4-1.22c-.43-.4-.84-.82-1.25-1.24a.71.71,0,0,0-.51-.21.73.73,0,0,0-.52.21"/><path class="cls-2" d="M143.1,171.17c-.23.16-.47.3-.71.45l-.84.56-.84.62c-.27.21-.56.41-.85.6a21.28,21.28,0,0,1-1.81,1.15c-.6.33-1.21.61-1.84.88-1.7.71-3.47,1.25-5.23,1.82-.88.28-1.77.54-2.66.8s-1.88.56-2.84.79l-2.81.64-2.68.59c-1.93.44-3.86.85-5.78,1.27-1.37.3-2.74.63-4.12.86s-2.87.5-4.31.7c-1.91.24-3.81.44-5.73.57s-4,.2-5.92.33l-1.37.09-1.33.06-3.07.13H85.58l-3,0c-1.91,0-3.83,0-5.74-.14l-3-.18c-.92-.05-1.84-.05-2.77-.11s-1.68-.11-2.51-.21-1.64-.2-2.46-.31-1.38-.22-2.06-.36-1.53-.31-2.29-.51c-1.32-.36-2.65-.72-3.93-1.21a8.24,8.24,0,0,1-1-.53c-.33-.21-.64-.44-.95-.67l-1.22-1.07a.72.72,0,1,0-1,1l1.23,1.08a6.55,6.55,0,0,0,.59.45l.69.47a10.18,10.18,0,0,0,2.56,1.09c.87.27,1.76.52,2.64.75s1.91.45,2.88.64,2,.31,3,.45,1.93.23,2.89.3,1.86.1,2.8.14,2,.1,3,.17c1.92.12,3.85.15,5.78.17s3.87,0,5.81,0c1,0,2-.05,3-.09s1.93-.08,2.89-.14l3.06-.19L99.4,185c1-.06,1.95-.13,2.93-.22s1.8-.18,2.69-.29,2-.27,3-.44,1.86-.3,2.79-.48,1.88-.37,2.82-.58l2.91-.64c1.9-.4,3.8-.84,5.7-1.26.93-.2,1.85-.42,2.78-.63s1.79-.42,2.68-.68c1.85-.54,3.69-1.1,5.53-1.7.87-.29,1.74-.58,2.6-.91.46-.18.92-.37,1.37-.57s.88-.4,1.3-.63a21.45,21.45,0,0,0,2.37-1.49l1.1-.8c.36-.27.74-.52,1.12-.77l.57-.35.13-.09a2.17,2.17,0,0,0,.3-.23,1.06,1.06,0,0,0,.39-.78.74.74,0,0,0-.73-.72.76.76,0,0,0-.68.47m0,.05h0m-6.92,4.23-.07,0,.07,0m-30.24,7.43-.14,0,.14,0"/><path class="cls-2" d="M141.54,169.62c-.48,0-1,.09-1.46.15s-1,.14-1.48.24l-1.43.3-.69.17a2.56,2.56,0,0,0-.86.28.73.73,0,0,0-.36.63.86.86,0,0,0,.05.27h-.15l-.95.08-.48.05c-.26,0-.53,0-.79.1a.72.72,0,0,0-.5.51v0a.75.75,0,0,0,.34.82l.22.1.18.09c.23.21.42.46.64.67a9.4,9.4,0,0,0,.75.68l.55.43a.75.75,0,0,0,0,.21.81.81,0,0,0,.34.43,22.15,22.15,0,0,0,2.21,1.31l1.1.61.54.3c.2.1.41.19.6.31a.79.79,0,0,0,.34.42.8.8,0,0,0,.41.1l.09.1c.07.11.15.21.22.31a1.23,1.23,0,0,0,.63.5.87.87,0,0,0,.83-.21,3.43,3.43,0,0,0,.62-1.1,8.17,8.17,0,0,1,.48-.93c.19-.32.39-.63.58-1a6.8,6.8,0,0,0,.84-2.32,15.49,15.49,0,0,0,.12-2.36,3.6,3.6,0,0,0-.11-1,1.67,1.67,0,0,0-.37-.63,2.38,2.38,0,0,0-.83-.48,3.76,3.76,0,0,0-.66-.17,8,8,0,0,0-.84-.08h-.13l-.6,0m1.18,1.46h0l-.9.07-1.64.13-.1,0-.16,0H140a12.33,12.33,0,0,1,2.71-.15m.86.81a.13.13,0,0,1,0,.06v-.06m-8,1.2q1.2-.12,2.4-.21c.8-.06,1.6-.1,2.4-.17l2.28-.17.56,0-.24.26a9,9,0,0,0-.61.77,6.07,6.07,0,0,0-.44.68c-.14.23-.26.45-.38.69-.25.5-.51,1-.79,1.47l-.24.41a11.94,11.94,0,0,0-1.31-.82c-.58-.33-1.16-.64-1.74-1a19.39,19.39,0,0,1-1.66-1.06,10.66,10.66,0,0,1-.89-.77l0,0,.68,0m6.33,4.18c.23-.37.44-.75.64-1.14s.36-.73.57-1.09l.33-.53s0,0,0,.06c-.07.24-.15.47-.24.7a14.73,14.73,0,0,1-.75,1.34c-.15.24-.29.47-.42.72s-.19.4-.28.61c0-.06-.09-.11-.13-.16s.19-.34.29-.51"/><g class="cls-4"><g class="cls-5"><path class="cls-6" d="M142,169.11c-.47.27-.9.64-1.36.95-.3.21-.62.42-.93.6-.79.46-1.57.9-2.36,1.34a31.33,31.33,0,0,1-4.8,2.43c-1.48.45-3,.82-4.45,1.29-1.68.53-3.33,1.17-5,1.73-1.11.34-2.22.67-3.31,1.06s-1.9.81-2.87,1.16c-1.22.37-2.45.71-3.67,1.09l.1,0a14.14,14.14,0,0,1-2.13.54c-.82.13-1.65.2-2.48.3a35.59,35.59,0,0,0-4.68.84,28.59,28.59,0,0,1-5,.68c-1.64.13-3.29.2-4.93.32s-3.33.21-5,.38-3.36.33-5.05.44c-3.4.23-6.81.32-10.22.3-1.68,0-3.37,0-5-.17-.89-.07-1.78-.17-2.66-.31a16.78,16.78,0,0,1-2.32-.59l-1.93-.62a12,12,0,0,1-2.73-1.24c-.84-.53-1.59-1.22-2.38-1.83s-1.73-1.21-2.61-1.8A20.4,20.4,0,0,1,52,176.38c-.25-.27-.5-.54-.75-.79L51,175.4a1.28,1.28,0,0,0-.32-.31c-.76-.4-1.25.32-1.49.95a4.66,4.66,0,0,0-.26,1.57v.17a1.93,1.93,0,0,0-.51.83,4.81,4.81,0,0,0-.19,2.41,3.35,3.35,0,0,0,.48,1.3c.23.32.79.78,1.2.38a12.17,12.17,0,0,0,1.23-1.26,4.23,4.23,0,0,0,.4.34c.48.37,1,.69,1.48,1,1,.7,2.1,1.37,3.08,2.15a18.62,18.62,0,0,0,3,2.16,24.75,24.75,0,0,0,3.73,1.34c.81.26,1.61.52,2.42.73a15.07,15.07,0,0,0,2.39.39c1.67.16,3.34.24,5,.27s3.36,0,5,0,3.45-.12,5.18-.2c3.31-.16,6.6-.59,9.91-.8,1.67-.11,3.35-.24,5-.33a45.21,45.21,0,0,0,4.93-.49c.89-.15,1.75-.42,2.64-.58s2-.37,3-.5,1.86-.19,2.78-.33a16.87,16.87,0,0,0,2.62-.7c1.4-.43,2.83-.76,4.2-1.27.61-.24,1.21-.52,1.82-.77s1.2-.45,1.81-.65c1-.33,2.1-.65,3.14-1s2-.73,3.07-1.09,2.35-.68,3.54-1c.78-.23,1.57-.45,2.33-.73a17.73,17.73,0,0,0,1.92-.9c1.22-.66,2.43-1.33,3.63-2,.54-.32,1.1-.62,1.63-1l.78-.52c.38-.26.73-.57,1.13-.8a1.92,1.92,0,0,0,.66-1,4.81,4.81,0,0,0,.19-2.41c-.11-.6-.5-1.81-1.24-1.81a.91.91,0,0,0-.45.13"/></g></g><path class="cls-2" d="M144.86,167.91a.73.73,0,1,0,.72-.73.73.73,0,0,0-.72.73"/><path class="cls-2" d="M141.72,104.28a.72.72,0,0,0-.26,1,1.72,1.72,0,0,0,.46.51,3.14,3.14,0,0,0,.31.18l.39.2.4.2c.13.07.25.15.37.23l0,0,.09.11c.23.31.42.64.62,1l.6,1c.21.34.42.68.62,1a8.1,8.1,0,0,1,.47.93c.26.71.47,1.44.69,2.16s.49,1.44.77,2.15c.14.33.28.66.41,1s.25.71.36,1.08c.22.73.39,1.47.55,2.22s.41,1.79.62,2.68c.11.47.23.94.33,1.41s.16.82.22,1.23c.17,1.55.2,3.11.27,4.66,0,.73.06,1.47,0,2.2s0,1.53,0,2.3-.06,1.62-.11,2.43-.11,1.5-.18,2.24-.12,1.55-.2,2.32-.15,1.52-.25,2.27-.16,1.32-.25,2-.23,1.51-.35,2.26-.26,1.45-.37,2.18c-.25,1.53-.48,3.06-.76,4.59-.15.79-.31,1.58-.46,2.37l-.39,2.23c-.27,1.5-.59,3-.9,4.5-.19.93-.37,1.85-.57,2.78s-.43,1.95-.65,2.93a.75.75,0,0,0,.51.89.73.73,0,0,0,.89-.51c.35-1.54.69-3.09,1-4.64s.61-3,.91-4.48.54-3.09.85-4.62.56-3.06.8-4.59.5-3,.73-4.5.45-3.21.63-4.82c.09-.74.13-1.49.19-2.23s.15-1.6.21-2.39c.13-1.52.18-3,.21-4.57,0-.8,0-1.59,0-2.38s-.07-1.51-.1-2.26-.06-1.58-.13-2.37A19.39,19.39,0,0,0,151,123c-.15-.74-.34-1.47-.52-2.21s-.33-1.45-.49-2.18-.36-1.5-.59-2.24-.51-1.39-.79-2.08a22.08,22.08,0,0,1-.73-2.12c-.11-.36-.21-.73-.33-1.09s-.3-.82-.47-1.22a12.9,12.9,0,0,0-1-1.85l-.53-.92q-.12-.22-.27-.45c-.1-.16-.2-.33-.31-.49s-.13-.18-.2-.26a3.65,3.65,0,0,0-.24-.31,1.72,1.72,0,0,0-.45-.34,3.3,3.3,0,0,0-.41-.23l-.43-.21a4.16,4.16,0,0,1-.42-.23l0,0a.74.74,0,0,0-.63-.36.65.65,0,0,0-.36.1m1.73,2.37,0,0,0,0"/><path class="cls-2" d="M143.53,102.45c-.79.1-1.58.25-2.37.38l-.16,0c-.66.07-1.32.12-2,.14a6.2,6.2,0,0,0-1,.07,1.25,1.25,0,0,0-.59.31,2.28,2.28,0,0,0-.29.33.54.54,0,0,1,0,.11,1.44,1.44,0,0,0-.15.7c0,.12,0,.24.05.35s.09.28.13.42.11.35.17.52c.1.33.19.66.3,1s.23.72.35,1.08c.24.78.5,1.55.74,2.33a.73.73,0,0,0,.62.52.75.75,0,0,0,.45.16.74.74,0,0,0,.51-.21l.76-.64.42-.32-.08.06.12-.09,0,0,0,0a2.75,2.75,0,0,0,.26-.22,3.17,3.17,0,0,0,.29-.35,3.64,3.64,0,0,1,.54-.5l.91-.61c.36-.25.7-.51,1-.78a8.25,8.25,0,0,0,1.86-1.87,2.24,2.24,0,0,0,.25-.6,1.7,1.7,0,0,0,0-.71,2,2,0,0,0-.73-1.19,2.15,2.15,0,0,0-.75-.39,2.39,2.39,0,0,0-.71-.1h-.11a6.11,6.11,0,0,0-.86.08m1.14,1.38.23.06.12.07a1,1,0,0,1,.15.14l.07.12,0,.09v.06l-.05.14a2.61,2.61,0,0,1-.17.28,11.38,11.38,0,0,1-1.7,1.55l-.65.47-.78.52a5.45,5.45,0,0,0-.78.66c-.18.19-.34.41-.54.59l0,0-.68.53c-.22-.68-.43-1.35-.65-2-.14-.44-.28-.88-.41-1.32-.05-.19-.12-.37-.18-.56s-.17-.49-.22-.73v0h0l.65,0c.24,0,.47,0,.7,0,.43,0,.85-.06,1.27-.12s.87-.13,1.3-.21l1.23-.19a4.63,4.63,0,0,1,1-.06m-6.17.51-.06.09a.47.47,0,0,1,.06-.09m-.1.15,0,.06,0-.06"/><g class="cls-4"><g class="cls-7"><path class="cls-6" d="M138.66,103.33a4.65,4.65,0,0,0-.25,1.57,3.85,3.85,0,0,0,.54,2.15,7,7,0,0,0,1.4,1.53c.39.29.8.53,1.16.85s.59.7.89,1a8.17,8.17,0,0,1,.94,1.25c.27.68.47,1.38.71,2.07a11.68,11.68,0,0,0,1.35,2.6,22.59,22.59,0,0,1,1.29,2.09c.34.63.69,1.24,1,1.86.38.85.64,1.76.94,2.65s.52,1.51.74,2.28a25,25,0,0,1,.41,2.73c.08.76.16,1.51.23,2.27.08,1.42.07,2.84,0,4.26s-.06,2.82-.15,4.23-.4,2.66-.62,4-.38,2.75-.65,4.11-.59,2.79-.92,4.18c-.15.66-.32,1.33-.44,2s-.21,1.21-.35,1.81c-.4,1.41-.8,2.8-1.13,4.22-.25,1.11-.5,2.22-.77,3.33-.19.71-.4,1.42-.61,2.13-.36,1.18-.67,2.38-1,3.58a5.91,5.91,0,0,0,0,1.68,2.5,2.5,0,0,0,.85,1.69.72.72,0,0,0,.84,0c.55-.34.7-1.13.84-1.69,0-.18.08-.36.13-.53.38-1.42.83-2.81,1.2-4.23.43-1.65.77-3.32,1.17-5,.19-.69.4-1.37.59-2.06.28-1,.5-2,.68-3,.3-1.6.71-3.19,1.08-4.78s.59-3.06.81-4.6.59-3.31.78-5c.21-1.88.25-3.77.29-5.66,0-1.61.05-3.22-.05-4.82-.07-1-.19-2-.28-3-.08-.79-.14-1.57-.26-2.35a29.85,29.85,0,0,0-1.42-5.18c-.25-.76-.5-1.53-.79-2.28a22.67,22.67,0,0,0-1.3-2.43c-.36-.63-.68-1.28-1.06-1.9s-.78-1.13-1.13-1.73a19.18,19.18,0,0,1-.7-2,8.22,8.22,0,0,0-1.49-2.8c-.6-.69-1.17-1.42-1.83-2.06-.46-.45-1-.75-1.52-1.17-.14-.17-.27-.36-.4-.54a1,1,0,0,0-.78-.51c-.58,0-.91.64-1.08,1.08"/></g></g><path class="cls-2" d="M95.43,193.06a.72.72,0,0,0-.33.43.69.69,0,0,0,.07.56c.52.68,1,1.38,1.51,2.08s.84,1.31,1.23,2c.79,1.34,1.64,2.64,2.44,4,.4.65.79,1.32,1.15,2s.69,1.34,1,2c.69,1.44,1.42,2.87,2.16,4.29s1.39,2.68,2,4.05c.34.7.67,1.4,1,2.07.17.3.32.6.46.91a8.81,8.81,0,0,0,.49,1,4.27,4.27,0,0,0,.3.44,2,2,0,0,0,.44.47.9.9,0,0,0,.59.2.78.78,0,0,0,.51-.21.71.71,0,0,0,0-1,.81.81,0,0,0-.31-.19l0,0a5.74,5.74,0,0,1-.55-.92c-.16-.33-.3-.67-.47-1l-.52-1c-.18-.35-.35-.71-.52-1.06-.33-.68-.65-1.36-1-2L106.09,210c-.34-.68-.69-1.35-1-2s-.69-1.34-1-2-.67-1.41-1-2.1-.73-1.36-1.13-2c-.84-1.4-1.71-2.78-2.56-4.17l-.52-.89c-.2-.34-.41-.67-.63-1-.44-.66-.91-1.31-1.38-1.95l-.36-.48A.8.8,0,0,0,96,193a.58.58,0,0,0-.19,0,.71.71,0,0,0-.37.1m14.76,25h0"/><path class="cls-2" d="M109.42,219.32a.72.72,0,0,0-.33.43.78.78,0,0,0,.07.56c.14.32.52.41.82.51l.45.13,1,.32a.73.73,0,0,0,.89-.51v0l2.31,0c1.55,0,3.1.14,4.65.3s3.34.34,5,.51c1.51.15,3,.26,4.53.42l.26,0,.39-1.15.09-.25-.69-.07c-1.51-.16-3-.28-4.53-.43-1.66-.16-3.32-.32-5-.5s-3.06-.27-4.59-.31l-2.55-.05-1.06,0-.63,0c-.18,0-.35,0-.53,0a1.19,1.19,0,0,0-.61.14"/><path class="cls-2" d="M149.79,221l-.69.28h0a9.55,9.55,0,0,1,0,1.85l.37,0,.67,0c.36,0,.74-.07,1.1-.12.79-.1,1.57-.22,2.36-.33l.63-.06,0,.08a14,14,0,0,1-1.15,1.89l-.6.88c-.45.64-.9,1.29-1.34,1.94s-.84,1.26-1.22,1.91a10.23,10.23,0,0,0-.59,1,1.35,1.35,0,0,0-.11.32,1,1,0,0,0,0,.46,1.19,1.19,0,0,0,.21.38,1.05,1.05,0,0,0,.29.23,1.29,1.29,0,0,0,.44.11,1.79,1.79,0,0,0,.33,0c.18,0,.38,0,.56-.07a12.24,12.24,0,0,0,1.2-.27l1.27-.31c.77-.18,1.54-.32,2.31-.44.33,0,.66-.07,1-.09a.73.73,0,0,0,0-1.45,19.76,19.76,0,0,0-3.42.52c-.8.17-1.59.41-2.39.57l.15-.25c.19-.32.39-.64.59-.95.43-.65.87-1.3,1.31-1.94l1.26-1.84a13.69,13.69,0,0,0,1.17-1.94,4.31,4.31,0,0,0,.27-.76,2.09,2.09,0,0,0,0-.43,1.16,1.16,0,0,0-.14-.47,1.19,1.19,0,0,0-.33-.34,1.43,1.43,0,0,0-.34-.14,2.59,2.59,0,0,0-.92-.06c-.46,0-.92.12-1.38.18l-1.14.16h.14l-.9.11s0-.08,0-.12a.73.73,0,0,0-.34-.43.77.77,0,0,0-.38-.1.38.38,0,0,0-.18,0m4.32,1.77s0,0,0,.05l0-.05M150.53,231v0"/><path class="cls-2" d="M160.89,220.47a.72.72,0,0,0-.43.33.78.78,0,0,0-.08.56c.1.58.18,1.16.26,1.74q.08.59.12,1.17c0,.43,0,.87,0,1.31a22,22,0,0,1-.17,2.43c-.08.58-.17,1.16-.3,1.73-.08.33-.17.65-.25,1a2.5,2.5,0,0,0-.07.26,1.59,1.59,0,0,0,0,.78,1.48,1.48,0,0,0,.1.27.92.92,0,0,0,.32.3.67.67,0,0,0,.44.09,1,1,0,0,0,.45-.14.73.73,0,0,0,.26-1,.44.44,0,0,0-.08-.11c.08-.27.16-.54.22-.81s.17-.77.24-1.16.13-.79.17-1.19.09-.78.11-1.16a20,20,0,0,0,0-2.45c-.05-.78-.15-1.57-.27-2.34-.06-.36-.11-.73-.17-1.09a.75.75,0,0,0-.33-.43.79.79,0,0,0-.37-.1.63.63,0,0,0-.19,0"/><path class="cls-2" d="M171.07,220.57c-.12.23-.24.46-.35.69-.24.5-.45,1-.66,1.54-.36.88-.68,1.77-1,2.65a10.28,10.28,0,0,1-.79,1.55,11,11,0,0,1-.31-1.26c-.07-.36-.13-.72-.2-1.07-.14-.76-.28-1.51-.47-2.26a2.36,2.36,0,0,0-.22-.63.79.79,0,0,0-.7-.37.64.64,0,0,0-.51.21l-.05,0a.8.8,0,0,0-.19.32c-.06.16-.11.32-.16.49-.11.35-.19.7-.29,1.06-.2.74-.41,1.47-.62,2.21s-.41,1.52-.62,2.27a.74.74,0,0,0,.51.89.72.72,0,0,0,.89-.5c.29-1.08.58-2.15.88-3.22,0-.13.07-.26.11-.38v.05c.14.75.26,1.51.46,2.26a3,3,0,0,0,.63,1.22,1.15,1.15,0,0,0,1.59.06,3,3,0,0,0,.42-.52,3.78,3.78,0,0,0,.26-.43c.1-.18.2-.36.29-.55.36-.76.68-1.54,1-2.32s.47-1.25.73-1.86c.12-.29.25-.57.38-.85l.19-.38a2,2,0,0,1,0,.24h0c0,.25.07.49.09.73l.06.62c0,.17,0,.35,0,.52,0,.63,0,1.27,0,1.91s0,1.34-.06,2-.07,1.22-.15,1.83a2,2,0,0,1-.05.24.67.67,0,0,0-.15.29.73.73,0,0,0,.5.89h0a.71.71,0,0,0,.71-.18l0-.06a.65.65,0,0,0,.17-.26,2.53,2.53,0,0,0,.12-.36,5.21,5.21,0,0,0,.08-.55,5,5,0,0,0,.06-.54c0-.4.07-.79.09-1.19,0-.74,0-1.48.06-2.22l0-1.3v-.45c0-.2,0-.4,0-.61,0-.43-.08-.85-.14-1.28a10.09,10.09,0,0,0-.17-1.08,3.34,3.34,0,0,0-.26-.71,1.33,1.33,0,0,0-.23-.3,1.11,1.11,0,0,0-.48-.25.71.71,0,0,0-.2,0c-.62,0-1,.69-1.3,1.17m.9,0,0,0,0,0"/><path class="cls-2" d="M182.39,221.18a.8.8,0,0,0-.51.21.74.74,0,0,0,0,1,.84.84,0,0,0,.24.16c0,.12.06.25.08.37a7.77,7.77,0,0,1-.06,1.6,22.89,22.89,0,0,1-1.22,4.54,8,8,0,0,1-.74,1.31,4.16,4.16,0,0,1-.46.48,7.28,7.28,0,0,1-.94.53,1.87,1.87,0,0,1-.4.13h-.07l-.12,0,0,0,0,0a2.33,2.33,0,0,1-.2-.34,7.4,7.4,0,0,1-.36-1.6c-.14-1.16-.23-2.32-.33-3.47,0-.57-.07-1.14-.12-1.7s-.14-1.33-.22-2a.73.73,0,0,0-1.24-.51.69.69,0,0,0-.21.51c.11.85.19,1.7.26,2.56s.12,1.59.19,2.38.13,1.53.23,2.29c0,.42.12.83.2,1.25a4,4,0,0,0,.55,1.37,2,2,0,0,0,.57.55,1.86,1.86,0,0,0,.9.24,1.81,1.81,0,0,0,.56-.08,5.18,5.18,0,0,0,.65-.26,5.45,5.45,0,0,0,.53-.29c.19-.12.38-.23.56-.37a5,5,0,0,0,.89-1,7.13,7.13,0,0,0,.63-1.15,14.24,14.24,0,0,0,.78-2.22l.28-1.06c.08-.3.13-.61.2-.91s.12-.66.16-1a9.88,9.88,0,0,0,.09-1.54,3.72,3.72,0,0,0-.25-1.19,1.17,1.17,0,0,0-.36-.54.8.8,0,0,0-.32-.19,1,1,0,0,0-.24,0h-.11m-.4,1.15,0,0,0,0m-3.8,9.19,0,0,0,0"/><path class="cls-2" d="M189.17,222.16a.67.67,0,0,0-.21.51c.13,1.46.23,2.91.28,4.37,0,.67,0,1.34,0,2a14,14,0,0,1-.09,1.83,2,2,0,0,0,0,.24.73.73,0,0,0,.07.56.72.72,0,0,0,.43.33.73.73,0,0,0,.56-.07.71.71,0,0,0,.33-.43c.08-.45.13-.89.17-1.33s0-.7,0-1c0-.66,0-1.32-.05-2s-.05-1.35-.09-2-.12-1.64-.19-2.47a.76.76,0,0,0-.22-.51.72.72,0,0,0-1,0"/><path class="cls-2" d="M184.36,222.44a.73.73,0,0,0,.72.72l4,.05a34.8,34.8,0,0,1,3.68.12,4.86,4.86,0,0,1,.55.11.73.73,0,0,0,.39-1.4,15.7,15.7,0,0,0-3.56-.27h-.66l-4.4-.06h0a.73.73,0,0,0-.71.73"/><path class="cls-2" d="M194.22,223.7c.05,1.26.1,2.52.13,3.78,0,.52,0,1,0,1.55,0,.3,0,.59,0,.88,0,.13,0,.26,0,.39l0,0a3.19,3.19,0,0,0-.5.66,5.42,5.42,0,0,0-.32.69c-.07.18-.13.37-.19.55a6.7,6.7,0,0,0-.23,1.06,2.76,2.76,0,0,0,0,1,.82.82,0,0,0,.57.66.9.9,0,0,0,.46,0,1.2,1.2,0,0,0,.44-.25,2.52,2.52,0,0,0,.24-.33,2.59,2.59,0,0,0,.17-.38c0-.11.09-.23.13-.34a5.25,5.25,0,0,0,.17-.52c.1-.34.2-.68.27-1s.13-.65.19-1a11.63,11.63,0,0,1,1.55-.75c.51-.23,1-.49,1.48-.76a7.52,7.52,0,0,0,1.75-1.32V230c0,1.48,0,3,0,4.44a.73.73,0,0,0,1.45,0c0-1.48,0-3,0-4.44,0-.72,0-1.44,0-2.16,0-.36,0-.72,0-1.08s0-.43,0-.64a3.5,3.5,0,0,0-.09-1.07.73.73,0,0,0-.7-.53.72.72,0,0,0-.69.53c-.07.22-.12.43-.19.65s-.14.39-.22.58a4.78,4.78,0,0,1-.44.8,4.53,4.53,0,0,1-.59.57,15,15,0,0,1-2,1.21l-1,.46-.05,0c0-.25,0-.49,0-.74,0-1.65-.06-3.29-.13-4.94a.74.74,0,0,0-.73-.72.72.72,0,0,0-.72.72"/><path class="cls-2" d="M153.09,157.31a.71.71,0,0,0-.51.89.72.72,0,0,0,.33.43c1.5.65,3,1.27,4.48,2s2.84,1.4,4.25,2.11,2.82,1.4,4.17,2.19c.69.4,1.36.81,2.05,1.2.34.19.68.4,1,.59l1.26.67c.67.37,1.35.72,2,1.08s1.39.75,2.08,1.11l2.13,1.11,2.07,1q2,1.05,4.08,2.07a47.3,47.3,0,0,0,4.39,2l.22.08a3,3,0,0,0,.73.15c.23,0,.47.06.71.07l1.22,0q1.11,0,2.22.15l4.76.42c1.56.15,3.12.36,4.69.46l2.38.13c.79,0,1.59,0,2.38.1l1.38.1c.46,0,.92.06,1.38.11l.12,0a.72.72,0,0,0,.48,0,.71.71,0,0,0,.51-.89.72.72,0,0,0-.33-.43l-.31-.13a1.51,1.51,0,0,0-.36-.06l-.4,0-.53,0-1.06-.08c-.81-.06-1.62-.1-2.44-.13-1.52-.06-3-.12-4.56-.27l-2.38-.26-2.54-.23c-1.57-.14-3.15-.29-4.72-.4-.83-.06-1.66,0-2.48-.13a6.32,6.32,0,0,1-1.33-.45c-1.42-.62-2.8-1.34-4.17-2L178.31,170c-.72-.37-1.44-.72-2.15-1.09l-2-1c-.67-.35-1.32-.72-2-1.07l-2.3-1.23c-1.35-.72-2.65-1.54-4-2.28s-2.75-1.44-4.14-2.14-2.66-1.33-4-2c-.6-.29-1.21-.55-1.81-.81l-2.34-1a.9.9,0,0,0-.38-.1l-.17,0"/><path class="cls-2" d="M213.84,174a.78.78,0,0,0-.21.51c-.14,1.86-.24,3.74-.47,5.59,0,.26-.07.52-.1.77s-.11.65-.13,1a4.35,4.35,0,0,0,0,.72,1.89,1.89,0,0,0,.37,1.18,1.52,1.52,0,0,0,.91.51,3.22,3.22,0,0,0,.93,0c.63-.07,1.26-.19,1.88-.31l.85-.15c.31-.06.63-.11.93-.2a.73.73,0,0,0-.38-1.4,8.6,8.6,0,0,1-.88.19l-.78.14-1.53.27a4.53,4.53,0,0,1-.73,0l-.08,0h0s0-.07,0-.11a5.64,5.64,0,0,1,.06-1.16c.08-.53.15-1.06.22-1.59s.12-1.09.16-1.63c.11-1.28.19-2.55.29-3.82a.72.72,0,0,0-1.24-.51m.48,8.72,0,.05a.17.17,0,0,0,0-.05m0,0,0,0,0,0"/><path class="cls-2" d="M217.18,178a11.71,11.71,0,0,0-2.32.7l-1.24.55c-.42.2-.84.44-1.26.65a.72.72,0,0,0-.25,1,.73.73,0,0,0,1,.26l1.18-.61c.27-.14.56-.26.84-.38s.74-.3,1.13-.43a10,10,0,0,1,1.31-.33.74.74,0,0,0,.51-.9.75.75,0,0,0-.33-.43.69.69,0,0,0-.36-.09.71.71,0,0,0-.2,0"/><path class="cls-2" d="M221.2,171.89c-1.41.43-2.85.8-4.28,1.16l-1.07.27c-.35.1-.69.23-1,.36a19,19,0,0,0-2.18,1,.72.72,0,0,0-.26,1,.74.74,0,0,0,1,.26c.6-.32,1.21-.63,1.83-.91a11.13,11.13,0,0,1,1.35-.43l1.75-.45c1.1-.28,2.2-.57,3.29-.9a.73.73,0,0,0-.2-1.43l-.19,0"/><path class="cls-2" d="M222.16,224.77c-.51.4-1,.79-1.49,1.22l-1.48,1.3c-.51.45-1,.88-1.56,1.31-.33-.27-.67-.54-1-.79a4.35,4.35,0,0,0-1.43-.67,2.71,2.71,0,0,0-.85-.06,2.18,2.18,0,0,0-.9.3,3.59,3.59,0,0,0-1.06,1.17,5.74,5.74,0,0,0-.68,1.54,2.62,2.62,0,0,0-.08.79,1.78,1.78,0,0,0,.19.81,1.25,1.25,0,0,0,.47.55,2.13,2.13,0,0,0,.89.26,4.42,4.42,0,0,0,2.49-.68,9.79,9.79,0,0,0,1-.65c.32-.22.63-.46.94-.69l1.34,1.12a.83.83,0,0,0,.51.21.78.78,0,0,0,.52-.21.76.76,0,0,0,.21-.52.71.71,0,0,0-.21-.51l-1.22-1,1.21-1,1.36-1.2c.24-.22.48-.44.74-.64s.74-.61,1.12-.9a.67.67,0,0,0,.21-.52.71.71,0,0,0-.21-.51.74.74,0,0,0-.51-.21.8.8,0,0,0-.51.21m-7.43,3.76a3.31,3.31,0,0,1,.42.12,6.36,6.36,0,0,1,1.13.72l.19.15a11.21,11.21,0,0,1-2.08,1.31,3.83,3.83,0,0,1-.75.23h-.42l-.15,0s0-.07,0-.1a1.6,1.6,0,0,1,0-.31,3.41,3.41,0,0,1,.19-.62,6.1,6.1,0,0,1,.56-1c.11-.12.21-.23.33-.34l.14-.09.15,0h.31M213,231l0,0h0l0,0"/><path class="cls-2" d="M224.48,177.41c0,.81.08,1.62.08,2.43s-.07,1.43-.11,2.14c0,.41-.06.82-.07,1.23a1.67,1.67,0,0,0,0,.39,1,1,0,0,0,.12.35,2.6,2.6,0,0,0,.26.32,1.69,1.69,0,0,0,.31.21,2.69,2.69,0,0,0,.73.28,3.15,3.15,0,0,0,.44.11c.41.08.82.13,1.24.19a8.93,8.93,0,0,0,1.27.07.74.74,0,0,0,.72-.73.72.72,0,0,0-.72-.72,9.37,9.37,0,0,1-1.5-.1,7.88,7.88,0,0,1-1.36-.31l-.1-.05a6.23,6.23,0,0,1,0-.74c0-.21,0-.43,0-.64,0-.48.06-1,.08-1.44a29.78,29.78,0,0,0-.06-3,.73.73,0,0,0-.72-.73.74.74,0,0,0-.73.73m1.36,5.94,0,0,0,0m1.28.21h0"/><path class="cls-2" d="M232.38,176.34a.75.75,0,0,0-.21.51c-.21,1.7-.42,3.39-.57,5.09,0,.35,0,.7,0,1.05a2.79,2.79,0,0,0,.36,1.45,2,2,0,0,0,1.35.89,4.63,4.63,0,0,0,3.11-.84.72.72,0,1,0-.73-1.25c-.27.15-.54.3-.82.44a5,5,0,0,1-.84.24,2.54,2.54,0,0,1-.39,0l-.21,0-.16-.1a.12.12,0,0,1-.05-.05.57.57,0,0,1-.08-.13,1.37,1.37,0,0,1-.07-.29,8.24,8.24,0,0,1,0-1.57c0-.46.08-.91.14-1.37.13-1.17.27-2.34.41-3.51a.69.69,0,0,0-.21-.51.74.74,0,0,0-1,0"/><path class="cls-2" d="M236.75,179.22a8.67,8.67,0,0,1-1,.49l.08,0-.16.06h0l-.4.17.17-.08c-.85.35-1.71.65-2.57.95a.74.74,0,0,0-.44.33.78.78,0,0,0-.07.56.73.73,0,0,0,.89.51c.9-.31,1.79-.62,2.67-1a15.27,15.27,0,0,0,1.53-.73.73.73,0,0,0,.26-1,.72.72,0,0,0-.63-.35.77.77,0,0,0-.36.09m-.8,2-.08,0,.17-.08-.09,0m-.25-1.45h0l.08,0-.09,0"/><path class="cls-2" d="M236,175.08c-.86.27-1.7.63-2.53,1a.81.81,0,0,0-.44.33.78.78,0,0,0-.07.56.72.72,0,0,0,.33.43.74.74,0,0,0,.56.08c.84-.34,1.68-.69,2.54-1a.73.73,0,0,0-.2-1.43.63.63,0,0,0-.19,0"/><path class="cls-2" d="M248.25,174.74a19.58,19.58,0,0,0-1.55,3.76c-.2.61-.37,1.23-.55,1.85s-.34,1.36-.58,2l-.4-.45a9.86,9.86,0,0,1-1.09-1.82,6.36,6.36,0,0,1-.34-1.28,11.45,11.45,0,0,1,.1-2.48.69.69,0,0,0-.21-.51.74.74,0,0,0-1,0,.8.8,0,0,0-.21.51c-.06.56-.13,1.11-.14,1.67a7,7,0,0,0,.21,1.76,7.54,7.54,0,0,0,1.13,2.42,11,11,0,0,0,.78,1c.11.13.23.26.35.38a1.37,1.37,0,0,0,.71.4,1.17,1.17,0,0,0,.87-.21,1.41,1.41,0,0,0,.35-.34,2.92,2.92,0,0,0,.23-.47,21.8,21.8,0,0,0,.78-2.65c.23-.79.47-1.57.74-2.35.14-.39.29-.78.44-1.17,0,0-.05.11-.07.17.09-.2.17-.42.26-.62s.3-.59.47-.88a.74.74,0,0,0-.26-1,.68.68,0,0,0-.36-.1.73.73,0,0,0-.63.36m-2.45,7.87.07,0-.07,0"/><path class="cls-2" d="M253.51,174.54a1.72,1.72,0,0,0-.54.46,6.12,6.12,0,0,0-.54.79,6.18,6.18,0,0,0-.36.73,8.58,8.58,0,0,0-.35.83c-.21.53-.39,1.07-.56,1.61-.08.26-.15.52-.22.78a8.12,8.12,0,0,0-.29,1.83c0,.25,0,.49,0,.74v1.16a.74.74,0,0,0,.73.72.72.72,0,0,0,.72-.72c0-.41,0-.81,0-1.22s0-.83,0-1.25a16.62,16.62,0,0,1,.55-2.07c.16-.54.37-1.05.58-1.57A8.16,8.16,0,0,1,254,176l.11-.12c0,.06.07.13.11.2a15.14,15.14,0,0,1,.49,1.84c.09.35.15.7.22,1.05s.1.7.15,1.06.09.62.13.93c.17,1.32.31,2.65.5,4a.67.67,0,0,0,.33.44.78.78,0,0,0,.56.07.72.72,0,0,0,.43-.33.78.78,0,0,0,.07-.56c0-.14,0-.27-.05-.41,0,.05,0,.09,0,.14-.2-1.56-.36-3.12-.59-4.67-.05-.39-.1-.78-.18-1.17s-.17-.85-.27-1.27-.16-.67-.25-1a3.25,3.25,0,0,0-.73-1.43,1.29,1.29,0,0,0-.81-.34h-.14a1.2,1.2,0,0,0-.59.15m.48,1.24a.13.13,0,0,1,.08,0h0l-.08,0m.26,0h0m-.15,0h0m0,0,0,0,0,0h0m0,0,0,0,0,0m-.18.17,0,.06,0-.06m-.63,1.15s0,.07,0,.11Z"/><path class="cls-2" d="M257.5,179.78c-1.15.11-2.3.3-3.44.51s-2.21.49-3.3.78a.73.73,0,1,0,.38,1.4c1-.27,2-.53,3-.73.84-.16,1.69-.31,2.53-.42l.83-.1A.78.78,0,0,0,258,181a.72.72,0,0,0,0-1,.72.72,0,0,0-.48-.22h0"/><path class="cls-2" d="M261.88,177.37c0,1-.08,2-.1,3s-.08,2,0,3a.74.74,0,0,0,.73.73.73.73,0,0,0,.72-.73c0-1,0-2,.05-3s.06-2,.1-3a.73.73,0,0,0-1.45,0"/><path class="cls-2" d="M263.07,175.35a12.1,12.1,0,0,0-1.57.22c-.62.12-1.25.25-1.87.39a.71.71,0,0,0-.5.89.72.72,0,0,0,.89.5c.86-.18,1.72-.36,2.59-.5a7.45,7.45,0,0,1,.95-.08c.34,0,.67,0,1,0l1.68.38a.72.72,0,0,0,.39-1.39,18.45,18.45,0,0,0-1.93-.42l-.76-.07h-.2c-.22,0-.45,0-.67,0"/><path class="cls-2" d="M269.39,174.77c-.12.59-.24,1.18-.35,1.77s-.22,1.05-.29,1.57-.17,1.16-.23,1.74c0,.28-.06.55-.08.83l0,.53a4.87,4.87,0,0,0,.1,1.2.72.72,0,0,0,1.32.18.78.78,0,0,0,.08-.56,1.7,1.7,0,0,1,0-.22,9.4,9.4,0,0,1,.06-1.59l.12-1.08c.09-.59.18-1.17.29-1.75l.45-2.24a.78.78,0,0,0-.07-.56.77.77,0,0,0-.44-.33l-.18,0a.73.73,0,0,0-.71.54"/><path class="cls-2" d="M275.29,176.39a4.77,4.77,0,0,0-.72.53,4,4,0,0,0-.59.58l-.18.07a.81.81,0,0,0-.33.44c-.08.19-.15.39-.22.58s-.2.4-.29.61a3.82,3.82,0,0,0-.24.94l-.06.27a6.29,6.29,0,0,0-.18,1.07,2.69,2.69,0,0,0,0,.8,3,3,0,0,0,.31.82,2.21,2.21,0,0,0,1,.94,2.27,2.27,0,0,0,.81.22,2.77,2.77,0,0,0,.9-.1,6.77,6.77,0,0,0,.75-.28c.22-.1.45-.2.66-.32a3.11,3.11,0,0,0,.62-.52,5.35,5.35,0,0,0,.58-.77,8.41,8.41,0,0,0,.68-1.42,7.51,7.51,0,0,0,.4-1.55,4.89,4.89,0,0,0,.06-1.66,2.19,2.19,0,0,0-.26-.7,2.34,2.34,0,0,0-.65-.68,2.46,2.46,0,0,0-.68-.31,2.78,2.78,0,0,0-.76-.09h0a3.36,3.36,0,0,0-1.66.53m1.9.93.28.07.19.11.11.12a1,1,0,0,1,.1.17.85.85,0,0,1,0,.17c0,.11,0,.22,0,.34a2.31,2.31,0,0,1,0,.37v.07a8.52,8.52,0,0,1-.53,2,6.61,6.61,0,0,1-.62,1.1,4.67,4.67,0,0,1-.44.45,4.79,4.79,0,0,1-.68.34,3.94,3.94,0,0,1-.69.21h-.1a.44.44,0,0,0,.06-.16.69.69,0,0,0-.07-.56,5.85,5.85,0,0,1-.53-.86c-.05-.15-.09-.3-.13-.46s0-.25,0-.38c.12-.41.26-.81.41-1.21q.17-.28.36-.57a5.53,5.53,0,0,1,.77-.76,5.83,5.83,0,0,1,.73-.43,1.82,1.82,0,0,1,.4-.11h.37m.71,1.36h0m-2.31,3.95-.12.05.12-.05"/><path class="cls-2" d="M289.79,172.93a1,1,0,0,0-.52.42,2.44,2.44,0,0,0-.1.24,1.8,1.8,0,0,0-.08.21c0,.09,0,.17-.07.26-.08.26-.13.53-.2.8s-.17.65-.26,1a30.12,30.12,0,0,1-1.22,3.41,12.34,12.34,0,0,1-1.32,2.42,4.18,4.18,0,0,1-.51.52l-.24.14-.09,0h0l-.09-.05-.15-.16a7.52,7.52,0,0,1-.67-1.25,21,21,0,0,1-.71-2.16c-.22-.76-.42-1.52-.65-2.28a3.61,3.61,0,0,0-.36-.89.87.87,0,0,0-.72-.45.76.76,0,0,0-.46.1,1.07,1.07,0,0,0-.37.39,2.62,2.62,0,0,0-.24.68l-.09.35-.15.6c-.09.34-.19.68-.29,1s-.21.74-.35,1.09l-.15.38c-.31.7-.64,1.39-1,2.08a.73.73,0,0,0-.07.56.68.68,0,0,0,.33.43.72.72,0,0,0,1-.26,28.6,28.6,0,0,0,1.37-3.1c.15-.45.29-.9.41-1.36l0-.12.2.68c.21.75.41,1.51.69,2.24a11.27,11.27,0,0,0,.53,1.24,6.53,6.53,0,0,0,.5.85,2.71,2.71,0,0,0,.62.6,1.42,1.42,0,0,0,.35.17,2,2,0,0,0,.5.08,1.61,1.61,0,0,0,.43-.07,1.66,1.66,0,0,0,.39-.15,2.71,2.71,0,0,0,.64-.47,4.13,4.13,0,0,0,.56-.62,7.25,7.25,0,0,0,.5-.73,16.23,16.23,0,0,0,1.11-2.3c.35-.88.69-1.76,1-2.67.14-.45.28-.9.39-1.37a.63.63,0,0,0,.61-.2.8.8,0,0,0,.23-.42,1.88,1.88,0,0,0,0-.71,2.75,2.75,0,0,0-.11-.41,1.53,1.53,0,0,0-.31-.54.84.84,0,0,0-.58-.24l-.19,0m-4.49,9.42h0"/><path class="cls-2" d="M304.53,171.32a1.42,1.42,0,0,0-.36.14,3.59,3.59,0,0,0-.77.52,10.3,10.3,0,0,0-1.47,1.68c-.24.32-.47.66-.71,1a23.16,23.16,0,0,0-3.05,6.31,19.86,19.86,0,0,0-.87,4,8.94,8.94,0,0,0,.05,2.13,16.14,16.14,0,0,0,.44,1.92.73.73,0,0,0,1.4-.39,18.71,18.71,0,0,1-.43-1.83,8.93,8.93,0,0,1,0-2.13,19.88,19.88,0,0,1,.62-2.75,24.29,24.29,0,0,1,.93-2.64,21.35,21.35,0,0,1,2.06-3.75l.59-.82c.15-.22.32-.44.49-.65l0,0a8,8,0,0,1,1.07-1.11l.31-.19c0,.06,0,.12,0,.18a9.92,9.92,0,0,1-.39,1.39l-.24.67c-.11.23-.22.47-.35.7a9.21,9.21,0,0,1-.49.78c-.18.22-.38.42-.58.62l-.37.35-.16.15a1.75,1.75,0,0,0-.34.38.71.71,0,0,0,0,.73.73.73,0,0,0,.62.36,1.79,1.79,0,0,0,.65-.13l.44-.11a6.17,6.17,0,0,1,.62-.1l.6-.07a6.09,6.09,0,0,1,1.35,0,6.63,6.63,0,0,1,1.32.37,2.38,2.38,0,0,1,.44.25l.21.2.1.17c0,.05,0,.1.05.15a.41.41,0,0,1,0,.11,3.17,3.17,0,0,1-.12.41,3.9,3.9,0,0,1-.42.71,3.05,3.05,0,0,1-.44.44,6.41,6.41,0,0,1-.88.5,7.68,7.68,0,0,1-1.41.44h-.18a.73.73,0,0,0,0,1.45,5.12,5.12,0,0,0,1.8-.44l.69-.29a4.65,4.65,0,0,0,1.09-.71,3.94,3.94,0,0,0,.74-.89,4.07,4.07,0,0,0,.52-1.19,1.91,1.91,0,0,0-.14-1.35,2.47,2.47,0,0,0-.77-.9,4,4,0,0,0-1-.51,6.45,6.45,0,0,0-1.2-.32,7.3,7.3,0,0,0-2,0h0l.17-.24a9.42,9.42,0,0,0,1-2.15c.1-.29.2-.59.29-.89a4.64,4.64,0,0,0,.16-.74c0-.15,0-.29,0-.44a2.47,2.47,0,0,0,0-.54,1.15,1.15,0,0,0-.48-.7,1.19,1.19,0,0,0-.35-.19,3.49,3.49,0,0,0-.43-.07h-.06a1.59,1.59,0,0,0-.37.06m.48,1.39h0m-.06,0,.06.05-.06-.05m-4.57,6.41,0,.05,0-.05"/><path class="cls-2" d="M140.16,218.55a1.56,1.56,0,0,0-.56.58,8,8,0,0,0-.61,1.11c-.18.35-.35.71-.51,1.06-.36.77-.67,1.55-1,2.34-.51,1.36-.95,2.75-1.39,4.13-.22.71-.46,1.42-.65,2.14s-.42,1.65-.63,2.47a.72.72,0,1,0,1.39.39c.23-.88.45-1.77.69-2.65s.47-1.56.72-2.34.46-1.43.7-2.14.53-1.49.81-2.24c.07-.19.15-.37.23-.56.22-.5.44-1,.67-1.47.06-.11.11-.22.16-.33v.12c0,.4,0,.81,0,1.21,0,.76,0,1.53.06,2.29s.12,1.53.2,2.29.17,1.54.23,2.31a18.6,18.6,0,0,1,.05,2.89,1.1,1.1,0,0,1,0,.18s0,.08,0,.13a.76.76,0,0,0,.07.55.72.72,0,0,0,.43.34.75.75,0,0,0,.9-.51,7.35,7.35,0,0,0,.13-1.24,10.85,10.85,0,0,0,0-1.14c0-.75-.08-1.49-.15-2.24s-.18-1.48-.24-2.22-.13-1.57-.14-2.35,0-1.57,0-2.35l-.06-1.36a1.64,1.64,0,0,0-.59-1.37.93.93,0,0,0-.46-.12.76.76,0,0,0-.39.1m-.1,1.06,0,0,0,0"/><path class="cls-2" d="M141,226q-.68.12-1.32.3a9.48,9.48,0,0,0-.94.33c-.76.29-1.49.63-2.22,1a.71.71,0,0,0-.33.43.72.72,0,0,0,.07.56.76.76,0,0,0,.43.34.77.77,0,0,0,.56-.08l1.57-.71c.37-.14.74-.28,1.12-.4a10.08,10.08,0,0,1,1.44-.35.66.66,0,0,0,.43-.33.73.73,0,0,0,.08-.56.7.7,0,0,0-.34-.43.63.63,0,0,0-.35-.09.71.71,0,0,0-.2,0"/><path class="cls-3" d="M226.17,11.78a1.85,1.85,0,0,0-.63.27,12.07,12.07,0,0,0-1.74,1.29,27,27,0,0,0-2.14,2.14c-.59.67-1.1,1.38-1.65,2.08-.89,1.08-1.81,2.13-2.72,3.2-1.08,1.26-2.16,2.51-3.28,3.74-.33.34-.65.68-1,1-2,2.12-4.14,4.19-6.11,6.38-1.76,2-3.41,4-5.07,6.05C201,39,200,40.12,199.1,41.18c-1.34,1.4-2.71,2.77-4.07,4.15-1.82,1.83-3.61,3.68-5.36,5.57s-3.66,3.89-5.48,5.84c-.43.46-.86.91-1.28,1.37C181,60.1,179,62,177,64c-1.32,1.31-2.61,2.62-3.85,4s-2.47,2.9-3.67,4.39a4.77,4.77,0,0,0-.77,1.35c0,.11,0,.23,0,.34a1,1,0,0,0,.92-.22,11.2,11.2,0,0,0,1.66-1.24,20.61,20.61,0,0,0,2.6-2.77l.47-.58c.67-.8,1.35-1.58,2.05-2.35,1.36-1.39,2.74-2.75,4.13-4.1,1.84-1.81,3.64-3.64,5.41-5.53l-.91,1q1.84-1.95,3.67-3.93c1.37-1.44,2.76-2.88,4.1-4.35,2.06-2.16,4.19-4.27,6.29-6.39,1.51-1.53,3-3.1,4.35-4.73s2.54-3.06,3.79-4.61q1.22-1.47,2.49-2.88c2.06-2.18,4.16-4.31,6.21-6.5l-.91,1c1-1.09,2.08-2.17,3.07-3.3l2.27-2.65c.71-.84,1.44-1.67,2.15-2.51.3-.34.59-.7.87-1.05a14.93,14.93,0,0,0,2.32-2.52,4.8,4.8,0,0,0,.86-1.53c0-.29-.05-.48-.3-.48l-.15,0"/><path class="cls-3" d="M230.58,5.62a23.27,23.27,0,0,0-5.08,2.25c-.92.52-1.81,1.13-2.67,1.73-.69.48-1.39,1-2.05,1.49-1.27,1-2.52,2.08-3.74,3.17a1,1,0,0,0-.42.23A11.53,11.53,0,0,0,214,16.63a18.14,18.14,0,0,0-1.64,1.87l-.51.77a1,1,0,0,0-.22.92,11.83,11.83,0,0,1,4.38,2c.66.46,1.32.95,2,1.41a17.15,17.15,0,0,0,2,1.1c.72.35,1.45.71,2.2,1a3.44,3.44,0,0,0,1.15.21,2.2,2.2,0,0,0,.84-.31A10.88,10.88,0,0,0,226,24.27a19.48,19.48,0,0,0,2.81-3,9.48,9.48,0,0,0,.78-1.2,12.49,12.49,0,0,0,1-2.64,18,18,0,0,0,.34-2.32,21.82,21.82,0,0,1,1-4.67c.25-.75.52-1.51.72-2.27a4.23,4.23,0,0,0,.12-2c-.11-.51-.62-.66-1.15-.66a3.84,3.84,0,0,0-1,.14m-4.44,5.87a.88.88,0,0,1,.67.68,6.2,6.2,0,0,1-.36,1.74c-.17.56-.35,1.12-.54,1.67a21.27,21.27,0,0,0-.74,2.82c-.26-.13-.51-.26-.75-.41-.45-.27-.88-.57-1.3-.88-.88-.61-1.73-1.24-2.66-1.77a10.59,10.59,0,0,0-1.18-.56l1-.72a30.79,30.79,0,0,1,3-1.72,8.91,8.91,0,0,1,2.85-.85"/><path class="cls-3" d="M240.77,10.45l-.58.26A10.63,10.63,0,0,0,238.52,12a20.63,20.63,0,0,0-1.87,1.87l-.73.9a4.51,4.51,0,0,0-.77,1.35c-.24,1.62-.46,3.24-.85,4.84-.08.35-.18.7-.29,1.05a10.13,10.13,0,0,0-1,2.17c-.08.27-.17.55-.24.83l-.09.3a1.55,1.55,0,0,0,0,.71.94.94,0,0,0,.92-.22,10.55,10.55,0,0,0,1.66-1.24A14.2,14.2,0,0,0,238.35,21a16.49,16.49,0,0,0,1.13-2.71c.05-.12.09-.25.14-.37l.25-.14a2.47,2.47,0,0,1,.75-.17,2.15,2.15,0,0,1,1,.91,4,4,0,0,1,.59,1.87c.06.66.08,1.32.08,2a18,18,0,0,1-.22,2.32c-.08.72-.19,1.43-.32,2.14-.07.38-.14.76-.23,1.14l-.36.54a.94.94,0,0,0-.22.92.33.33,0,0,0,0,.2l.34,0a3.49,3.49,0,0,0,1.46-.77,17,17,0,0,0,2.76-2.6,11,11,0,0,0,1.31-1.76,7.42,7.42,0,0,0,.37-.86,8.79,8.79,0,0,0,.37-1.36c.17-.81.3-1.63.41-2.46s.2-1.65.26-2.49a16,16,0,0,0-.08-2.4,9.18,9.18,0,0,0-.28-1.65,3.12,3.12,0,0,0-.77-1.25c-.89-1-2.24-.25-3.19.2a13.41,13.41,0,0,0-2,1.27,15.57,15.57,0,0,0-1.45,1.12c.26-1.27.42-2.55.62-3.83.06-.26,0-.39-.22-.39a.5.5,0,0,0-.16,0"/><path class="cls-2" d="M11.71,225.74l-1.85,2c-.49.56-1,1.12-1.48,1.67Q6.7,231.29,5,233.13L2.62,235.8c-.38.42-.75.83-1.12,1.26s-.73.85-1.12,1.26a.79.79,0,0,0-.33.41s0,0,0,.05a.74.74,0,0,0,0,.39.68.68,0,0,0,.18.32.7.7,0,0,0,.87.14,1.1,1.1,0,0,0,.25-.19,1,1,0,0,1,.1-.11c.06-.07.12-.13.17-.2s.26-.28.38-.43l.74-.84c.5-.57,1-1.13,1.53-1.7q1.56-1.74,3.13-3.46c.88-1,1.76-1.91,2.62-2.88s1.8-2,2.71-3a.8.8,0,0,0,.23-.5.73.73,0,0,0-.75-.75.63.63,0,0,0-.47.19"/><path class="cls-2" d="M.62,226.81a1,1,0,0,0,0,.91c.13.25.28.49.42.73s.38.59.57.87l.71,1c.94,1.34,1.93,2.64,2.93,3.93.6.76,1.23,1.49,1.84,2.24s1.23,1.5,1.82,2.27c.3.41.59.82.87,1.25q.21.31.42.66c.08.12.16.24.23.36s.16.24.25.35a1.3,1.3,0,0,0,.44.4.66.66,0,0,0,.36.11.65.65,0,0,0,.37-.08.75.75,0,0,0,.27-.26.66.66,0,0,0,.11-.36,2.09,2.09,0,0,0-.15-.95,6.32,6.32,0,0,0-.22-.61l-.31-.81-.69-1.77a.7.7,0,0,0-.43-.34.73.73,0,0,0-.56.05.71.71,0,0,0-.34.42h0l-.58-.72c-1-1.21-2-2.38-2.94-3.61-.72-.93-1.43-1.88-2.13-2.84l-.51-.73a.67.67,0,0,0,.25-.16.69.69,0,0,0,.23-.5.68.68,0,0,0-.19-.52c-.31-.26-.62-.52-.94-.77l-.34-.29a2.55,2.55,0,0,0-.87-.58.75.75,0,0,0-.21,0,.81.81,0,0,0-.67.35m3.15,3.08.1.14-.1-.14"/><path class="cls-2" d="M269.62,133.79l-.73.8c-.58.64-1.13,1.29-1.69,1.94a.77.77,0,0,0-.22.5.7.7,0,0,0,.19.52.71.71,0,0,0,.51.23h.11c-.2.35-.42.7-.63,1.06-.39.64-.81,1.28-1.21,1.92-.22.35-.46.7-.7,1.05s-.34.54-.52.8c-.93,1.36-1.86,2.71-2.81,4s-1.8,2.58-2.72,3.86c-.41.56-.82,1.12-1.22,1.69l-1.34,1.95c-.38.57-.76,1.13-1.13,1.7-.18.27-.34.55-.51.82l-.24.42-.16.29a2.73,2.73,0,0,0-.28.66.81.81,0,0,0,0,.38.67.67,0,0,0,.18.33.73.73,0,0,0,.87.14,1.52,1.52,0,0,0,.49-.42c.11-.13.21-.27.31-.41s.26-.34.38-.52c.25-.34.5-.68.73-1,.52-.75,1-1.56,1.45-2.35a.74.74,0,0,0,.07-.6c.77-1.1,1.57-2.18,2.34-3.28,1.81-2.55,3.63-5.1,5.35-7.71.81-1.22,1.6-2.46,2.35-3.72.36-.6.69-1.21,1-1.82.16-.29.3-.59.45-.88.26-.49.52-1,.75-1.49a3.41,3.41,0,0,0,.17-.33,1.44,1.44,0,0,0,.07-.36.77.77,0,0,0-.2-.52.87.87,0,0,0-.34-.22.56.56,0,0,0-.25-.05c-.37,0-.67.33-.9.6"/><path class="cls-2" d="M261.87,137.1a.72.72,0,0,0,0,1l.86.94a10.1,10.1,0,0,0,1,.87c.57.45,1.23.77,1.81,1.22a3.26,3.26,0,0,1,.31.33,2.2,2.2,0,0,1,.15.26c0,.14.07.28.12.42a.72.72,0,0,0,.88.54.75.75,0,0,0,.44-.32.69.69,0,0,0,.09-.56c-.08-.23-.13-.46-.22-.68a2.77,2.77,0,0,0-.66-.93,6.54,6.54,0,0,0-1-.74l-.69-.45a7.11,7.11,0,0,1-.65-.47,18.5,18.5,0,0,1-1.38-1.42.7.7,0,0,0-.52-.23.72.72,0,0,0-.5.2"/><path class="cls-2" d="M111,.7a.73.73,0,0,0,.71.75c1.79,0,3.58,0,5.36.07l2.27.05c.77,0,1.53,0,2.3.07q.62,0,1.23.09c-.52.28-1.07.51-1.6.75L120.08,3l-2,.91a38.84,38.84,0,0,0-4.2,2.18c-.64.39-1.26.81-1.91,1.19a19.83,19.83,0,0,1-2,1A1.53,1.53,0,0,0,109,9a.81.81,0,0,0,.18.84,1.46,1.46,0,0,0,.78.34,7.81,7.81,0,0,0,.82.14l.52.08c.78.09,1.55.18,2.33.23,3.22.21,6.44.32,9.67.42.67,0,1.34,0,2,0,.31,0,.63,0,.94,0l.43,0a1.1,1.1,0,0,0,.53-.26.75.75,0,0,0,.2-.74,1,1,0,0,0-.43-.57.64.64,0,0,0-.55-.09.75.75,0,0,0-.42.27c-.68,0-1.36,0-2,0l-2.37-.08-4.72-.19c-1.14,0-2.27-.12-3.4-.19-.57,0-1.14-.1-1.71-.17l.57-.29c.65-.33,1.26-.76,1.88-1.15a34.09,34.09,0,0,1,4-2.17l2.24-1c.87-.39,1.76-.77,2.62-1.19.23-.11.47-.24.69-.37a4.78,4.78,0,0,0,.63-.45,1.66,1.66,0,0,0,.26-.27.93.93,0,0,0,.18-.32,1.55,1.55,0,0,0,0-.37.93.93,0,0,0-.23-.6l-.06-.05a.67.67,0,0,0-.31-.19,1.36,1.36,0,0,0-.28-.11l-.37-.07-.77-.11c-.73-.09-1.48-.1-2.22-.12-3-.08-6-.14-9-.16h0a.74.74,0,0,0-.74.7m12.63.48s0,0,0,0l0,0"/><path class="cls-2" d="M127.8,68.77a.73.73,0,1,0,.72-.73.73.73,0,0,0-.72.73"/><path class="cls-2" d="M136.44,62.3a.72.72,0,0,0,0,1c.43.46.87.9,1.3,1.35q.36.38.75.72a12.09,12.09,0,0,0,1,.72c.5.33,1,.62,1.53.93s1,.63,1.49,1a8.14,8.14,0,0,1,1.1,1c.39.45.75.91,1.12,1.37.68.85,1.41,1.65,2.09,2.51.21.28.42.57.61.87a11.63,11.63,0,0,1,.61,1c.09.16.16.33.24.5s.17.36.25.53.31.65.45,1c.32.7.66,1.38,1,2.06s.73,1.4,1.11,2.09c.51.92,1,1.83,1.49,2.76s.81,1.77,1.19,2.66a55.77,55.77,0,0,1,2.66,8.77c.11.46.22.92.29,1.38s.15.89.21,1.33c.09.84.18,1.67.28,2.51a25.73,25.73,0,0,0,.46,2.6.72.72,0,1,0,1.39-.39c-.14-.62-.26-1.23-.35-1.86s-.17-1.42-.25-2.14-.18-1.68-.35-2.51c-.31-1.55-.7-3.09-1.12-4.62s-.86-2.92-1.39-4.35c-.28-.76-.6-1.51-.92-2.26s-.64-1.45-1-2.16-.7-1.3-1.06-2-.78-1.44-1.16-2.16-.73-1.37-1-2.07-.62-1.34-.94-2a11.66,11.66,0,0,0-1.16-1.95c-.48-.66-1-1.29-1.52-1.91s-1-1.17-1.46-1.77c-.24-.3-.49-.6-.74-.88a7.22,7.22,0,0,0-.85-.81,15.37,15.37,0,0,0-2.13-1.45l-1-.62-.44-.29-.59-.42a14.35,14.35,0,0,1-1.05-1l-1-1.08a.67.67,0,0,0-.51-.21.73.73,0,0,0-.52.21M146.86,73l0,.07,0-.07"/><path class="cls-2" d="M184.3,48.61c-1.55,0-3.11,0-4.66,0s-3.29.1-4.94.22-3.16.3-4.73.46-3.14.34-4.69.61-3.16.57-4.74.89-3.09.6-4.61,1l-2.39.66-2.24.67c-.76.24-1.52.52-2.28.79s-1.43.52-2.15.8c-1.51.59-3,1.23-4.47,1.94-.82.4-1.61.86-2.39,1.32-.37.22-.74.44-1.1.68l-1.33.9a.75.75,0,0,0-.33.43.69.69,0,0,0,.07.56.72.72,0,0,0,1,.26c.61-.41,1.22-.83,1.84-1.22s1.14-.71,1.73-1,1.24-.66,1.87-.95,1.24-.57,1.87-.84l2.23-.89c.68-.27,1.37-.51,2.06-.75s1.51-.52,2.27-.76l2.36-.7,2.24-.6c.41-.12.82-.2,1.23-.29s.76-.16,1.15-.24c1.47-.31,3-.61,4.43-.88l2-.36c.56-.1,1.11-.18,1.66-.26,1.51-.18,3-.34,4.54-.5.79-.08,1.59-.17,2.39-.23l2.6-.17c1.5-.08,3-.1,4.51-.11s3.25-.07,4.88,0c.29,0,.59,0,.88.07a4.77,4.77,0,0,1,.91.2,5,5,0,0,1,.63.37,6.86,6.86,0,0,0,.81.61.72.72,0,0,0,1-.26.73.73,0,0,0-.26-1l-.3-.2a5.46,5.46,0,0,0-.45-.36,3.84,3.84,0,0,0-1.17-.61,4.49,4.49,0,0,0-.9-.18c-.22,0-.45-.06-.68-.07-.68-.05-1.37-.06-2.06-.06h-.28"/><path class="cls-2" d="M201.39,89.81a.73.73,0,0,0-.29.34l-.06,0c-.4.29-.81.55-1.22.82s-.81.53-1.2.8-.85.59-1.26.91l-1.22,1a17.45,17.45,0,0,1-2.38,1.52c-.88.45-1.79.86-2.7,1.25L190,96.9c-.79.33-1.6.63-2.39.95S185.88,98.6,185,99l-2,.81c-.72.28-1.45.57-2.18.82s-1.54.43-2.32.61-1.55.3-2.33.43l-1.18.16.19,0-3.13.42-2.8.39c-.72.1-1.43.19-2.15.26s-1.56.12-2.34.15-1.58,0-2.37,0-1.56,0-2.34-.09c-.58,0-1.15-.1-1.72-.16a.72.72,0,0,0-.52.21.74.74,0,0,0,0,1,.83.83,0,0,0,.52.21c.83.08,1.67.16,2.51.2s1.53,0,2.29,0c.38,0,.76,0,1.14,0l1.19,0c.79,0,1.57-.11,2.35-.18s1.3-.17,1.95-.26l1.95-.28-.19,0,1.56-.22-.14,0,2.44-.31c.78-.11,1.57-.23,2.35-.36s1.53-.32,2.29-.5a21.06,21.06,0,0,0,2.21-.71c1-.38,1.95-.76,2.92-1.16s1.93-.84,2.89-1.26l1.44-.56q.83-.33,1.65-.69l-.09,0c.66-.27,1.31-.56,2-.85s1.14-.52,1.68-.82,1.11-.65,1.63-1,1.12-.83,1.67-1.27,1.28-1,1.94-1.38l1-.67.53-.35.39-.28a3.22,3.22,0,0,0,.28-.24,1.26,1.26,0,0,0,.29-.5.69.69,0,0,0-.07-.56.75.75,0,0,0-.43-.33.68.68,0,0,0-.2,0,.77.77,0,0,0-.36.09M191.15,98l.08,0-.08,0"/><path class="cls-2" d="M188.75,49.62a.67.67,0,0,0-.21.51l0,.28c0,.1.07.19.11.29l.18.27.29.36c.15.17.31.33.47.49l1,1c.35.34.7.68,1,1s.58.67.86,1a27,27,0,0,1,1.5,2.32,20.91,20.91,0,0,1,1.25,2.45,39.48,39.48,0,0,1,1.3,4.26c.2.74.41,1.46.67,2.18s.52,1.4.75,2.12a19.35,19.35,0,0,1,.54,2c.14.69.27,1.38.37,2.08s.17,1.46.25,2.19.23,1.64.37,2.45c.29,1.55.75,3,1.08,4.58.1.46.18.93.25,1.39S201,84,201,84.57s0,1.24,0,1.86c0,1.14-.05,2.28-.09,3.43a.72.72,0,0,0,.72.72.74.74,0,0,0,.73-.72c.06-1.55.09-3.09.1-4.63,0-.79,0-1.58-.09-2.37,0-.44-.13-.88-.21-1.31s-.15-.75-.24-1.12c-.22-.89-.46-1.77-.66-2.66s-.38-1.8-.51-2.7c-.19-1.52-.31-3-.61-4.55-.15-.76-.32-1.52-.54-2.26s-.47-1.39-.71-2.08-.52-1.45-.72-2.19-.41-1.49-.61-2.24a21,21,0,0,0-.68-2.17,20,20,0,0,0-1-2.21c-.34-.64-.72-1.27-1.1-1.89-.2-.32-.41-.64-.63-.95s-.53-.72-.81-1.07a16.87,16.87,0,0,0-1.49-1.56l-.84-.8a8.85,8.85,0,0,1-.75-.75,1.07,1.07,0,0,1-.14-.16L190,50v-.09a.7.7,0,0,0-.19-.32.72.72,0,0,0-1,0m1.25.47.05.06-.05-.06m0,.1v0"/><path class="cls-2" d="M158.13,106.26a.72.72,0,0,0-.33.43c-.13.93-.26,1.86-.36,2.79a.69.69,0,0,0,.21.51.75.75,0,0,0,.51.21.78.78,0,0,0,.52-.21.8.8,0,0,0,.21-.51q0-.53.12-1c.06-.45.12-.9.19-1.35a.78.78,0,0,0-.08-.56.72.72,0,0,0-.43-.33.63.63,0,0,0-.19,0,.69.69,0,0,0-.37.1"/><path class="cls-2" d="M158.43,111.85a.71.71,0,0,0-.44.33c-.31.73-.61,1.46-.91,2.2a12.46,12.46,0,0,0-.64,2,.78.78,0,0,0,.07.56.77.77,0,0,0,.44.33.73.73,0,0,0,.89-.51,10.84,10.84,0,0,1,.59-1.83c.22-.55.44-1.09.67-1.63h0l0,0,.06-.14h0c0-.07.06-.13.08-.19l.08-.18a.81.81,0,0,0,0-.38.74.74,0,0,0-.34-.44.78.78,0,0,0-.36-.1.58.58,0,0,0-.19,0"/><path class="cls-2" d="M155.69,119.25a.73.73,0,1,0,.73-.73.73.73,0,0,0-.73.73"/><path class="cls-2" d="M200.61,93.07a.69.69,0,0,0-.21.51c0,.44.08.87.11,1.31a6.5,6.5,0,0,1,0,1.08,13,13,0,0,1-.34,1.5.74.74,0,0,0,.5.9.75.75,0,0,0,.9-.51c.09-.33.18-.66.25-1a11.39,11.39,0,0,0,.17-1.15,5.65,5.65,0,0,0,0-.92c0-.4-.06-.81-.1-1.21a.78.78,0,0,0-.21-.51.74.74,0,0,0-.52-.22.72.72,0,0,0-.51.22"/><path class="cls-2" d="M200.47,100c-.1.43-.19.87-.28,1.31s-.17.88-.27,1.32a.74.74,0,0,0,.5.9.73.73,0,0,0,.89-.51c.11-.44.19-.89.27-1.33s.19-.87.29-1.3a.73.73,0,0,0-.51-.89.57.57,0,0,0-.18,0,.72.72,0,0,0-.71.53"/><path class="cls-2" d="M135.88,63.37c-.78.46-1.56.93-2.29,1.46a26.38,26.38,0,0,0-2.18,1.74.72.72,0,0,0,0,1,.7.7,0,0,0,.51.22.76.76,0,0,0,.51-.22c.46-.4.94-.78,1.41-1.16s.81-.59,1.23-.87,1-.64,1.54-.94a.72.72,0,0,0-.37-1.35.68.68,0,0,0-.36.1"/><path class="cls-2" d="M126,69.82c-.69.55-1.38,1.12-2.06,1.68s-1.32,1.15-1.95,1.76a.74.74,0,0,0,0,1,.72.72,0,0,0,1,0c.61-.6,1.24-1.18,1.9-1.72l2.12-1.73a.69.69,0,0,0,.21-.51.72.72,0,0,0-.73-.72.75.75,0,0,0-.51.21"/><path class="cls-2" d="M133,58.91a.73.73,0,0,0-.26,1c.32.49.67,1,1,1.44l1.1,1.48a.8.8,0,0,0,.43.33.78.78,0,0,0,.56-.07.77.77,0,0,0,.33-.44.69.69,0,0,0-.07-.56L135,60.61c-.34-.48-.69-1-1-1.44a.76.76,0,0,0-.63-.36.81.81,0,0,0-.36.1"/><path class="cls-2" d="M126.93,53.91a.72.72,0,0,0-.43.33.73.73,0,0,0-.08.56.81.81,0,0,0,.34.43,4.87,4.87,0,0,0,.52.37,4.06,4.06,0,0,0,.51.26c.37.16.75.28,1.12.42.76.26,1.52.53,2.27.81a.74.74,0,0,0,.56-.07.77.77,0,0,0,.33-.44A.71.71,0,0,0,132,56a.75.75,0,0,0-.44-.34l-1.67-.61-1.47-.51-.36-.19a5.81,5.81,0,0,1-.57-.4.6.6,0,0,0-.35-.1.66.66,0,0,0-.21,0"/><path class="cls-2" d="M185.18,44.61a.74.74,0,0,0-.26,1,3,3,0,0,1,.27.45,5.12,5.12,0,0,1,.2.77c.05.23.11.46.17.69.16.55.37,1.09.57,1.63a.75.75,0,0,0,.33.43.69.69,0,0,0,.56.07.72.72,0,0,0,.43-.33.68.68,0,0,0,.07-.56c-.21-.58-.42-1.16-.6-1.75-.07-.26-.13-.53-.18-.79s-.07-.28-.1-.42a3.31,3.31,0,0,0-.46-.92.77.77,0,0,0-.44-.33.58.58,0,0,0-.19,0,.82.82,0,0,0-.37.1"/><path class="cls-2" d="M179.07,39.69a.74.74,0,0,0,.26,1,7.2,7.2,0,0,0,1.36.6l.84.32c.73.33,1.42.74,2.12,1.12a.73.73,0,0,0,1-.26.74.74,0,0,0-.26-1l-1-.56a8.77,8.77,0,0,0-.86-.45L181.44,40l-.83-.31a4.07,4.07,0,0,1-.55-.28.64.64,0,0,0-.35-.1.74.74,0,0,0-.64.36m1.62.06,0,0,0,0"/><path class="cls-2" d="M191.42,49.29a.74.74,0,0,0-.72.73.72.72,0,0,0,.72.72c1.1,0,2.2-.08,3.3-.06a.72.72,0,0,0,.72-.72.74.74,0,0,0-.72-.73h-.59c-.9,0-1.8,0-2.71.06"/><path class="cls-2" d="M200.36,50.65a.72.72,0,1,0,.72-.72.73.73,0,0,0-.72.72"/><path class="cls-2" d="M197,50.22a.73.73,0,1,0,.73-.73.73.73,0,0,0-.73.73"/><path class="cls-2" d="M175.73,38.21a.73.73,0,1,0,.73-.72.73.73,0,0,0-.73.72"/><path class="cls-2" d="M205.16,88.42l-1.69,1.66a.74.74,0,0,0,0,1,.72.72,0,0,0,1,0l1.69-1.67a.72.72,0,0,0-.5-1.25.7.7,0,0,0-.49.2"/><path class="cls-2" d="M209.24,83.89a.73.73,0,1,0,1.45,0,.72.72,0,0,0-.7-.74.74.74,0,0,0-.75.7"/><path class="cls-2" d="M205.43,87.71c-.86.83-1.7,1.68-2.54,2.52a.75.75,0,0,0,0,1,.74.74,0,0,0,1,0c.85-.84,1.68-1.7,2.54-2.53a.72.72,0,0,0,0-1,.74.74,0,0,0-.54-.23.73.73,0,0,0-.49.2"/><path class="cls-2" d="M209.84,82.51c-.54.58-1.09,1.17-1.62,1.76a.83.83,0,0,0-.23.51.77.77,0,0,0,.2.52.73.73,0,0,0,.5.23.71.71,0,0,0,.52-.2l1.62-1.76a.73.73,0,0,0,.23-.51.72.72,0,0,0-.19-.52.8.8,0,0,0-.55-.22.66.66,0,0,0-.48.19"/><path class="cls-2" d="M151.49,103.46a.73.73,0,0,0,.7.75l4.26,0a.73.73,0,1,0,.05-1.45l-4.26,0a.73.73,0,0,0-.75.7"/><path class="cls-2" d="M148.68,103.53a.72.72,0,0,0,.7.74.72.72,0,1,0,0-1.44.72.72,0,0,0-.74.7"/><path class="cls-2" d="M232.62,53.51c-1.57.05-3.13.12-4.7.22s-3.18.15-4.77.26-3.19.23-4.79.37-3.28.34-4.92.52c-.82.07-1.64.16-2.45.28a4.4,4.4,0,0,0-1.63.67c-.32.2-.65.38-1,.56-.68.37-1.38.68-2.08,1s-1.37.59-2.06.87c-1.45.61-2.91,1.22-4.35,1.88s-2.8,1.31-4.2,2-2.9,1.4-4.34,2.13-2.88,1.41-4.32,2.12c-1,.46-1.93.89-2.88,1.38s-2,1.1-3,1.65a.72.72,0,0,0,.69,1.27c.75-.41,1.5-.84,2.25-1.24s1.41-.74,2.13-1.08l4.26-2c1.46-.71,2.89-1.45,4.35-2.16s2.72-1.32,4.09-2,2.86-1.34,4.32-1.94,2.95-1.19,4.38-1.87c.57-.26,1.13-.53,1.68-.83s1-.62,1.53-.86a6.74,6.74,0,0,1,1.09-.2l.74-.09c1.57-.15,3.13-.32,4.7-.49l2.25-.2c.77-.06,1.54-.14,2.32-.19s1.58-.11,2.37-.15l2.46-.12,2.49-.15c.78-.05,1.57-.07,2.35-.1,1.54-.06,3.08-.07,4.62-.06h1.09a.72.72,0,1,0,.05-1.44h-2c-.91,0-1.81,0-2.72,0m-19.19,1.37h0"/><path class="cls-2" d="M253.36,46.79a1.46,1.46,0,0,0-.82.85,11.19,11.19,0,0,0-.49,1.2l-.6,1.71c-.21.58-.45,1.14-.68,1.7v0c-.07.16-.15.32-.23.48a7.62,7.62,0,0,1-.64,1.11l-.24.23-.15.08-.11,0h-.1l-.16-.1-.17-.18a3,3,0,0,1-.18-.36,10.37,10.37,0,0,1-.4-1.55l-.12-.78A3.85,3.85,0,0,0,248,50a.71.71,0,0,0-.61-.38h0a.72.72,0,0,0-.64.34,1.22,1.22,0,0,0-.13.38,1.55,1.55,0,0,0,0,.21c0,.21-.07.41-.1.62s-.09.51-.13.76c-.12.7-.25,1.39-.4,2.08s-.33,1.44-.48,2.16-.33,1.51-.49,2.26c-.19.91-.34,1.83-.48,2.75a.68.68,0,0,0,.19.52.76.76,0,0,0,.51.23.77.77,0,0,0,.52-.2.79.79,0,0,0,.22-.5l.18-1.14c.14-.73.29-1.45.45-2.17s.32-1.51.49-2.26c.13-.56.25-1.11.36-1.67.05.11.09.23.14.34a2.26,2.26,0,0,0,1.07,1.13,1.69,1.69,0,0,0,.77.19,2.06,2.06,0,0,0,.85-.22,2.16,2.16,0,0,0,.35-.24,2.91,2.91,0,0,0,.27-.24,4,4,0,0,0,.43-.56,10.27,10.27,0,0,0,.51-.92c.2-.39.37-.79.54-1.19.28-.68.52-1.36.76-2l.26-.74v.07q.1.68.27,1.35c.11.46.22.93.31,1.4s.14.91.2,1.37c.07.86.12,1.72.15,2.59,0,.43,0,.86,0,1.29a9.12,9.12,0,0,1-.09,1.48.68.68,0,0,0,.19.52.74.74,0,0,0,.51.23.77.77,0,0,0,.52-.2.79.79,0,0,0,.22-.51,8.67,8.67,0,0,0,.1-1.35c0-.36,0-.73,0-1.1,0-.78-.06-1.57-.11-2.35a19,19,0,0,0-.3-2.37c-.16-.75-.36-1.5-.49-2.26-.06-.32-.11-.64-.16-1a6.28,6.28,0,0,0-.19-1.15,1.09,1.09,0,0,0-.42-.6l-.26-.12a.57.57,0,0,0-.18,0,.94.94,0,0,0-.3,0m-2.51,5.29,0,.05,0-.05"/><path class="cls-2" d="M257.05,54.06a.73.73,0,0,0-.53.88c.14.46.28.92.43,1.38s.26.82.37,1.24a15.36,15.36,0,0,1,.46,2.32l0,.3a1.31,1.31,0,0,0,.16.43,1.3,1.3,0,0,0,.71.57,3.68,3.68,0,0,0,1.05.19,9.43,9.43,0,0,0,1.3-.06c.5-.05,1-.08,1.49-.17l.63-.14a5.78,5.78,0,0,0,.89-.29.68.68,0,0,0,.34-.42.73.73,0,0,0-.05-.56.71.71,0,0,0-.42-.34.74.74,0,0,0-.49,0h0l-.05,0a6.67,6.67,0,0,1-1,.26,7.55,7.55,0,0,1-.83.13c-.33,0-.66.07-1,.09l-.56,0a5.09,5.09,0,0,1-.55,0l-.21-.06s0,0,0-.07c0-.42-.1-.84-.17-1.26s-.19-.84-.3-1.25c-.24-.89-.54-1.77-.81-2.65a.72.72,0,0,0-.71-.56l-.17,0m2.08,5.71,0,0h0l0,0m2.39,0h0m-2.29,0,0,0,0,0Zm0,0,0,0h0"/><path class="cls-2" d="M261.87,55.14l-.77.3.18-.07c-.63.24-1.27.46-1.9.69a.74.74,0,0,0-.44.32.71.71,0,0,0-.09.55.76.76,0,0,0,.32.45.71.71,0,0,0,.55.09c.95-.35,1.9-.69,2.84-1a.71.71,0,0,0,.34-.42.73.73,0,0,0,0-.56.71.71,0,0,0-.43-.35.63.63,0,0,0-.19,0,.94.94,0,0,0-.36.08"/><path class="cls-2" d="M265.34,49.72c-.74.18-1.47.39-2.2.57s-1.33.4-2,.61l-1.9.61-2.36.73a.73.73,0,0,0-.54.87.74.74,0,0,0,.88.54c1.42-.44,2.84-.87,4.25-1.34.66-.22,1.32-.42,2-.6l.94-.25,1.27-.33a.73.73,0,0,0-.17-1.43l-.17,0"/><path class="cls-2" d="M275,48.69l-2.35,1a18.43,18.43,0,0,0-2.11,1.11l-.35.23-.14.1a2.55,2.55,0,0,0-.28.21.31.31,0,0,0-.11.09,1.85,1.85,0,0,0-.57.64,1.24,1.24,0,0,0-.14.45,1.46,1.46,0,0,0,0,.42s0,.08,0,.12a2,2,0,0,0,.1.26,1.54,1.54,0,0,0,.21.29,1.44,1.44,0,0,0,.34.27,2,2,0,0,0,.32.18,7.46,7.46,0,0,0,.89.35c.58.19,1.17.35,1.76.53a18.87,18.87,0,0,1,1.78.64,5.85,5.85,0,0,1,.9.55,3.82,3.82,0,0,1,.48.51,3.07,3.07,0,0,1,.23.39c0,.1.05.19.07.29v0a1.43,1.43,0,0,1-.09.27,4.86,4.86,0,0,1-.53.83,5.51,5.51,0,0,1-.87.8,7.44,7.44,0,0,1-1.46.81,4.53,4.53,0,0,1-.88.22,5.89,5.89,0,0,1-1.11,0c-.51-.11-1-.22-1.53-.36a.73.73,0,1,0-.43,1.39c.45.11.89.23,1.35.31a7.1,7.1,0,0,0,1,.15,5,5,0,0,0,1.63-.16,6.74,6.74,0,0,0,1.68-.78,8.6,8.6,0,0,0,.93-.65,5.52,5.52,0,0,0,1.14-1.27,5.18,5.18,0,0,0,.4-.73,2.76,2.76,0,0,0,.19-.75,1.57,1.57,0,0,0,0-.43,1.65,1.65,0,0,0-.11-.36,2.77,2.77,0,0,0-.39-.74,5.2,5.2,0,0,0-2.5-1.8c-.74-.27-1.48-.52-2.23-.73a15,15,0,0,1-1.6-.53l-.23-.13.25-.21,0,0,.11-.09h0a.42.42,0,0,0,.14-.09l.16-.1c.27-.18.55-.34.83-.5.52-.29,1.07-.54,1.62-.78l2.1-.92a.77.77,0,0,0,.35-.42A.77.77,0,0,0,276,49a.69.69,0,0,0-.42-.35l-.2,0a.94.94,0,0,0-.36.08m-4.38,3.83,0,0,0,0h0m-.19.18,0,0,0,0h0m0,0v0Zm-.07.08,0,.06,0-.06"/><path class="cls-2" d="M286.23,51a1.57,1.57,0,0,0-.36.59,3.76,3.76,0,0,0-.2.73l0,.14-.21.31a6.38,6.38,0,0,1-1,.86l0,0-.06,0-.09.07,0,0c-.61.44-1.25.86-1.84,1.32-.28.22-.55.42-.81.65.06-.83.13-1.65.21-2.47a.73.73,0,0,0-.7-.75.75.75,0,0,0-.75.7c-.1,1.15-.2,2.29-.29,3.44l0,.45q-.54.47-1.05,1A5.84,5.84,0,0,0,278,59.32a3.1,3.1,0,0,0-.4,1.39,3.23,3.23,0,0,0,.07.69,2,2,0,0,0,.35.74,1.32,1.32,0,0,0,.58.44,1.07,1.07,0,0,0,.3.06,1.63,1.63,0,0,0,.44,0l.26-.1a1.07,1.07,0,0,0,.27-.16,2.67,2.67,0,0,0,.62-.59,3.63,3.63,0,0,0,.57-1,5.77,5.77,0,0,0,.28-1.23c0-.36.1-.71.13-1.07s0-.49.06-.73l.21-.18c.38-.34.76-.69,1.15-1s.69-.54,1-.8.91-.62,1.35-.94c-.08.6-.14,1.2-.19,1.81s-.13,1.45-.18,2.18c-.06.91-.13,1.81-.13,2.72a.75.75,0,0,0,.71.75.73.73,0,0,0,.74-.7c0-.73.05-1.46.09-2.19s.09-1.31.15-2c.1-1.24.24-2.48.41-3.71v0c0-.23.07-.47.12-.7s.07-.15.11-.22a3.44,3.44,0,0,0,.26-.67,1.52,1.52,0,0,0,.06-.76.7.7,0,0,0-.49-.52.76.76,0,0,0-.21,0,.8.8,0,0,0-.5.19M280,59.14c0,.09,0,.17,0,.25a5.52,5.52,0,0,1-.28,1.06,2.66,2.66,0,0,1-.29.45l-.23.23c0-.08,0-.16-.05-.23s0-.23,0-.34a2.29,2.29,0,0,1,.12-.37,6.46,6.46,0,0,1,.44-.71l.32-.34m-1,2.08h0m.29.09,0,0,0,0m5.11-7.65.05,0,0,0-.08,0"/><path class="cls-2" d="M307.12,49.29c-.22.59-.42,1.18-.62,1.78s-.33,1-.52,1.49-.38,1-.59,1.53-.45,1-.68,1.57l.08-.17a14,14,0,0,1-1.55,2.88l-.27.27-.14.07h-.06l-.09-.05-.12-.13a4.35,4.35,0,0,1-.32-.65,20.54,20.54,0,0,1-.65-2.29c-.23-.92-.42-1.85-.61-2.77a.74.74,0,0,0-.88-.53.73.73,0,0,0-.53.87c.19.91.39,1.83.6,2.73a19.7,19.7,0,0,0,.6,2.16,6,6,0,0,0,.47,1.1,2.59,2.59,0,0,0,.44.55,1.7,1.7,0,0,0,.92.45c1,.15,1.75-.77,2.23-1.54a10.5,10.5,0,0,0,.57-1c.19-.38.36-.76.54-1.14.49-1.06.93-2.13,1.35-3.22s.79-2.34,1.22-3.49a.74.74,0,0,0-.48-.91.76.76,0,0,0-.21,0,.77.77,0,0,0-.7.51m-4.5,9.32h0m0,0h0l0,0,0,0m0,.09.09,0-.09,0m.09,0h0"/><path class="cls-2" d="M309.48,52.94c-.06.81-.11,1.62-.17,2.43s-.13,1.31-.21,2a7.08,7.08,0,0,0-.06,1.3,2.28,2.28,0,0,0,.13.69,2.14,2.14,0,0,0,.42.73,2.24,2.24,0,0,0,.5.41,2.57,2.57,0,0,0,.72.31,5.42,5.42,0,0,0,2.37,0,8.92,8.92,0,0,0,1.24-.29.72.72,0,1,0-.34-1.4,14.17,14.17,0,0,1-1.81.37,5.16,5.16,0,0,1-.88,0,2.25,2.25,0,0,1-.42-.13l-.23-.14-.12-.12a.91.91,0,0,1-.07-.14,1.63,1.63,0,0,1-.07-.3,8.19,8.19,0,0,1,.11-1.56c.05-.42.09-.84.13-1.25.09-.94.14-1.87.21-2.8a.73.73,0,0,0-.7-.75h0a.74.74,0,0,0-.73.7"/><path class="cls-2" d="M312.87,54.57c-1.4.4-2.81.72-4.23,1a.74.74,0,0,0-.53.88A.73.73,0,0,0,309,57c1.42-.3,2.83-.62,4.23-1a.73.73,0,0,0,.53-.87.74.74,0,0,0-.7-.56l-.17,0"/><path class="cls-2" d="M317,50.11c-1.13.2-2.27.34-3.4.51L310,51.2a.74.74,0,0,0-.54.88.75.75,0,0,0,.32.44.78.78,0,0,0,.56.09c1.19-.2,2.39-.38,3.58-.57s2.32-.32,3.47-.52a.73.73,0,0,0,.53-.88.71.71,0,0,0-.72-.54H317"/><path class="cls-2" d="M319.36,50.08c-.4,1.56-.8,3.12-1.14,4.7L317.74,57c0,.18-.08.36-.13.53l-.18.46-.21.58a3.37,3.37,0,0,0-.21,1,.74.74,0,0,0,.51.71.72.72,0,0,0,.83-.31,5.39,5.39,0,0,0,.49-1.36l.16-.64c.05-.11.09-.22.14-.34a9.91,9.91,0,0,1,.83-1.4c.25-.36.51-.72.79-1.07a10.69,10.69,0,0,1,1.79-1.64,7.72,7.72,0,0,1,1.31-.74,4.15,4.15,0,0,1,.77-.2H325l-.18.26a15.62,15.62,0,0,1-1.5,1.43,10.51,10.51,0,0,0-1.73,1.92,1.82,1.82,0,0,0-.31,1.37,2,2,0,0,0,.67,1.07,8.93,8.93,0,0,0,1.18.83c.29.18.58.37.86.58s.67.52,1,.78a.72.72,0,0,0,1-.23.67.67,0,0,0,.09-.55.76.76,0,0,0-.31-.45c-.48-.35-.92-.72-1.41-1s-.93-.58-1.37-.91a2.29,2.29,0,0,1-.27-.27l0-.06v-.08a.5.5,0,0,1,.05-.13,2.94,2.94,0,0,1,.37-.55,16.62,16.62,0,0,1,1.58-1.56c.27-.24.54-.48.79-.74a8.24,8.24,0,0,0,.67-.79,2,2,0,0,0,.32-.64,1.28,1.28,0,0,0-.13-1,1.37,1.37,0,0,0-.68-.57,2.22,2.22,0,0,0-.73-.16,3.53,3.53,0,0,0-.79.08,5.41,5.41,0,0,0-.89.28,12.17,12.17,0,0,0-2.87,2c-.16.15-.31.31-.46.48q.41-1.69.84-3.39a.73.73,0,0,0-.48-.91.64.64,0,0,0-.2,0,.7.7,0,0,0-.7.51M325,52.32a.28.28,0,0,1,0,.09h0a.28.28,0,0,0,0-.09m0,.18Zm0,0h0m.1.11,0,0,0,0m-1.34.13-.06,0,.06,0m-1.15.65-.06,0Zm0,3.9,0,.08,0-.08"/><path class="cls-2" d="M330.17,52.9a.73.73,0,0,0-.53.88c.28.92.57,1.85.8,2.79.1.42.2.84.27,1.26s.16,1.14.25,1.71a.65.65,0,0,0,.32.44.67.67,0,0,0,.55.09.71.71,0,0,0,.45-.32.75.75,0,0,0,.09-.55c-.09-.56-.16-1.12-.25-1.68s-.17-.86-.27-1.29c-.23-.94-.52-1.87-.81-2.79a.76.76,0,0,0-.31-.45.79.79,0,0,0-.39-.11l-.17,0"/><path class="cls-2" d="M334.37,51.4c-.7,0-1.39.07-2.08.16s-1.14.18-1.71.3-1.08.28-1.61.44l-1.84.56a.78.78,0,0,0-.44.32.74.74,0,0,0-.09.56.73.73,0,0,0,.87.53c.91-.28,1.82-.59,2.75-.82.45-.12.9-.23,1.35-.32s.81-.13,1.21-.18,1-.08,1.54-.1a.77.77,0,0,0,.52-.2.69.69,0,0,0,.23-.5.73.73,0,0,0-.68-.75h0"/><path class="cls-2" d="M337,53.12a.74.74,0,0,0-.53.88c.21,1.2.41,2.4.62,3.6a4.62,4.62,0,0,0,.71,1.9,3.38,3.38,0,0,0,.8.8,3.9,3.9,0,0,0,1,.51,5.44,5.44,0,0,0,1.19.29,7.17,7.17,0,0,0,1.22.1,13.43,13.43,0,0,0,1.41-.13.65.65,0,0,0,.44-.32.67.67,0,0,0,.09-.55.73.73,0,0,0-.32-.45.8.8,0,0,0-.55-.09l-.39.05-.49,0a5.17,5.17,0,0,1-1.24-.07,6,6,0,0,1-1.17-.34,3.46,3.46,0,0,1-.52-.32,2.68,2.68,0,0,1-.28-.3,3.46,3.46,0,0,1-.27-.5,14.26,14.26,0,0,1-.47-2.34l-.39-2.21a.72.72,0,0,0-.72-.56l-.16,0"/><path class="cls-2" d="M343.8,54.07c-.54.11-1.09.22-1.64.3s-.85.11-1.28.15l-.53,0c-.39,0-.8,0-1.19.08a.74.74,0,0,0-.55.69.72.72,0,0,0,.51.71,7.4,7.4,0,0,0,1.24.17l1.11.11a.71.71,0,0,0,.71-.5c.66-.09,1.31-.21,2-.34a.72.72,0,0,0-.18-1.42h-.16m-3,.46h0"/><path class="cls-2" d="M344.64,50.09c-1.52.1-3,.23-4.56.35s-3.14.32-4.7.52a.67.67,0,0,0-.45.32.76.76,0,0,0-.09.55.74.74,0,0,0,.32.45.78.78,0,0,0,.56.09c1-.13,2-.26,3.07-.37,1.93-.17,3.87-.34,5.8-.46a.76.76,0,0,0,.52-.19.78.78,0,0,0,.23-.51.68.68,0,0,0-.2-.52.71.71,0,0,0-.48-.23h0"/><path class="cls-2" d="M355.05,49.49a.86.86,0,0,0-.45.32c-1,1.17-1.89,2.35-2.84,3.53l-1.88,2.22c-.7.81-1.37,1.65-2.08,2.47a.75.75,0,0,0-.22.51.72.72,0,0,0,.19.52.7.7,0,0,0,.51.22.68.68,0,0,0,.52-.19c.57-.67,1.13-1.35,1.69-2l1.56-1.84c1.07-1.26,2.1-2.57,3.14-3.86l.64-.79a.68.68,0,0,0,.09-.56.71.71,0,0,0-.32-.44.73.73,0,0,0-.38-.11l-.17,0"/><path class="cls-2" d="M345.76,52.42a.74.74,0,0,0,0,1l2.76,2.92c.4.43.8.86,1.19,1.3s.75.93,1.11,1.41c.53.77,1,1.54,1.56,2.32a.74.74,0,0,0,.42.34.72.72,0,0,0,.86-1c-.51-.78-1-1.54-1.55-2.29a19.3,19.3,0,0,0-1.42-1.82c-1-1.18-2.14-2.31-3.22-3.45l-.65-.69a.75.75,0,0,0-.53-.23.73.73,0,0,0-.5.19"/><path class="cls-2" d="M191.93,99.58a.74.74,0,0,0-.29,1c.47,1,.92,1.94,1.4,2.9a12.34,12.34,0,0,0,.7,1.29c.27.43.56.83.86,1.23a5.77,5.77,0,0,1,.5.87,8.05,8.05,0,0,1,.35,1.51c0,.33,0,.65.05,1,0,.14,0,.27,0,.41a2.6,2.6,0,0,0,.17.72,1.35,1.35,0,0,0,.44.59,1.48,1.48,0,0,0,.53.23,3.67,3.67,0,0,0,1.36.09c.38,0,.75-.1,1.12-.16l2.19-.35c.71-.11,1.43-.2,2.14-.3l1.11-.11c.41,0,.82,0,1.23-.08.76-.06,1.51-.09,2.27-.13l4.73-.28,3.07-.21c1-.06,2.08-.1,3.12-.15a.77.77,0,0,0,.52-.2.72.72,0,0,0-.47-1.25c-1.6.08-3.19.15-4.79.26-.81.06-1.62.12-2.43.16l-2.33.13-4.85.3c-.42,0-.84.09-1.26.13s-.88.1-1.33.16c-.77.1-1.54.23-2.31.36s-1.29.22-1.94.3a3.25,3.25,0,0,1-.54,0,1.22,1.22,0,0,1-.26-.06c0-.12-.05-.24-.07-.36,0-.34,0-.69-.06-1a10.06,10.06,0,0,0-.17-1.21c0-.15-.08-.31-.12-.46s-.17-.47-.26-.7a3.15,3.15,0,0,0-.31-.57c-.21-.32-.44-.64-.68-1s-.42-.62-.6-1-.39-.75-.58-1.13l-1.26-2.64a.71.71,0,0,0-.64-.37.72.72,0,0,0-.35.08m5,9.82v0"/><path class="cls-2" d="M229.66,101.3c-1.29.36-2.58.71-3.86,1.09-.28.08-.54.18-.81.27l-.15,0h0l-.14.05-.13,0h0a.44.44,0,0,0-.16.06h0l-.14,0h0l0,0h0c-.37.15-.73.31-1.09.48l-.45.25a4.81,4.81,0,0,0-.6.4,2.73,2.73,0,0,0-.25.23l-.18.22a1.89,1.89,0,0,0-.11.25,1.07,1.07,0,0,0,0,.47,1.75,1.75,0,0,0,.15.34,1.43,1.43,0,0,0,.67.52,6,6,0,0,0,1.17.33l1.21.22a37.91,37.91,0,0,1,5,1.06,4.94,4.94,0,0,1,.49.19,1.79,1.79,0,0,1,.34.22,1.66,1.66,0,0,1,.26.27,3.75,3.75,0,0,1,.24.44,4.34,4.34,0,0,1,.14.6,3.78,3.78,0,0,1,0,.82,3,3,0,0,1-.18.58,4.1,4.1,0,0,1-.36.56,4.93,4.93,0,0,1-.62.59,5.46,5.46,0,0,1-1,.52,4,4,0,0,1-.68.18h-.26l-.23-.07-.21-.13-.17-.18a.74.74,0,0,0-1,0,.72.72,0,0,0,0,1,2.5,2.5,0,0,0,1.22.77,2.89,2.89,0,0,0,1.62-.1,5.6,5.6,0,0,0,1.39-.68,4.88,4.88,0,0,0,.66-.52,4.48,4.48,0,0,0,.63-.75,4.08,4.08,0,0,0,.59-3.21,3.62,3.62,0,0,0-.73-1.45,3.06,3.06,0,0,0-.57-.51,3.44,3.44,0,0,0-.84-.41,9.9,9.9,0,0,0-1.5-.44l-1.28-.28c-.76-.15-1.53-.26-2.29-.4l-.93-.18c-.32-.06-.64-.11-1-.2a14.69,14.69,0,0,1,1.39-.66l.14,0,0,0,.14,0,.13-.05h0l.14,0c.28-.1.57-.19.85-.27l1.11-.33,2.65-.73a.72.72,0,0,0-.17-1.43.52.52,0,0,0-.17,0M225.47,104l-.08,0h0l.07,0m-.11,0,0,0h0M224.15,103l.08,0h0l-.08,0"/><path class="cls-2" d="M236.9,104.23a.78.78,0,0,0-.23.51c-.23,1.79-.46,3.57-.61,5.37a.73.73,0,0,0,1.45,0c.15-1.8.38-3.59.61-5.37a.71.71,0,0,0-.2-.52.69.69,0,0,0-.5-.23h0a.73.73,0,0,0-.49.19"/><path class="cls-2" d="M240.9,101.3c-.4,0-.79.12-1.19.18s-.75.15-1.12.23a16.08,16.08,0,0,0-2.47.77,20,20,0,0,0-2.09,1c-.48.24-.95.49-1.42.74a.72.72,0,1,0,.69,1.27,35.06,35.06,0,0,1,3.59-1.76,15.54,15.54,0,0,1,2-.6c.36-.07.71-.16,1.07-.22l1.07-.17c.32,0,.64-.07,1-.11l-.19,0a8.15,8.15,0,0,1,1.71,0,2.38,2.38,0,0,1,.54.14l.08,0,.09.1a1.92,1.92,0,0,1,.12.25s0,0,0,.05a2.94,2.94,0,0,1-.31.47,6.42,6.42,0,0,1-.91.81,12.31,12.31,0,0,1-2,1q-.67.3-1.38.57l-.59.21a6.55,6.55,0,0,0-1.34.56.77.77,0,0,0-.35.42.78.78,0,0,0,.06.56.73.73,0,0,0,1,.29,3.17,3.17,0,0,1,.45-.23l1.18-.42c.4-.14.8-.31,1.19-.47l.95-.42.63-.29a7.44,7.44,0,0,0,1.18-.72,6.4,6.4,0,0,0,1.07-1,3.24,3.24,0,0,0,.41-.63,2,2,0,0,0,.16-.4,1.62,1.62,0,0,0,0-.62.56.56,0,0,1,0-.12c0-.1-.07-.2-.11-.29l-.15-.31a2,2,0,0,0-1.35-.89,7.15,7.15,0,0,0-.91-.14,4.35,4.35,0,0,0-.51,0,17.55,17.55,0,0,0-1.78.14m3.4,1.85v0m0,.13a.41.41,0,0,1,0,.11s0-.07,0-.11m-.06,0,0,0,0,0"/><path class="cls-2" d="M249,101.92a.71.71,0,0,0-.45.32.77.77,0,0,0-.09.55c.19,1.29.37,2.58.52,3.88v.09l-.18,0a9.73,9.73,0,0,1-1.07-.24q-.3-.07-.6-.18a1.78,1.78,0,0,0-.94-.11.7.7,0,0,0-.52.49.83.83,0,0,0,0,.44,1.22,1.22,0,0,0,.24.43l.3.37.33.44c.22.33.42.66.61,1s.35.68.51,1c.09.19.17.38.27.56a1.9,1.9,0,0,0,.22.33,2.27,2.27,0,0,0,.28.26l.08,0a.66.66,0,0,0,.36.11,1,1,0,0,0,.34,0,1.18,1.18,0,0,0,.71-.61,3.32,3.32,0,0,0,.37-1.07c.06-.26.09-.52.13-.79a6.25,6.25,0,0,0,.08-.86l.51,0,.28,0,.42,0a5.58,5.58,0,0,0,.57-.08c.38-.07.75-.16,1.13-.26a5.37,5.37,0,0,0,.84-.32c0,.32,0,.64-.05,1s0,.51,0,.77,0,.26,0,.4a1.48,1.48,0,0,1,0,.21v.14a2.17,2.17,0,0,0,0,.44.67.67,0,0,0,.32.45.75.75,0,0,0,.55.09.83.83,0,0,0,.49-.33,2.85,2.85,0,0,0,.24-.53.68.68,0,0,0-.16-.7c0-.29,0-.59,0-.89,0-.48.05-1,.08-1.44s0-.87.08-1.31l.06-.29a8.7,8.7,0,0,0,.15-.89l.06-.44,0-.27a2.15,2.15,0,0,0,0-.62.73.73,0,0,0-.49-.53.74.74,0,0,0-.82.31,1,1,0,0,0-.17.43l-.09.56c0,.16,0,.31-.05.46l-.06.69,0,.3a2.41,2.41,0,0,1-.08.25l-.07.11-.11.09a4.41,4.41,0,0,1-.78.4c-.31.1-.62.19-.94.27s-.66.11-1,.16l-.49,0h-.45v0c-.06-.79-.17-1.59-.28-2.38s-.19-1.34-.29-2a.68.68,0,0,0-.32-.44.73.73,0,0,0-.38-.11l-.17,0m-.33,7.27c-.15-.29-.3-.58-.47-.86-.05-.09-.11-.18-.17-.27l.67.12.33,0a5.85,5.85,0,0,1,0,.59c0,.2,0,.4-.07.6s0,.14-.05.21c-.07-.15-.13-.29-.2-.43"/><path class="cls-2" d="M259.65,101.13c-.39,1.68-.76,3.36-1.15,5.05-.17.76-.34,1.53-.48,2.3a4.63,4.63,0,0,0,0,1.66,1.66,1.66,0,0,0,1,1.26,4.85,4.85,0,0,0,2.81-.29,8.47,8.47,0,0,0,.87-.38.73.73,0,0,0-.69-1.28,7,7,0,0,1-.74.34,8.48,8.48,0,0,1-1.21.28,3.69,3.69,0,0,1-.47,0l-.1,0h0l-.05-.09a2.21,2.21,0,0,1-.05-.25,4.24,4.24,0,0,1,.05-.87c.21-1.14.48-2.27.73-3.4l.87-3.84a.72.72,0,0,0-.47-.91.76.76,0,0,0-.21,0,.71.71,0,0,0-.7.51m-.24,8.79,0,0,0,0m.13.13h0m0,0h0l.09,0-.09,0m.14,0h0"/><path class="cls-2" d="M264.5,103.85l-3.81.67a.72.72,0,0,0-.53.87.71.71,0,0,0,.32.45.75.75,0,0,0,.55.09l3.81-.67a.72.72,0,0,0,.54-.87.77.77,0,0,0-.32-.45.75.75,0,0,0-.38-.1h-.18"/><path class="cls-2" d="M265.54,100.38l-3.42.18a.82.82,0,0,0-.52.2.73.73,0,0,0-.23.5.71.71,0,0,0,.2.52.69.69,0,0,0,.5.23l3.42-.18a.77.77,0,0,0,.52-.2.72.72,0,0,0-.44-1.25h0"/><path class="cls-2" d="M268.67,100.49c-.42,1.42-.84,2.85-1.13,4.31l-.24,1.13q-.26.5-.48,1a6.35,6.35,0,0,0-.45,1.4,3.43,3.43,0,0,0-.07.78,1.22,1.22,0,0,0,.27.86.83.83,0,0,0,.76.23.86.86,0,0,0,.57-.51,4.42,4.42,0,0,0,.31-.93c.09-.36.14-.72.21-1.08s.16-.75.23-1.13l0-.11c.12-.24.26-.48.4-.72a16.43,16.43,0,0,1,1.16-1.7,6.52,6.52,0,0,1,.91-.91,3.91,3.91,0,0,1,.57-.31,3.14,3.14,0,0,1,.51-.12,3.62,3.62,0,0,1,.57,0,3.94,3.94,0,0,1,.69.21,3.47,3.47,0,0,1,.61.38l.19.19s0,0,0,.08,0,0,0,.07a2.33,2.33,0,0,1-.17.26,7.91,7.91,0,0,1-.91.92c-.28.23-.55.45-.84.67l-.79.63a7.09,7.09,0,0,0-1.21,1.11,1.75,1.75,0,0,0-.41,1.13,2,2,0,0,0,.61,1.29,5.69,5.69,0,0,0,.63.57l.33.3.69.63.4.35.32.27a3,3,0,0,0,.6.35.78.78,0,0,0,.56.09.74.74,0,0,0,.54-.87.66.66,0,0,0-.32-.44l-.3-.15a1,1,0,0,1-.27-.18c-.33-.28-.64-.57-1-.86l-.51-.45a6.91,6.91,0,0,1-.78-.75l-.09-.16v0l0,0a.76.76,0,0,1,.12-.19,8.92,8.92,0,0,1,1.23-1.06c.3-.25.61-.48.92-.72s.6-.5.89-.77a9.42,9.42,0,0,0,.78-.88,1.85,1.85,0,0,0,.34-.67,1.25,1.25,0,0,0,0-.51,1.5,1.5,0,0,0-.15-.55,2.76,2.76,0,0,0-.94-1,4,4,0,0,0-1.43-.61,3.83,3.83,0,0,0-1.65,0,4.15,4.15,0,0,0-1.48.75,5.57,5.57,0,0,0-.57.52c.16-.56.33-1.11.5-1.66a.74.74,0,0,0-.48-.91.76.76,0,0,0-.21,0,.73.73,0,0,0-.7.51m5.67,3.15a.37.37,0,0,1,0,.11.54.54,0,0,0,0-.11m-2.86,4.5v.08s0,0,0-.08"/><path class="cls-2" d="M279.17,105.46l-.21,2.4c0,.34,0,.67,0,1a5.54,5.54,0,0,0,0,.71,3.81,3.81,0,0,0,.16.83,2.55,2.55,0,0,0,1,1.3,2.44,2.44,0,0,0,.57.26,4,4,0,0,0,.78.16,5.9,5.9,0,0,0,1,0,10.82,10.82,0,0,0,1.26-.15c.77-.13,1.54-.29,2.31-.43a.72.72,0,0,0,.53-.87.73.73,0,0,0-.87-.54c-1,.19-2,.4-3,.53a7.45,7.45,0,0,1-1.25,0,2.64,2.64,0,0,1-.46-.13l-.13-.08c-.06,0-.1-.11-.15-.16l-.17-.31a3,3,0,0,1-.1-.5,12.18,12.18,0,0,1,.07-2.09c.05-.63.11-1.26.17-1.89a.72.72,0,0,0-.7-.75h0a.75.75,0,0,0-.73.7"/><path class="cls-2" d="M284.18,106.42c-1.17.26-2.35.45-3.53.66a.72.72,0,0,0-.53.87.73.73,0,0,0,.87.54c1.18-.21,2.36-.4,3.53-.66a.73.73,0,0,0-.18-1.43l-.16,0"/><path class="cls-2" d="M286.36,101.18c-1.05.18-2.11.34-3.16.47-1.26.16-2.53.3-3.79.43a.68.68,0,0,0-.44.32.71.71,0,0,0,.23,1l.17.08a.7.7,0,0,0,.38,0c1.25-.13,2.49-.27,3.73-.42,1.08-.13,2.15-.3,3.22-.48a.73.73,0,0,0,.54-.87.77.77,0,0,0-.32-.45.75.75,0,0,0-.38-.1h-.18"/></g></g></svg>